<svg width="91" height="111" viewBox="0 0 91 111" fill="none" xmlns="http://www.w3.org/2000/svg">
<path fill-rule="evenodd" clip-rule="evenodd" d="M45.4304 0L82.4463 12.6643C87.5789 14.0896 90.8714 16.9777 90.8714 22.8948V41.4475C90.9482 55.9242 86.7732 70.1456 78.7978 82.5843C71.9577 93.1634 60.7782 105.517 45.797 110.151C31.7017 104.141 19.9313 94.259 12.0757 81.8393C4.09253 69.397 -0.0823651 55.1671 0.0012312 40.6829V20.0442C0.0012312 16.3224 3.23321 14.9165 7.23993 13.1733C7.74321 12.9543 8.25895 12.7296 8.78238 12.4943L45.4304 0ZM45.4304 10.898L75.1292 21.0527C79.2456 22.1947 81.8877 24.5161 81.8877 29.2636V44.1831C81.953 55.8062 78.6041 67.2259 72.2026 77.2135C66.7138 85.6884 57.7394 95.6068 45.7272 99.3247C34.4095 94.4918 24.9646 86.545 18.6715 76.5624C12.2626 66.5768 8.90965 55.1571 8.97578 43.532V26.9423C8.97578 23.9852 11.569 22.8577 14.7806 21.4601C15.1888 21.2834 15.6056 21.1019 16.0291 20.9117L45.4304 10.898Z" fill="url(#paint0_linear_246_2213)"/>
<path fill-rule="evenodd" clip-rule="evenodd" d="M68.9159 38.2943C70.5794 39.855 70.662 42.4692 69.1003 44.1328L45.8308 68.9166C45.0308 69.7685 43.9061 70.242 42.7373 70.219C41.5684 70.1959 40.4639 69.6783 39.6986 68.7946L27.1687 54.3372C25.6743 52.6132 25.8606 50.0037 27.5846 48.5103C29.3085 47.0158 31.918 47.2021 33.4115 48.9261L42.9429 59.9232L63.0776 38.4776C64.6393 36.8141 67.2534 36.7326 68.9159 38.2943Z" fill="url(#paint1_linear_246_2213)"/>
<defs>
<linearGradient id="paint0_linear_246_2213" x1="45.4362" y1="0" x2="45.4362" y2="110.151" gradientUnits="userSpaceOnUse">
<stop stop-color="#E34338"/>
<stop offset="0.520833" stop-color="#CC3F31"/>
<stop offset="1" stop-color="#D02C1C"/>
</linearGradient>
<linearGradient id="paint1_linear_246_2213" x1="48.1894" y1="37.1744" x2="48.1894" y2="70.2198" gradientUnits="userSpaceOnUse">
<stop stop-color="#E34338"/>
<stop offset="0.520833" stop-color="#CC3F31"/>
<stop offset="1" stop-color="#D02C1C"/>
</linearGradient>
</defs>
</svg>
