<svg width="112" height="127" viewBox="0 0 112 127" fill="none" xmlns="http://www.w3.org/2000/svg">
<g id="Group 426">
<path id="Vector" d="M22.9828 51.2097C21.8525 51.2097 20.9344 50.2898 20.9344 49.1613H16.8376C16.8376 51.828 18.5559 54.0812 20.9344 54.9298V59.4032H25.0312V54.9298C27.4097 54.0821 29.128 51.8289 29.128 49.1613C29.128 45.7732 26.371 43.0162 22.9828 43.0162C21.8525 43.0162 20.9344 42.0962 20.9344 40.9678C20.9344 39.8393 21.8525 38.9194 22.9828 38.9194C24.1131 38.9194 25.0312 39.8393 25.0312 40.9678H29.128C29.128 38.3011 27.4097 36.0479 25.0312 35.1993V30.7258H20.9344V35.1993C18.556 36.047 16.8376 38.3002 16.8376 40.9678C16.8376 44.3559 19.5947 47.1129 22.9828 47.1129C24.1131 47.1129 25.0312 48.0329 25.0312 49.1613C25.0312 50.2898 24.1131 51.2097 22.9828 51.2097Z" fill="url(#paint0_linear_1702_1747)"/>
<path id="Vector_2" d="M100.822 0H47.5635C41.9159 0 37.3216 4.59424 37.3216 10.2419V27.6963C33.4234 24.472 28.4258 22.5323 22.9829 22.5323C10.5591 22.5323 0.450646 32.6408 0.450646 45.0645C0.450646 50.5074 2.39022 55.505 5.61469 59.4032H0L3.92846 79.0432C4.49999 81.9046 7.03405 83.9839 9.95563 83.9839H45.5156C46.6459 83.9839 47.564 84.9038 47.564 86.0323C47.564 87.1607 46.6459 88.0806 45.5156 88.0806H8.64466C4.12627 88.0806 0.451114 91.7558 0.451114 96.2742C0.451114 100.793 4.12627 104.468 8.64466 104.468C13.1631 104.468 16.8382 100.793 16.8382 96.2742C16.8382 94.7745 16.4038 93.3882 15.6997 92.1774H30.2697C29.5628 93.3882 29.1285 94.7745 29.1285 96.2742C29.1285 100.793 32.8036 104.468 37.322 104.468V116.758C37.322 122.406 41.9163 127 47.5639 127H100.822C106.47 127 111.064 122.406 111.064 116.758V10.2419C111.064 4.59424 106.47 0 100.822 0H100.822ZM47.5635 4.09677H100.822C104.21 4.09677 106.967 6.85379 106.967 10.2419V12.2903H41.4184V10.2419C41.4184 6.85379 44.1754 4.09677 47.5635 4.09677ZM22.9829 26.629C33.149 26.629 41.4184 34.9003 41.4184 45.0645C41.4184 55.2287 33.149 63.5 22.9829 63.5C12.8168 63.5 4.54742 55.2287 4.54742 45.0645C4.54742 34.9003 12.8168 26.629 22.9829 26.629ZM7.94564 78.239L4.9983 63.4988H10.0699C13.7305 66.0711 18.1794 67.5956 22.9848 67.5956C27.7902 67.5956 32.2372 66.0712 35.8997 63.4988H46.5148L43.7842 79.8859H9.95657C8.98083 79.8859 8.1368 79.1937 7.94659 78.239L7.94564 78.239ZM12.741 96.273C12.741 98.5326 10.9038 100.37 8.64419 100.37C6.38458 100.37 4.54742 98.5326 4.54742 96.273C4.54742 94.0134 6.38458 92.1762 8.64419 92.1762C10.9038 92.1762 12.741 94.0134 12.741 96.273ZM33.2248 96.273C33.2248 94.0134 35.062 92.1762 37.3216 92.1762C39.5812 92.1762 41.4184 94.0134 41.4184 96.273C41.4184 98.5326 39.5812 100.37 37.3216 100.37C35.062 100.37 33.2248 98.5326 33.2248 96.273ZM45.5152 96.273C45.5152 94.7733 45.0808 93.387 44.3767 92.1762H45.5152C48.9033 92.1762 51.6603 89.4192 51.6603 86.0311C51.6603 83.4705 50.0847 81.2767 47.8543 80.3551L54.0791 43.0159H65.999C69.3872 43.0159 72.1442 40.2589 72.1442 36.8707C72.1442 33.4826 69.3872 30.7256 65.999 30.7256H51.974L47.1951 59.403H40.3513C43.5756 55.5047 45.5154 50.5071 45.5154 45.0643C45.5154 40.2589 43.991 35.8119 41.4186 32.1494V16.3869H106.967V106.516H41.4186V103.329C43.8566 101.907 45.5154 99.2936 45.5154 96.274L45.5152 96.273ZM54.7612 38.9182L55.4434 34.8214H65.9991C67.1293 34.8214 68.0474 35.7414 68.0474 36.8698C68.0474 37.9982 67.1293 38.9182 65.9991 38.9182H54.7612ZM100.821 122.902H47.5626C44.1745 122.902 41.4174 120.145 41.4174 116.757V110.612H106.966V116.757C106.966 120.145 104.209 122.902 100.821 122.902Z" fill="url(#paint1_linear_1702_1747)"/>
<path id="Vector_3" d="M68.0474 114.71H80.3377V118.806H68.0474V114.71Z" fill="url(#paint2_linear_1702_1747)"/>
<path id="Vector_4" d="M102.87 20.4839H45.5151V28.7205H49.6119V24.5807H98.7732V98.3226H49.6119V102.419H102.87V20.4839Z" fill="url(#paint3_linear_1702_1747)"/>
</g>
<defs>
<linearGradient id="paint0_linear_1702_1747" x1="22.9828" y1="30.7258" x2="22.9828" y2="59.4032" gradientUnits="userSpaceOnUse">
<stop stop-color="#E34338"/>
<stop offset="1" stop-color="#D02C1C"/>
</linearGradient>
<linearGradient id="paint1_linear_1702_1747" x1="55.532" y1="0" x2="55.532" y2="127" gradientUnits="userSpaceOnUse">
<stop stop-color="#E34338"/>
<stop offset="1" stop-color="#D02C1C"/>
</linearGradient>
<linearGradient id="paint2_linear_1702_1747" x1="74.1925" y1="114.71" x2="74.1925" y2="118.806" gradientUnits="userSpaceOnUse">
<stop stop-color="#E34338"/>
<stop offset="1" stop-color="#D02C1C"/>
</linearGradient>
<linearGradient id="paint3_linear_1702_1747" x1="74.1926" y1="20.4839" x2="74.1926" y2="102.419" gradientUnits="userSpaceOnUse">
<stop stop-color="#E34338"/>
<stop offset="1" stop-color="#D02C1C"/>
</linearGradient>
</defs>
</svg>
