<svg width="138" height="131" viewBox="0 0 138 131" fill="none" xmlns="http://www.w3.org/2000/svg">
<path id="Vector" d="M7.50716 39.9141H31.1357C33.1127 39.9207 35.0083 40.7042 36.4132 42.0961C37.8181 43.488 38.619 45.3771 38.6443 47.3545C38.7467 53.7154 38.8138 66.7068 38.904 72.9852H46.0034V62.1053C46.0166 50.6972 50.1554 39.0778 58.5937 32.064C54.2426 27.5154 52.4328 21.1027 53.7641 14.9485C55.0953 8.79545 59.3936 3.70548 65.2366 1.3619C71.0796 -0.980675 77.7039 -0.27098 82.9163 3.25775C88.1301 6.78637 91.2512 12.6732 91.2479 18.9691C91.2457 19.6447 90.9673 20.2916 90.4766 20.7571C89.9859 21.2225 89.327 21.4668 88.6514 21.4338H87.0133C86.4159 30.3563 82.5256 36.0032 76.0148 37.5127C76.2249 39.6561 76.4438 42.5345 76.5297 45.7431L80.6222 49.69L95.139 50.0421L107.68 45.2327V45.2338C109.039 44.7376 110.552 44.929 111.744 45.7488C112.936 46.5685 113.657 47.9131 113.68 49.3588V58.3638C113.679 59.5434 113.206 60.6745 112.367 61.5051C111.527 62.3348 110.391 62.7947 109.21 62.7826L117.512 93.7394C122.412 93.6348 133.836 95.03 137.914 109.715C138.091 110.37 137.992 111.068 137.64 111.648C137.289 112.228 136.716 112.638 136.054 112.785L134.475 113.121C134.519 113.606 134.567 114.09 134.567 114.573C134.3 133.161 108.676 137.368 102.496 119.944C100.745 120.427 98.8505 120.699 98.1045 118.593L97.4279 116.425H91.4308L91.4297 116.426C91.4055 116.432 91.3791 116.432 91.3549 116.426H57.3914C52.8181 135.826 25.0868 135.834 20.5016 116.426H18.8338C18.1781 116.403 17.5565 116.129 17.0966 115.661C16.6895 115.18 16.4365 114.587 16.3694 113.961V96.1632C16.3705 95.8375 16.4343 95.5151 16.5597 95.2136L19.8482 87.3398C19.055 86.5465 18.0835 85.6904 18.0835 84.4802V77.9145H2.46437C1.81088 77.9145 1.18376 77.6548 0.721695 77.1927C0.259644 76.7305 0 76.1034 0 75.4498V47.4248C0.00219727 45.4332 0.794327 43.524 2.20145 42.1168C3.60966 40.7084 5.51836 39.9172 7.50874 39.9139L7.50716 39.9141ZM33.8001 55.7663H4.92589V59.4127H33.8367L33.8001 55.7663ZM31.1355 44.8435H7.50693C6.0833 44.8457 4.92923 46 4.927 47.4249V50.8369H33.7505L33.7153 47.4007V47.4018C33.6977 45.9879 32.5492 44.849 31.1355 44.8435ZM95.4151 102.197C100.445 87.6162 96.0015 69.2737 94.1049 62.7838C94.1049 62.7838 75.2445 62.7376 74.9916 62.6518C74.6847 63.7939 74.304 64.914 73.8507 66.0055C78.8291 67.6581 83.5235 74.7311 83.4706 80.2337C83.42 80.7102 83.354 83.2421 83.4662 94.551H83.4673C85.1802 94.7513 86.7766 95.5182 88.0023 96.7307C89.47 98.2129 90.4172 100.131 90.6988 102.197L95.4151 102.197ZM93.678 54.9052L89.4192 54.8117V57.853L94.3382 57.8541L93.678 54.9052ZM84.4904 100.188C83.7038 99.2695 82.1504 99.3619 81.0271 99.3817H71.9902V102.196H85.6556C85.4433 101.439 85.0416 100.748 84.4904 100.188ZM71.9902 85.5783C71.9858 86.2374 71.9935 93.5797 71.9902 94.4524H78.5362C78.4317 84.5561 78.4174 81.0517 78.5846 79.6168C78.3371 78.0389 76.2247 70.9562 70.4003 70.1453H50.9305V75.451C50.9316 76.4985 51.782 77.3479 52.8294 77.3501H63.7629C65.9445 77.3523 68.0348 78.2194 69.5774 79.762C71.1199 81.3047 71.988 83.3964 71.9902 85.5783ZM55.932 42.8022V42.8011C52.1453 49.6364 50.4081 57.4189 50.9306 65.2145H68.8029C69.672 63.4187 70.298 61.514 70.6655 59.5532L63.2647 53.9867C61.2338 52.4341 60.1215 49.964 60.304 47.4145C60.4867 44.8639 61.94 42.5786 64.171 41.3319C66.4022 40.0841 69.1119 40.0456 71.3783 41.2262C71.0879 38.8528 71.8481 37.57 69.0921 37.6458C66.8027 37.2629 64.6055 36.453 62.6143 35.2581C59.8661 37.2585 57.5864 39.832 55.9317 42.8018L55.932 42.8022ZM72.2795 4.92739C67.9734 4.9582 63.9191 6.96078 61.2779 10.363C58.6375 13.7651 57.7024 18.1906 58.7398 22.3708C59.7784 26.5498 62.6752 30.0235 66.6005 31.7938V18.9675C66.6005 18.3139 66.8601 17.6867 67.3222 17.2246C67.7843 16.7625 68.4114 16.5028 69.0649 16.5028H86.0604C85.4839 13.2635 83.7886 10.33 81.2702 8.21517C78.7508 6.09926 75.5691 4.93499 72.2795 4.92739ZM82.059 21.4322H71.5292V32.9679C77.8563 33.3827 81.498 29.406 82.059 21.4322ZM79.5484 54.5945C78.929 54.5802 78.3371 54.3337 77.8915 53.9035C76.0895 52.1694 71.4236 47.6626 69.6853 45.9877L69.6842 45.9888C69.1517 45.4904 68.4388 45.2318 67.7105 45.2725C66.9833 45.3132 66.3034 45.651 65.8303 46.2056C65.3572 46.7612 65.1317 47.4852 65.2065 48.2103C65.2813 48.9365 65.6488 49.5989 66.2253 50.0468L76.6053 57.8524H84.4902V54.7021L79.5484 54.5945ZM108.749 50.1008L98.531 54.019L99.3891 57.8513H108.749L108.749 50.1008ZM99.2362 62.7821C102.27 72.5474 106.207 97.3247 96.4012 111.496H98.3507L112.925 95.6689L104.105 62.7827L99.2362 62.7821ZM116.861 98.6711L102.062 114.741L102.138 114.982L103.812 114.625C103.878 114.61 131.026 108.817 131.09 108.803L132.325 108.54V108.539C131.232 105.394 129.111 102.711 126.306 100.919C123.5 99.1288 120.173 98.3366 116.861 98.6711ZM118.077 126.159C121.216 126.155 124.217 124.874 126.393 122.611C128.568 120.347 129.729 117.296 129.609 114.159L107.358 118.907C108.215 121.049 109.693 122.886 111.604 124.178C113.515 125.471 115.769 126.161 118.076 126.159L118.077 126.159ZM55.9487 111.496C54.7825 106.686 51.5348 98.7722 42.6554 96.8906C37.9223 95.9608 33.0147 96.9896 29.0539 99.7415C25.0923 102.494 22.4167 106.735 21.6354 111.495L55.9487 111.496ZM38.9554 126.159H38.9565C41.9225 126.161 44.8139 125.22 47.209 123.47C49.6051 121.719 51.3818 119.252 52.282 116.426H25.6038C26.5081 119.255 28.2893 121.724 30.69 123.473C33.0905 125.224 35.9849 126.164 38.9554 126.159ZM23.0062 83.5071L23.8071 84.3631H43.7884C45.1361 84.3818 46.2175 85.4799 46.2175 86.8278C46.2175 88.1757 45.1361 89.2738 43.7884 89.2926H24.3693L21.2932 96.6579V100.38L21.2943 100.379C23.8929 97.0608 27.3606 94.5268 31.3123 93.0601C35.2641 91.5933 39.5448 91.25 43.6805 92.0687C55.9903 94.6775 59.83 105.818 60.9971 111.497H90.2571H90.256C91.4068 110.147 92.4146 108.682 93.264 107.125H69.5233C68.1624 107.125 67.059 106.022 67.059 104.661V89.2924H51.3902C50.0436 89.2737 48.9611 88.1756 48.9611 86.8277C48.9611 85.4798 50.0436 84.3817 51.3902 84.363H66.8136C66.3186 83.1087 65.1095 82.2823 63.7606 82.279H52.8272C51.4531 82.2757 50.1109 81.8565 48.9777 81.0786C47.8456 80.2996 46.9731 79.197 46.4781 77.9153H23.007L23.0062 83.5071ZM33.9706 72.9849L33.8826 64.3429H4.9239V72.986L33.9706 72.9849Z" fill="url(#paint0_linear_1702_900)"/>
<defs>
<linearGradient id="paint0_linear_1702_900" x1="69" y1="0" x2="69" y2="131" gradientUnits="userSpaceOnUse">
<stop stop-color="#E34338"/>
<stop offset="1" stop-color="#D02C1C"/>
</linearGradient>
</defs>
</svg>
