<svg width="43" height="26" viewBox="0 0 43 26" fill="none" xmlns="http://www.w3.org/2000/svg">
<g id="Group 462">
<path id="Vector" d="M0.0166232 8.71258C0.0127444 8.61159 0 8.51315 0 8.41062C0 8.37644 0.004987 8.34329 0.00554108 8.30962C0.004987 8.24229 0 8.17599 0 8.10865L0.0160691 8.11885C0.184518 3.60984 4.19842 -1.90735e-06 9.13727 -1.90735e-06C14.1829 -1.90735e-06 18.2739 3.76536 18.2739 8.41056C18.2739 12.6488 14.8645 16.1447 10.4344 16.7263C11.5354 20.0861 14.9187 22.5309 18.93 22.5309V25.5332C8.68844 25.5327 0.362741 18.0627 0.0166232 8.71258Z" fill="#E1E7EE"/>
<path id="Vector_2" d="M23.7173 8.71258C23.7134 8.61159 23.7007 8.51315 23.7007 8.41062C23.7007 8.37644 23.7062 8.34329 23.7062 8.30962C23.7057 8.2423 23.7007 8.17599 23.7007 8.10865L23.7173 8.11885C23.8858 3.60985 27.8997 1.90735e-06 32.8374 1.90735e-06C37.8842 1.90735e-06 41.974 3.76537 41.974 8.41057C41.974 12.6488 38.5646 16.1447 34.1345 16.7263C35.2355 20.0861 38.6188 22.5309 42.6295 22.5309V25.5332C32.388 25.5327 24.064 18.0622 23.7179 8.71207L23.7173 8.71258Z" fill="#E1E7EE"/>
</g>
</svg>
