<svg width="99" height="114" viewBox="0 0 99 114" fill="none" xmlns="http://www.w3.org/2000/svg">
<path d="M79.9619 24.3627C77.7008 22.5782 74.3693 23.0537 72.5847 25.3147C70.8 27.5757 71.2757 30.9072 73.5367 32.6919C83.1747 40.1885 88.6487 51.3738 88.6487 63.5104C88.6479 85.0477 71.0375 102.539 49.5009 102.539C27.9642 102.539 10.353 85.0477 10.353 63.5104C10.353 43.0441 26.2975 26.1474 46.4071 24.6005L41.5283 29.4794C39.5056 31.5021 39.5056 34.8337 41.5283 36.8566C42.599 37.9273 43.9079 38.4037 45.2168 38.4037C46.5257 38.4037 47.8346 37.9281 48.9053 36.8566L62.8271 22.9347C64.8499 20.9119 64.8499 17.5803 62.8271 15.5575L48.9053 1.51705C46.8825 -0.505683 43.5509 -0.505683 41.5281 1.51705C39.5052 3.53978 39.5053 6.8714 41.5281 8.89424L46.6442 14.0104C20.7043 15.5575 0 37.0945 0 63.5104C0 90.8782 22.2512 113.01 49.5 113.01C76.7488 113.01 99 90.7592 99 63.5104C99 48.0414 92.0986 33.8818 79.9611 24.3626L79.9619 24.3627Z" fill="url(#paint0_linear_246_2199)"/>
<path d="M36.2924 63.5103C36.2924 67.4538 33.096 70.6502 29.1526 70.6502C25.2099 70.6502 22.0135 67.4538 22.0135 63.5103C22.0135 59.5677 25.2099 56.3713 29.1526 56.3713C33.096 56.3713 36.2924 59.5677 36.2924 63.5103Z" fill="url(#paint1_linear_246_2199)"/>
<path d="M56.6397 63.5103C56.6397 67.4538 53.4433 70.6502 49.4998 70.6502C45.5564 70.6502 42.36 67.4538 42.36 63.5103C42.36 59.5677 45.5564 56.3713 49.4998 56.3713C53.4433 56.3713 56.6397 59.5677 56.6397 63.5103Z" fill="url(#paint2_linear_246_2199)"/>
<path d="M76.9871 63.5103C76.9871 67.4538 73.7907 70.6502 69.8481 70.6502C65.9046 70.6502 62.7083 67.4538 62.7083 63.5103C62.7083 59.5677 65.9046 56.3713 69.8481 56.3713C73.7907 56.3713 76.9871 59.5677 76.9871 63.5103Z" fill="url(#paint3_linear_246_2199)"/>
<defs>
<linearGradient id="paint0_linear_246_2199" x1="49.5" y1="0" x2="49.5" y2="113.01" gradientUnits="userSpaceOnUse">
<stop stop-color="#E34338"/>
<stop offset="0.520833" stop-color="#CC3F31"/>
<stop offset="1" stop-color="#D02C1C"/>
</linearGradient>
<linearGradient id="paint1_linear_246_2199" x1="29.153" y1="56.3713" x2="29.153" y2="70.6502" gradientUnits="userSpaceOnUse">
<stop stop-color="#E34338"/>
<stop offset="0.520833" stop-color="#CC3F31"/>
<stop offset="1" stop-color="#D02C1C"/>
</linearGradient>
<linearGradient id="paint2_linear_246_2199" x1="49.4998" y1="56.3713" x2="49.4998" y2="70.6502" gradientUnits="userSpaceOnUse">
<stop stop-color="#E34338"/>
<stop offset="0.520833" stop-color="#CC3F31"/>
<stop offset="1" stop-color="#D02C1C"/>
</linearGradient>
<linearGradient id="paint3_linear_246_2199" x1="69.8477" y1="56.3713" x2="69.8477" y2="70.6502" gradientUnits="userSpaceOnUse">
<stop stop-color="#E34338"/>
<stop offset="0.520833" stop-color="#CC3F31"/>
<stop offset="1" stop-color="#D02C1C"/>
</linearGradient>
</defs>
</svg>
