<svg width="68" height="89" viewBox="0 0 68 89" fill="none" xmlns="http://www.w3.org/2000/svg">
<path d="M1.81217 0.59444C0.781205 0.69174 -0.0049763 1.56253 2.37162e-05 2.60129V86.8966C2.37162e-05 88.0054 0.894972 88.9035 1.99985 88.9035H66.0001C67.105 88.9035 67.9999 88.0054 67.9999 86.8966V20.6646C68.0041 20.1228 67.79 19.6027 67.4063 19.2219L49.4063 1.15859C49.0296 0.792491 48.5246 0.590193 48 0.594404H1.99982C1.93704 0.590904 1.87496 0.59094 1.81217 0.59444ZM3.99968 4.60815H45.9999V20.6648C45.9999 21.7729 46.8955 22.6716 47.9997 22.6716H64.0001V84.8896H3.99986L3.99968 4.60815ZM49.9999 7.43053L61.1871 18.657H49.9999V7.43053ZM8.8122 17.654C8.28206 17.6785 7.78263 17.9144 7.42548 18.3078C7.06764 18.7019 6.88069 19.2227 6.9058 19.7547C6.93022 20.2874 7.16528 20.7879 7.558 21.147C7.95072 21.5054 8.469 21.693 8.99983 21.6678H30.9999C31.5356 21.6755 32.0511 21.4676 32.4327 21.0903C32.8142 20.713 33.0284 20.1985 33.0284 19.6609C33.0284 19.1233 32.8142 18.6088 32.4327 18.2315C32.0511 17.8542 31.5356 17.6463 30.9999 17.654H8.99983C8.93705 17.6512 8.87498 17.6512 8.8122 17.654ZM8.8122 25.6823C8.28206 25.7068 7.78263 25.942 7.42548 26.3361C7.06764 26.7302 6.88069 27.251 6.9058 27.783C6.93022 28.3157 7.16528 28.8162 7.558 29.1746C7.95072 29.5337 8.469 29.7213 8.99983 29.6961H25.0002C25.5353 29.7038 26.0514 29.4959 26.4323 29.1186C26.8139 28.7413 27.0287 28.2261 27.0287 27.6892C27.0287 27.1516 26.8139 26.6371 26.4323 26.2598C26.0514 25.8825 25.5353 25.6746 25.0002 25.6823H8.99983C8.93705 25.6788 8.87498 25.6788 8.8122 25.6823ZM10.0001 34.7136C8.8952 34.7136 8.00029 35.6124 7.99957 36.7205V60.8049C8.00027 61.9129 8.89522 62.8117 10.0001 62.8117H58.0003C59.1052 62.8117 60.0001 61.9129 60.0009 60.8049V36.7205C60.0002 35.6124 59.1052 34.7136 58.0003 34.7136H10.0001ZM11.9999 38.7273H41.0001V42.7417H11.9999V38.7273ZM45.0001 38.7273H55.9998V42.7417H45.0001V38.7273ZM11.9999 46.7556H41.0001V50.7701H11.9999V46.7556ZM45.0001 46.7556H55.9998V50.7701H45.0001V46.7556ZM11.9999 54.7839H41.0001V58.7976H11.9999V54.7839ZM45.0001 54.7839H55.9998V58.7976H45.0001V54.7839ZM34.8124 67.8298C34.2815 67.8543 33.7828 68.0902 33.4249 68.4836C33.0678 68.8777 32.8809 69.3985 32.9053 69.9305C32.9304 70.4632 33.1647 70.9637 33.5575 71.3228C33.9502 71.6812 34.4692 71.8688 35 71.8436H57.0001C57.5351 71.8513 58.0513 71.6434 58.4328 71.2661C58.8137 70.8888 59.0285 70.3743 59.0285 69.8367C59.0285 69.2991 58.8137 68.7846 58.4328 68.4073C58.0513 68.03 57.5351 67.8221 57.0001 67.8298H35C34.9372 67.827 34.8744 67.827 34.8124 67.8298ZM40.812 75.8581C40.2819 75.8826 39.7831 76.1178 39.4253 76.5119C39.0675 76.906 38.8805 77.4268 38.9056 77.9588C38.9307 78.4915 39.1651 78.992 39.5578 79.3504C39.9505 79.7095 40.4695 79.8971 40.9997 79.8719H57.0001C57.5351 79.8796 58.0513 79.6717 58.4328 79.2944C58.8137 78.9171 59.0285 78.4019 59.0285 77.865C59.0285 77.3274 58.8137 76.8129 58.4328 76.4356C58.0513 76.0583 57.5351 75.8504 57.0001 75.8581H40.9997C40.9376 75.8546 40.8748 75.8546 40.812 75.8581Z" fill="url(#paint0_linear_699_2847)"/>
<defs>
<linearGradient id="paint0_linear_699_2847" x1="34" y1="0.591797" x2="34" y2="88.9035" gradientUnits="userSpaceOnUse">
<stop stop-color="#E34338"/>
<stop offset="1" stop-color="#D02C1C"/>
</linearGradient>
</defs>
</svg>
