<svg width="67" height="68" viewBox="0 0 67 68" fill="none" xmlns="http://www.w3.org/2000/svg">
<g id="Vector">
<mask id="path-1-outside-1_1601_3384" maskUnits="userSpaceOnUse" x="0" y="0" width="67" height="68" fill="black">
<rect fill="white" width="67" height="68"/>
<path d="M34.6326 67C33.1034 67 32.4737 65.0709 32.267 64.437C31.7934 63.0088 30.134 62.2159 28.9219 61.6374C28.4488 61.4115 28.0747 61.2327 27.8045 61.0342C27.1764 60.5711 26.3453 59.8471 26.3609 58.9023C26.3776 57.8836 27.3174 57.2377 28.3126 56.5538C29.3906 55.8128 30.6124 54.9735 30.832 53.6529C31.0204 52.5183 30.4671 51.061 29.1877 49.3221C28.7775 48.7649 28.7059 48.7501 28.587 48.7261C28.2387 48.6561 27.8394 48.544 27.1267 48.0185C25.153 46.5733 25.3693 44.6211 25.5986 42.5548C25.6648 41.9588 25.7326 41.3463 25.7563 40.7083C25.2202 40.4868 24.7503 40.3665 24.3262 40.2582C22.3568 39.7552 21.6113 39.1887 21.55 35.1199C20.7443 34.9454 20.0602 34.8322 19.4439 34.73C16.6354 34.2652 15.5966 33.9283 14.7122 30.5167C14.2504 30.6502 13.8484 30.8782 13.4027 31.1308C12.5814 31.5961 11.6507 32.1238 10.1878 32.1238C7.59723 32.1238 7.17794 32.0161 6.46695 30.3768C6.43196 30.2959 6.39483 30.2111 6.355 30.1209C4.66281 30.0821 3.65681 29.7896 2.54968 28.5444C1.31765 27.1588 0.505436 23.9392 1.34187 21.1554C1.82198 19.5576 3.03406 17.4912 6.08264 16.7207C7.21564 16.4353 7.46646 16.1203 7.52185 15.9984C7.65802 15.6976 7.33024 15.0349 7.01268 14.3934C6.58477 13.5278 6.09982 12.5473 6.09982 11.421C6.09982 10.7878 6.36572 10.3646 6.57994 10.025C6.68059 9.86535 6.76779 9.727 6.81892 9.58209C6.85067 9.4957 6.88028 9.35516 6.91149 9.20698C7.1214 8.21014 7.55899 6.1356 11.31 6.1356C11.7524 6.1356 12.3504 6.39588 13.4559 6.89512C14.1815 7.22265 15.1277 7.64972 15.7213 7.79299C15.6804 7.70058 15.626 7.58849 15.5518 7.45232C14.5517 5.63086 14.8235 4.41482 15.2277 3.71546C15.7719 2.77385 16.7273 2.42334 17.2014 2.42334C20.7512 2.42334 21.8077 1.8377 22.5074 1.45002C22.9073 1.22857 23.3201 1 23.9457 1C24.7315 1 25.351 1.23184 25.7864 1.69008C26.5781 2.52287 26.5329 3.85059 26.4936 5.02183C26.4689 5.74963 26.4382 6.65516 26.6842 6.91385C26.7482 6.98111 26.8731 7.01501 27.055 7.01501C27.4382 7.01501 28.2084 6.85589 29.7037 6.0991C30.4535 5.71961 31.2609 5.53589 32.1726 5.53589C32.5688 5.53589 32.9262 5.56979 33.213 5.59713C33.3718 5.61244 33.5134 5.62556 33.6253 5.63048C34.1593 4.81738 35.732 2.69461 37.5953 2.69461C38.9867 2.69461 40.1029 3.81557 40.9113 6.02524C42.8313 11.2648 44.4487 11.2818 45.0633 11.2818C45.4288 11.2872 45.798 11.2074 46.1576 11.1352C46.5198 11.0619 46.895 10.9865 47.269 10.9865C48.7616 10.9865 49.4113 12.2534 49.7746 13.5423C50.1245 13.5357 50.4926 13.5303 50.8602 13.5303C53.8582 13.5303 57.2002 13.8791 59.2552 16.4683C59.9689 17.3645 60.1696 18.0009 60.302 18.422C60.4038 18.7457 60.4194 18.7659 60.513 18.8283C60.8214 19.0333 61.638 19.2264 62.2252 19.3538C64.1489 19.771 65.3545 20.6973 65.8083 22.1075C66.8729 25.4158 63.1762 29.7574 62.751 30.2413C62.7349 30.2599 62.7176 30.2774 62.6999 30.2938L58.0828 34.5759C58.0861 35.6826 58.1044 36.5067 58.1189 37.1803C58.1759 39.7481 58.156 39.8477 57.064 42.4854C56.8099 43.0984 56.4945 43.8617 56.1037 44.8416C55.1058 47.346 54.1451 48.8196 52.9894 49.6208C51.8801 50.3896 50.7757 50.4153 49.6066 50.4415C48.5274 50.4661 47.4116 50.4918 46.0402 51.084C43.504 52.1771 43.7333 53.3243 43.9357 54.3364C43.9879 54.5978 44.0374 54.8449 44.0374 55.0855C44.0374 57.5315 42.1827 59.5946 40.2186 61.7784C39.4274 62.6588 38.6087 63.5687 37.8794 64.536C36.5876 66.2404 35.587 67 34.6322 67L34.6326 67ZM15.2443 28.9622C15.5721 28.9622 15.8616 29.1919 15.937 29.5216C16.3304 31.2387 16.6916 32.1151 17.1835 32.546C17.6674 32.9697 18.4226 33.095 19.6728 33.3017C20.4081 33.423 21.3226 33.5751 22.4195 33.8343C22.7419 33.9103 22.9702 34.2023 22.9702 34.5385C22.9702 36.5388 23.1036 37.669 23.4029 38.2049C23.6042 38.5652 23.8868 38.6538 24.6742 38.855C25.2399 38.9994 25.9445 39.1793 26.7857 39.5894C27.0328 39.7097 27.1899 39.9634 27.1899 40.2417C27.1899 41.1314 27.0963 41.9735 27.0139 42.7166C26.7825 44.8049 26.7195 45.9368 27.9612 46.8462C28.4822 47.23 28.6851 47.2705 28.8638 47.3071C29.4005 47.4154 29.7024 47.6051 30.3284 48.456C31.8715 50.5529 32.4954 52.3318 32.2365 53.8935C31.9157 55.8249 30.3608 56.8933 29.1109 57.7523C28.585 58.1137 27.7895 58.6605 27.7852 58.9268C27.7847 58.9575 27.8046 59.2462 28.6399 59.863C28.8014 59.9811 29.1545 60.1501 29.528 60.3283C30.8903 60.979 32.9496 61.9622 33.6182 63.9788C33.9406 64.9664 34.3195 65.5536 34.6333 65.5536C34.8373 65.5536 35.4525 65.3688 36.7501 63.6552C37.5161 62.6392 38.3557 61.7057 39.1674 60.803C41.0168 58.7465 42.6138 56.9698 42.6138 55.0855C42.6138 54.9904 42.5766 54.8039 42.5406 54.624C42.3253 53.5473 41.8774 51.3071 45.4836 49.7519C47.1058 49.0514 48.4746 49.0202 49.5747 48.9951C51.6749 48.947 52.9424 48.918 54.7838 44.2979C55.1778 43.3087 55.4964 42.541 55.7515 41.9237C56.7468 39.5199 56.7468 39.5199 56.6956 37.2124C56.6789 36.4682 56.6585 35.5424 56.6585 34.2563C56.6585 34.0529 56.743 33.8594 56.8905 33.7221L61.712 29.2503C63.4403 27.2719 65.0297 24.3432 64.4543 22.5569C64.1695 21.6721 63.3191 21.0701 61.9272 20.7683C59.6881 20.2822 59.2796 19.9257 58.9448 18.8627C58.8328 18.5067 58.6934 18.0638 58.1466 17.3776C56.4721 15.2675 53.6544 14.9772 50.8593 14.9772C50.3022 14.9772 49.7382 14.9897 49.2403 15.0007H49.2247C48.8947 15.0007 48.6062 14.7694 48.5314 14.4413C48.0712 12.4334 47.5486 12.4334 47.2682 12.4334C47.034 12.4334 46.7423 12.4924 46.4339 12.5542C46.0286 12.6357 45.5695 12.7281 45.0684 12.7286C42.8412 12.7286 41.1473 10.817 39.5763 6.53002C39.1774 5.44022 38.51 4.14162 37.5944 4.14162C36.4313 4.14162 35.0561 6.00676 34.6659 6.66021C34.6067 6.75918 34.5248 6.84284 34.4274 6.90354C34.1734 7.06102 33.8886 7.07906 33.6959 7.07906C33.5092 7.07906 33.3095 7.05993 33.0786 7.03805C32.8079 7.01235 32.5005 6.98283 32.1711 6.98283C31.4752 6.98283 30.8923 7.11351 30.3369 7.39457C28.8986 8.12292 27.8556 8.46195 27.0536 8.4625H27.0531C26.4702 8.4625 26.0008 8.27986 25.6585 7.92006C24.9927 7.22014 25.0315 6.07787 25.0692 4.97326C25.0993 4.08962 25.1332 3.08726 24.7613 2.69629C24.7026 2.63504 24.525 2.44749 23.9448 2.44749C23.6956 2.44749 23.5556 2.51803 23.1886 2.72144C22.3629 3.17912 21.1158 3.87029 17.2114 3.87138C17.1226 3.8845 16.6619 4.0398 16.425 4.50404C16.1532 5.03718 16.2808 5.81475 16.7953 6.75147C17.128 7.36063 17.4633 8.13654 17.1086 8.74792C16.9913 8.95079 16.6979 9.29091 16.0553 9.29091C15.2511 9.29091 14.0444 8.74628 12.877 8.21916C12.3027 7.95997 11.5164 7.6051 11.2952 7.58376C8.70891 7.58431 8.49313 8.60794 8.30257 9.51176C8.26005 9.71408 8.21968 9.90546 8.15348 10.0843C8.05121 10.3719 7.90642 10.6026 7.77832 10.806C7.60555 11.0805 7.52265 11.2216 7.52265 11.4228C7.52265 12.2064 7.90965 12.989 8.28425 13.7463C8.75252 14.6934 9.23694 15.6722 8.81443 16.605C8.49364 17.3132 7.73472 17.7971 6.42461 18.1268C4.49667 18.614 3.24416 19.7754 2.70265 21.5794C1.98248 23.9771 2.77908 26.6478 3.60474 27.5768C4.40296 28.4747 5.00261 28.6808 6.81054 28.6808C7.08397 28.6808 7.33372 28.84 7.45212 29.0909C7.58022 29.3616 7.68032 29.5918 7.76807 29.7952C8.00651 30.3442 8.08024 30.4897 8.20351 30.5455C8.47909 30.6696 9.231 30.6794 10.1864 30.6794C11.2791 30.6794 11.941 30.3043 12.7076 29.8696C13.4116 29.4704 14.1399 29.0581 15.1818 28.9668C15.2034 28.9635 15.2238 28.9624 15.2443 28.9624L15.2443 28.9622Z"/>
</mask>
<path d="M34.6326 67C33.1034 67 32.4737 65.0709 32.267 64.437C31.7934 63.0088 30.134 62.2159 28.9219 61.6374C28.4488 61.4115 28.0747 61.2327 27.8045 61.0342C27.1764 60.5711 26.3453 59.8471 26.3609 58.9023C26.3776 57.8836 27.3174 57.2377 28.3126 56.5538C29.3906 55.8128 30.6124 54.9735 30.832 53.6529C31.0204 52.5183 30.4671 51.061 29.1877 49.3221C28.7775 48.7649 28.7059 48.7501 28.587 48.7261C28.2387 48.6561 27.8394 48.544 27.1267 48.0185C25.153 46.5733 25.3693 44.6211 25.5986 42.5548C25.6648 41.9588 25.7326 41.3463 25.7563 40.7083C25.2202 40.4868 24.7503 40.3665 24.3262 40.2582C22.3568 39.7552 21.6113 39.1887 21.55 35.1199C20.7443 34.9454 20.0602 34.8322 19.4439 34.73C16.6354 34.2652 15.5966 33.9283 14.7122 30.5167C14.2504 30.6502 13.8484 30.8782 13.4027 31.1308C12.5814 31.5961 11.6507 32.1238 10.1878 32.1238C7.59723 32.1238 7.17794 32.0161 6.46695 30.3768C6.43196 30.2959 6.39483 30.2111 6.355 30.1209C4.66281 30.0821 3.65681 29.7896 2.54968 28.5444C1.31765 27.1588 0.505436 23.9392 1.34187 21.1554C1.82198 19.5576 3.03406 17.4912 6.08264 16.7207C7.21564 16.4353 7.46646 16.1203 7.52185 15.9984C7.65802 15.6976 7.33024 15.0349 7.01268 14.3934C6.58477 13.5278 6.09982 12.5473 6.09982 11.421C6.09982 10.7878 6.36572 10.3646 6.57994 10.025C6.68059 9.86535 6.76779 9.727 6.81892 9.58209C6.85067 9.4957 6.88028 9.35516 6.91149 9.20698C7.1214 8.21014 7.55899 6.1356 11.31 6.1356C11.7524 6.1356 12.3504 6.39588 13.4559 6.89512C14.1815 7.22265 15.1277 7.64972 15.7213 7.79299C15.6804 7.70058 15.626 7.58849 15.5518 7.45232C14.5517 5.63086 14.8235 4.41482 15.2277 3.71546C15.7719 2.77385 16.7273 2.42334 17.2014 2.42334C20.7512 2.42334 21.8077 1.8377 22.5074 1.45002C22.9073 1.22857 23.3201 1 23.9457 1C24.7315 1 25.351 1.23184 25.7864 1.69008C26.5781 2.52287 26.5329 3.85059 26.4936 5.02183C26.4689 5.74963 26.4382 6.65516 26.6842 6.91385C26.7482 6.98111 26.8731 7.01501 27.055 7.01501C27.4382 7.01501 28.2084 6.85589 29.7037 6.0991C30.4535 5.71961 31.2609 5.53589 32.1726 5.53589C32.5688 5.53589 32.9262 5.56979 33.213 5.59713C33.3718 5.61244 33.5134 5.62556 33.6253 5.63048C34.1593 4.81738 35.732 2.69461 37.5953 2.69461C38.9867 2.69461 40.1029 3.81557 40.9113 6.02524C42.8313 11.2648 44.4487 11.2818 45.0633 11.2818C45.4288 11.2872 45.798 11.2074 46.1576 11.1352C46.5198 11.0619 46.895 10.9865 47.269 10.9865C48.7616 10.9865 49.4113 12.2534 49.7746 13.5423C50.1245 13.5357 50.4926 13.5303 50.8602 13.5303C53.8582 13.5303 57.2002 13.8791 59.2552 16.4683C59.9689 17.3645 60.1696 18.0009 60.302 18.422C60.4038 18.7457 60.4194 18.7659 60.513 18.8283C60.8214 19.0333 61.638 19.2264 62.2252 19.3538C64.1489 19.771 65.3545 20.6973 65.8083 22.1075C66.8729 25.4158 63.1762 29.7574 62.751 30.2413C62.7349 30.2599 62.7176 30.2774 62.6999 30.2938L58.0828 34.5759C58.0861 35.6826 58.1044 36.5067 58.1189 37.1803C58.1759 39.7481 58.156 39.8477 57.064 42.4854C56.8099 43.0984 56.4945 43.8617 56.1037 44.8416C55.1058 47.346 54.1451 48.8196 52.9894 49.6208C51.8801 50.3896 50.7757 50.4153 49.6066 50.4415C48.5274 50.4661 47.4116 50.4918 46.0402 51.084C43.504 52.1771 43.7333 53.3243 43.9357 54.3364C43.9879 54.5978 44.0374 54.8449 44.0374 55.0855C44.0374 57.5315 42.1827 59.5946 40.2186 61.7784C39.4274 62.6588 38.6087 63.5687 37.8794 64.536C36.5876 66.2404 35.587 67 34.6322 67L34.6326 67ZM15.2443 28.9622C15.5721 28.9622 15.8616 29.1919 15.937 29.5216C16.3304 31.2387 16.6916 32.1151 17.1835 32.546C17.6674 32.9697 18.4226 33.095 19.6728 33.3017C20.4081 33.423 21.3226 33.5751 22.4195 33.8343C22.7419 33.9103 22.9702 34.2023 22.9702 34.5385C22.9702 36.5388 23.1036 37.669 23.4029 38.2049C23.6042 38.5652 23.8868 38.6538 24.6742 38.855C25.2399 38.9994 25.9445 39.1793 26.7857 39.5894C27.0328 39.7097 27.1899 39.9634 27.1899 40.2417C27.1899 41.1314 27.0963 41.9735 27.0139 42.7166C26.7825 44.8049 26.7195 45.9368 27.9612 46.8462C28.4822 47.23 28.6851 47.2705 28.8638 47.3071C29.4005 47.4154 29.7024 47.6051 30.3284 48.456C31.8715 50.5529 32.4954 52.3318 32.2365 53.8935C31.9157 55.8249 30.3608 56.8933 29.1109 57.7523C28.585 58.1137 27.7895 58.6605 27.7852 58.9268C27.7847 58.9575 27.8046 59.2462 28.6399 59.863C28.8014 59.9811 29.1545 60.1501 29.528 60.3283C30.8903 60.979 32.9496 61.9622 33.6182 63.9788C33.9406 64.9664 34.3195 65.5536 34.6333 65.5536C34.8373 65.5536 35.4525 65.3688 36.7501 63.6552C37.5161 62.6392 38.3557 61.7057 39.1674 60.803C41.0168 58.7465 42.6138 56.9698 42.6138 55.0855C42.6138 54.9904 42.5766 54.8039 42.5406 54.624C42.3253 53.5473 41.8774 51.3071 45.4836 49.7519C47.1058 49.0514 48.4746 49.0202 49.5747 48.9951C51.6749 48.947 52.9424 48.918 54.7838 44.2979C55.1778 43.3087 55.4964 42.541 55.7515 41.9237C56.7468 39.5199 56.7468 39.5199 56.6956 37.2124C56.6789 36.4682 56.6585 35.5424 56.6585 34.2563C56.6585 34.0529 56.743 33.8594 56.8905 33.7221L61.712 29.2503C63.4403 27.2719 65.0297 24.3432 64.4543 22.5569C64.1695 21.6721 63.3191 21.0701 61.9272 20.7683C59.6881 20.2822 59.2796 19.9257 58.9448 18.8627C58.8328 18.5067 58.6934 18.0638 58.1466 17.3776C56.4721 15.2675 53.6544 14.9772 50.8593 14.9772C50.3022 14.9772 49.7382 14.9897 49.2403 15.0007H49.2247C48.8947 15.0007 48.6062 14.7694 48.5314 14.4413C48.0712 12.4334 47.5486 12.4334 47.2682 12.4334C47.034 12.4334 46.7423 12.4924 46.4339 12.5542C46.0286 12.6357 45.5695 12.7281 45.0684 12.7286C42.8412 12.7286 41.1473 10.817 39.5763 6.53002C39.1774 5.44022 38.51 4.14162 37.5944 4.14162C36.4313 4.14162 35.0561 6.00676 34.6659 6.66021C34.6067 6.75918 34.5248 6.84284 34.4274 6.90354C34.1734 7.06102 33.8886 7.07906 33.6959 7.07906C33.5092 7.07906 33.3095 7.05993 33.0786 7.03805C32.8079 7.01235 32.5005 6.98283 32.1711 6.98283C31.4752 6.98283 30.8923 7.11351 30.3369 7.39457C28.8986 8.12292 27.8556 8.46195 27.0536 8.4625H27.0531C26.4702 8.4625 26.0008 8.27986 25.6585 7.92006C24.9927 7.22014 25.0315 6.07787 25.0692 4.97326C25.0993 4.08962 25.1332 3.08726 24.7613 2.69629C24.7026 2.63504 24.525 2.44749 23.9448 2.44749C23.6956 2.44749 23.5556 2.51803 23.1886 2.72144C22.3629 3.17912 21.1158 3.87029 17.2114 3.87138C17.1226 3.8845 16.6619 4.0398 16.425 4.50404C16.1532 5.03718 16.2808 5.81475 16.7953 6.75147C17.128 7.36063 17.4633 8.13654 17.1086 8.74792C16.9913 8.95079 16.6979 9.29091 16.0553 9.29091C15.2511 9.29091 14.0444 8.74628 12.877 8.21916C12.3027 7.95997 11.5164 7.6051 11.2952 7.58376C8.70891 7.58431 8.49313 8.60794 8.30257 9.51176C8.26005 9.71408 8.21968 9.90546 8.15348 10.0843C8.05121 10.3719 7.90642 10.6026 7.77832 10.806C7.60555 11.0805 7.52265 11.2216 7.52265 11.4228C7.52265 12.2064 7.90965 12.989 8.28425 13.7463C8.75252 14.6934 9.23694 15.6722 8.81443 16.605C8.49364 17.3132 7.73472 17.7971 6.42461 18.1268C4.49667 18.614 3.24416 19.7754 2.70265 21.5794C1.98248 23.9771 2.77908 26.6478 3.60474 27.5768C4.40296 28.4747 5.00261 28.6808 6.81054 28.6808C7.08397 28.6808 7.33372 28.84 7.45212 29.0909C7.58022 29.3616 7.68032 29.5918 7.76807 29.7952C8.00651 30.3442 8.08024 30.4897 8.20351 30.5455C8.47909 30.6696 9.231 30.6794 10.1864 30.6794C11.2791 30.6794 11.941 30.3043 12.7076 29.8696C13.4116 29.4704 14.1399 29.0581 15.1818 28.9668C15.2034 28.9635 15.2238 28.9624 15.2443 28.9624L15.2443 28.9622Z" fill="#FBFBFB"/>
<path d="M34.6326 67C33.1034 67 32.4737 65.0709 32.267 64.437C31.7934 63.0088 30.134 62.2159 28.9219 61.6374C28.4488 61.4115 28.0747 61.2327 27.8045 61.0342C27.1764 60.5711 26.3453 59.8471 26.3609 58.9023C26.3776 57.8836 27.3174 57.2377 28.3126 56.5538C29.3906 55.8128 30.6124 54.9735 30.832 53.6529C31.0204 52.5183 30.4671 51.061 29.1877 49.3221C28.7775 48.7649 28.7059 48.7501 28.587 48.7261C28.2387 48.6561 27.8394 48.544 27.1267 48.0185C25.153 46.5733 25.3693 44.6211 25.5986 42.5548C25.6648 41.9588 25.7326 41.3463 25.7563 40.7083C25.2202 40.4868 24.7503 40.3665 24.3262 40.2582C22.3568 39.7552 21.6113 39.1887 21.55 35.1199C20.7443 34.9454 20.0602 34.8322 19.4439 34.73C16.6354 34.2652 15.5966 33.9283 14.7122 30.5167C14.2504 30.6502 13.8484 30.8782 13.4027 31.1308C12.5814 31.5961 11.6507 32.1238 10.1878 32.1238C7.59723 32.1238 7.17794 32.0161 6.46695 30.3768C6.43196 30.2959 6.39483 30.2111 6.355 30.1209C4.66281 30.0821 3.65681 29.7896 2.54968 28.5444C1.31765 27.1588 0.505436 23.9392 1.34187 21.1554C1.82198 19.5576 3.03406 17.4912 6.08264 16.7207C7.21564 16.4353 7.46646 16.1203 7.52185 15.9984C7.65802 15.6976 7.33024 15.0349 7.01268 14.3934C6.58477 13.5278 6.09982 12.5473 6.09982 11.421C6.09982 10.7878 6.36572 10.3646 6.57994 10.025C6.68059 9.86535 6.76779 9.727 6.81892 9.58209C6.85067 9.4957 6.88028 9.35516 6.91149 9.20698C7.1214 8.21014 7.55899 6.1356 11.31 6.1356C11.7524 6.1356 12.3504 6.39588 13.4559 6.89512C14.1815 7.22265 15.1277 7.64972 15.7213 7.79299C15.6804 7.70058 15.626 7.58849 15.5518 7.45232C14.5517 5.63086 14.8235 4.41482 15.2277 3.71546C15.7719 2.77385 16.7273 2.42334 17.2014 2.42334C20.7512 2.42334 21.8077 1.8377 22.5074 1.45002C22.9073 1.22857 23.3201 1 23.9457 1C24.7315 1 25.351 1.23184 25.7864 1.69008C26.5781 2.52287 26.5329 3.85059 26.4936 5.02183C26.4689 5.74963 26.4382 6.65516 26.6842 6.91385C26.7482 6.98111 26.8731 7.01501 27.055 7.01501C27.4382 7.01501 28.2084 6.85589 29.7037 6.0991C30.4535 5.71961 31.2609 5.53589 32.1726 5.53589C32.5688 5.53589 32.9262 5.56979 33.213 5.59713C33.3718 5.61244 33.5134 5.62556 33.6253 5.63048C34.1593 4.81738 35.732 2.69461 37.5953 2.69461C38.9867 2.69461 40.1029 3.81557 40.9113 6.02524C42.8313 11.2648 44.4487 11.2818 45.0633 11.2818C45.4288 11.2872 45.798 11.2074 46.1576 11.1352C46.5198 11.0619 46.895 10.9865 47.269 10.9865C48.7616 10.9865 49.4113 12.2534 49.7746 13.5423C50.1245 13.5357 50.4926 13.5303 50.8602 13.5303C53.8582 13.5303 57.2002 13.8791 59.2552 16.4683C59.9689 17.3645 60.1696 18.0009 60.302 18.422C60.4038 18.7457 60.4194 18.7659 60.513 18.8283C60.8214 19.0333 61.638 19.2264 62.2252 19.3538C64.1489 19.771 65.3545 20.6973 65.8083 22.1075C66.8729 25.4158 63.1762 29.7574 62.751 30.2413C62.7349 30.2599 62.7176 30.2774 62.6999 30.2938L58.0828 34.5759C58.0861 35.6826 58.1044 36.5067 58.1189 37.1803C58.1759 39.7481 58.156 39.8477 57.064 42.4854C56.8099 43.0984 56.4945 43.8617 56.1037 44.8416C55.1058 47.346 54.1451 48.8196 52.9894 49.6208C51.8801 50.3896 50.7757 50.4153 49.6066 50.4415C48.5274 50.4661 47.4116 50.4918 46.0402 51.084C43.504 52.1771 43.7333 53.3243 43.9357 54.3364C43.9879 54.5978 44.0374 54.8449 44.0374 55.0855C44.0374 57.5315 42.1827 59.5946 40.2186 61.7784C39.4274 62.6588 38.6087 63.5687 37.8794 64.536C36.5876 66.2404 35.587 67 34.6322 67L34.6326 67ZM15.2443 28.9622C15.5721 28.9622 15.8616 29.1919 15.937 29.5216C16.3304 31.2387 16.6916 32.1151 17.1835 32.546C17.6674 32.9697 18.4226 33.095 19.6728 33.3017C20.4081 33.423 21.3226 33.5751 22.4195 33.8343C22.7419 33.9103 22.9702 34.2023 22.9702 34.5385C22.9702 36.5388 23.1036 37.669 23.4029 38.2049C23.6042 38.5652 23.8868 38.6538 24.6742 38.855C25.2399 38.9994 25.9445 39.1793 26.7857 39.5894C27.0328 39.7097 27.1899 39.9634 27.1899 40.2417C27.1899 41.1314 27.0963 41.9735 27.0139 42.7166C26.7825 44.8049 26.7195 45.9368 27.9612 46.8462C28.4822 47.23 28.6851 47.2705 28.8638 47.3071C29.4005 47.4154 29.7024 47.6051 30.3284 48.456C31.8715 50.5529 32.4954 52.3318 32.2365 53.8935C31.9157 55.8249 30.3608 56.8933 29.1109 57.7523C28.585 58.1137 27.7895 58.6605 27.7852 58.9268C27.7847 58.9575 27.8046 59.2462 28.6399 59.863C28.8014 59.9811 29.1545 60.1501 29.528 60.3283C30.8903 60.979 32.9496 61.9622 33.6182 63.9788C33.9406 64.9664 34.3195 65.5536 34.6333 65.5536C34.8373 65.5536 35.4525 65.3688 36.7501 63.6552C37.5161 62.6392 38.3557 61.7057 39.1674 60.803C41.0168 58.7465 42.6138 56.9698 42.6138 55.0855C42.6138 54.9904 42.5766 54.8039 42.5406 54.624C42.3253 53.5473 41.8774 51.3071 45.4836 49.7519C47.1058 49.0514 48.4746 49.0202 49.5747 48.9951C51.6749 48.947 52.9424 48.918 54.7838 44.2979C55.1778 43.3087 55.4964 42.541 55.7515 41.9237C56.7468 39.5199 56.7468 39.5199 56.6956 37.2124C56.6789 36.4682 56.6585 35.5424 56.6585 34.2563C56.6585 34.0529 56.743 33.8594 56.8905 33.7221L61.712 29.2503C63.4403 27.2719 65.0297 24.3432 64.4543 22.5569C64.1695 21.6721 63.3191 21.0701 61.9272 20.7683C59.6881 20.2822 59.2796 19.9257 58.9448 18.8627C58.8328 18.5067 58.6934 18.0638 58.1466 17.3776C56.4721 15.2675 53.6544 14.9772 50.8593 14.9772C50.3022 14.9772 49.7382 14.9897 49.2403 15.0007H49.2247C48.8947 15.0007 48.6062 14.7694 48.5314 14.4413C48.0712 12.4334 47.5486 12.4334 47.2682 12.4334C47.034 12.4334 46.7423 12.4924 46.4339 12.5542C46.0286 12.6357 45.5695 12.7281 45.0684 12.7286C42.8412 12.7286 41.1473 10.817 39.5763 6.53002C39.1774 5.44022 38.51 4.14162 37.5944 4.14162C36.4313 4.14162 35.0561 6.00676 34.6659 6.66021C34.6067 6.75918 34.5248 6.84284 34.4274 6.90354C34.1734 7.06102 33.8886 7.07906 33.6959 7.07906C33.5092 7.07906 33.3095 7.05993 33.0786 7.03805C32.8079 7.01235 32.5005 6.98283 32.1711 6.98283C31.4752 6.98283 30.8923 7.11351 30.3369 7.39457C28.8986 8.12292 27.8556 8.46195 27.0536 8.4625H27.0531C26.4702 8.4625 26.0008 8.27986 25.6585 7.92006C24.9927 7.22014 25.0315 6.07787 25.0692 4.97326C25.0993 4.08962 25.1332 3.08726 24.7613 2.69629C24.7026 2.63504 24.525 2.44749 23.9448 2.44749C23.6956 2.44749 23.5556 2.51803 23.1886 2.72144C22.3629 3.17912 21.1158 3.87029 17.2114 3.87138C17.1226 3.8845 16.6619 4.0398 16.425 4.50404C16.1532 5.03718 16.2808 5.81475 16.7953 6.75147C17.128 7.36063 17.4633 8.13654 17.1086 8.74792C16.9913 8.95079 16.6979 9.29091 16.0553 9.29091C15.2511 9.29091 14.0444 8.74628 12.877 8.21916C12.3027 7.95997 11.5164 7.6051 11.2952 7.58376C8.70891 7.58431 8.49313 8.60794 8.30257 9.51176C8.26005 9.71408 8.21968 9.90546 8.15348 10.0843C8.05121 10.3719 7.90642 10.6026 7.77832 10.806C7.60555 11.0805 7.52265 11.2216 7.52265 11.4228C7.52265 12.2064 7.90965 12.989 8.28425 13.7463C8.75252 14.6934 9.23694 15.6722 8.81443 16.605C8.49364 17.3132 7.73472 17.7971 6.42461 18.1268C4.49667 18.614 3.24416 19.7754 2.70265 21.5794C1.98248 23.9771 2.77908 26.6478 3.60474 27.5768C4.40296 28.4747 5.00261 28.6808 6.81054 28.6808C7.08397 28.6808 7.33372 28.84 7.45212 29.0909C7.58022 29.3616 7.68032 29.5918 7.76807 29.7952C8.00651 30.3442 8.08024 30.4897 8.20351 30.5455C8.47909 30.6696 9.231 30.6794 10.1864 30.6794C11.2791 30.6794 11.941 30.3043 12.7076 29.8696C13.4116 29.4704 14.1399 29.0581 15.1818 28.9668C15.2034 28.9635 15.2238 28.9624 15.2443 28.9624L15.2443 28.9622Z" stroke="#FBFBFB" stroke-width="1.09122" mask="url(#path-1-outside-1_1601_3384)"/>
</g>
</svg>
