<svg width="44" height="59" viewBox="0 0 44 59" fill="none" xmlns="http://www.w3.org/2000/svg">
<path id="Vector" d="M21.7916 0.00365177C21.4377 0.038862 21.0996 0.165983 20.8122 0.372213L0.81245 14.7956C0.297205 15.1692 -0.00460165 15.7641 5.30647e-05 16.3937V51.7983C0.00330815 52.3543 0.245585 52.8825 0.666902 53.2533L6.6666 58.4984C7.06373 58.8477 7.58596 59.027 8.1179 58.9963C8.64989 58.9652 9.14746 58.727 9.4999 58.3342L12.6668 54.7693L15.8336 58.3342C16.2136 58.7576 16.7595 59 17.3334 59C17.9072 59 18.4537 58.7576 18.8332 58.3342L22 54.7693L25.1669 58.3342C25.5464 58.7576 26.0928 59 26.6666 59C27.2405 59 27.7869 58.7576 28.1669 58.3342L31.3337 54.7693L34.5006 58.3342C34.8531 58.727 35.3502 58.9652 35.8822 58.9963C36.4142 59.027 36.9364 58.8477 37.3334 58.4984L43.3331 53.2533C43.7545 52.8825 43.9967 52.3543 44 51.7983V1.96918C44 1.44743 43.7893 0.947615 43.4141 0.578574C43.0388 0.210012 42.5305 0.00240073 41.9999 0.00240073H22.0001C21.9308 -0.000800243 21.8611 -0.000800243 21.7918 0.00240073L21.7916 0.00365177ZM24.0623 3.93756H40.0002V50.8974L36.188 54.2575L32.8337 50.4877C32.4538 50.0643 31.9079 49.8214 31.3335 49.8214C30.7597 49.8214 30.2133 50.0638 29.8338 50.4872L26.6669 54.0522L23.5 50.4872C23.1201 50.0638 22.5742 49.8214 22.0003 49.8214C21.4264 49.8214 20.88 50.0638 20.5 50.4872L17.3332 54.0522L14.1663 50.4872C13.7868 50.0638 13.2409 49.8214 12.667 49.8214C12.0927 49.8214 11.5468 50.0638 11.1668 50.4872L7.81254 54.257L4.00032 50.897V18.0537L28.5001 11.7227C29.0172 11.5855 29.4571 11.2504 29.7208 10.7917C29.9849 10.3331 30.0505 9.78936 29.9031 9.28266C29.7556 8.77595 29.4078 8.34889 28.9372 8.09646C27.1008 7.12565 25.6783 6.74976 25.0621 6.27285C24.5673 5.88965 24.1943 5.45525 24.0623 3.93756ZM20.3333 5.59657C20.7309 7.21216 21.4684 8.42435 22.4585 9.24332L11.2709 12.1324L20.3333 5.59657ZM9.79159 19.6722C9.26054 19.6988 8.76203 19.9315 8.40577 20.3197C8.05003 20.708 7.86541 21.2197 7.89285 21.7418C7.92029 22.2636 8.15792 22.7538 8.55319 23.1036C8.94846 23.453 9.46929 23.6341 9.99984 23.6062H33.9996C34.5348 23.6135 35.051 23.4095 35.4323 23.0401C35.8136 22.6701 36.028 22.1657 36.028 21.6389C36.028 21.1126 35.8136 20.6078 35.4323 20.2383C35.051 19.8683 34.5348 19.6649 33.9996 19.6722H9.99984C9.93055 19.6685 9.86088 19.6686 9.79159 19.6722ZM9.79159 26.2287C9.07732 26.2653 8.43696 26.6741 8.11197 27.3006C7.78691 27.9275 7.82645 28.6775 8.21613 29.2678C8.60536 29.8582 9.28569 30.1988 9.99992 30.1622H33.9997C34.5349 30.17 35.0506 29.9661 35.4319 29.5961C35.8132 29.2267 36.0276 28.7218 36.0276 28.1955C36.0276 27.6691 35.8132 27.1643 35.4319 26.7948C35.0506 26.4253 34.5349 26.2214 33.9997 26.2287H9.99992C9.93064 26.2251 9.86088 26.2251 9.79159 26.2287ZM9.79159 32.7852C9.07732 32.8218 8.43696 33.2301 8.11197 33.857C7.78691 34.484 7.82645 35.2339 8.21613 35.8243C8.60536 36.4142 9.28569 36.7553 9.99992 36.7187H27.3331C27.8683 36.726 28.384 36.5221 28.7653 36.1526C29.1462 35.7827 29.361 35.2783 29.361 34.7519C29.361 34.2256 29.1462 33.7212 28.7653 33.3513C28.384 32.9818 27.8683 32.7779 27.3331 32.7852H9.99992C9.93064 32.7815 9.86088 32.7815 9.79159 32.7852ZM9.79159 39.3416C9.07732 39.3782 8.43696 39.7866 8.11197 40.4135C7.78691 41.0404 7.82645 41.7904 8.21613 42.3808C8.60536 42.9707 9.28569 43.3118 9.99992 43.2752H27.3331C27.8683 43.2825 28.384 43.0786 28.7653 42.7091C29.1462 42.3391 29.361 41.8348 29.361 41.3084C29.361 40.7821 29.1462 40.2773 28.7653 39.9078C28.384 39.5383 27.8683 39.3339 27.3331 39.3412H9.99992C9.93064 39.338 9.86088 39.3384 9.79159 39.3416Z" fill="url(#paint0_linear_807_7522)"/>
<defs>
<linearGradient id="paint0_linear_807_7522" x1="22" y1="0" x2="22" y2="59" gradientUnits="userSpaceOnUse">
<stop stop-color="#E34338"/>
<stop offset="1" stop-color="#D02C1C"/>
</linearGradient>
</defs>
</svg>
