<svg width="21" height="21" viewBox="0 0 21 21" fill="none" xmlns="http://www.w3.org/2000/svg">
<g id="Group 559">
<path id="Vector" d="M18.1364 20.9999H2.86364C2.10415 20.9999 1.37578 20.6982 0.838739 20.1612C0.301703 19.6241 0 18.8958 0 18.1363V14.7954C0 14.5422 0.100568 14.2994 0.27958 14.1204C0.458592 13.9414 0.701384 13.8408 0.954545 13.8408C1.20771 13.8408 1.4505 13.9414 1.62951 14.1204C1.80852 14.2994 1.90909 14.5422 1.90909 14.7954V18.1363C1.90909 18.3894 2.00966 18.6322 2.18867 18.8112C2.36768 18.9903 2.61048 19.0908 2.86364 19.0908H18.1364C18.3895 19.0908 18.6323 18.9903 18.8113 18.8112C18.9903 18.6322 19.0909 18.3894 19.0909 18.1363V14.7954C19.0909 14.5422 19.1915 14.2994 19.3705 14.1204C19.5495 13.9414 19.7923 13.8408 20.0455 13.8408C20.2986 13.8408 20.5414 13.9414 20.7204 14.1204C20.8994 14.2994 21 14.5422 21 14.7954V18.1363C21 18.8958 20.6983 19.6241 20.1613 20.1612C19.6242 20.6982 18.8958 20.9999 18.1364 20.9999Z" fill="#595959"/>
<path id="Vector_2" d="M10.4993 16.0794C10.3738 16.0783 10.2498 16.0524 10.1343 16.0032C10.0188 15.9541 9.91418 15.8827 9.82634 15.793L5.17293 11.0203C5.07843 10.9323 5.00278 10.8259 4.95057 10.7078C4.89836 10.5896 4.87068 10.4621 4.8692 10.3329C4.86773 10.2037 4.89248 10.0756 4.94197 9.95627C4.99147 9.83694 5.06466 9.72891 5.15713 9.6387C5.2496 9.5485 5.35942 9.478 5.47993 9.43148C5.60045 9.38496 5.72915 9.36338 5.85825 9.36806C5.98734 9.37273 6.11415 9.40357 6.23098 9.45869C6.34781 9.51381 6.45224 9.59207 6.53794 9.68873L10.4993 13.7742L14.7088 9.66964C14.8924 9.50691 15.1315 9.42108 15.3767 9.42997C15.6218 9.43885 15.8541 9.54175 16.0254 9.71733C16.1967 9.89291 16.2938 10.1277 16.2966 10.373C16.2994 10.6182 16.2077 10.8552 16.0404 11.0346L11.1484 15.8074C10.9746 15.9774 10.7424 16.0747 10.4993 16.0794Z" fill="#595959"/>
<path id="Vector_3" d="M10.4995 16.0745C10.2463 16.0745 10.0035 15.974 9.8245 15.795C9.64549 15.616 9.54492 15.3732 9.54492 15.12V0.954545C9.54492 0.701384 9.64549 0.458592 9.8245 0.27958C10.0035 0.100568 10.2463 0 10.4995 0C10.7526 0 10.9954 0.100568 11.1744 0.27958C11.3534 0.458592 11.454 0.701384 11.454 0.954545V15.12C11.454 15.3732 11.3534 15.616 11.1744 15.795C10.9954 15.974 10.7526 16.0745 10.4995 16.0745Z" fill="#595959"/>
</g>
</svg>
