<svg width="36" height="25" viewBox="0 0 36 25" fill="none" xmlns="http://www.w3.org/2000/svg">
<path id="Vector" d="M33.6312 0.383057H2.12472C1.22628 0.383057 0.495117 1.09078 0.495117 1.96031V22.9906C0.495117 23.8602 1.22633 24.5679 2.12472 24.5679H33.6312C34.5296 24.5679 35.2608 23.8602 35.2608 22.9906V1.96031C35.2608 1.09073 34.5296 0.383057 33.6312 0.383057ZM21.9659 10.431L34.1745 2.42648V22.2474L21.9659 10.431ZM33.6312 1.43481C33.6632 1.43481 33.6909 1.44739 33.722 1.45265L17.8779 11.8409L2.03374 1.45265C2.06478 1.44739 2.09253 1.43481 2.12454 1.43481H33.6312ZM1.58189 22.7733V2.42648L14.1143 10.6434L1.58189 22.7733ZM2.34995 23.5166L15.0299 11.2441L17.5733 12.9113C17.6651 12.9716 17.7716 13.0016 17.8781 13.0016C17.9846 13.0016 18.0911 12.9716 18.1829 12.9111L21.0499 11.0315L33.8813 23.4507C33.8053 23.4892 33.7226 23.517 33.6314 23.517L2.34995 23.5166Z" fill="#FBFBFB"/>
</svg>
