<svg width="110" height="110" viewBox="0 0 110 110" fill="none" xmlns="http://www.w3.org/2000/svg">
<g id="Vector">
<path id="Vector_2" d="M32.3534 0.000117857C31.5477 -0.00371857 30.7735 0.315482 30.2043 0.884808C29.6342 1.4549 29.3158 2.22912 29.3188 3.03471V48.3466C29.3211 49.1492 29.6418 49.9173 30.2112 50.4828C30.7805 51.049 31.5509 51.3644 32.3534 51.3613H77.671C78.4682 51.3575 79.2325 51.0383 79.7964 50.4736C80.3596 49.9089 80.6764 49.1439 80.6787 48.3467V3.03475C80.6818 2.2337 80.3672 1.46333 79.8033 0.894669C79.2393 0.325343 78.472 0.00383034 77.6711 0H63.0143V18.0468C63.0081 19.7157 61.6554 21.0608 59.9866 21.0545H50.0163C48.3567 21.0491 47.0079 19.7071 47.0024 18.0468V0L32.3534 0.000117857ZM53.0528 0.000117857V15.0123H56.9745V0.000117857H53.0528ZM3.03472 58.6396C2.22982 58.6358 1.45718 58.9535 0.88699 59.522C0.317667 60.0906 -0.00152664 60.8625 5.49027e-06 61.6674V106.985C0.00153998 107.788 0.323031 108.557 0.892374 109.122C1.4617 109.688 2.23206 110.004 3.0346 110H48.3463C49.1451 109.998 49.9108 109.68 50.4756 109.115C51.0403 108.55 51.3587 107.784 51.361 106.985V61.6674C51.3626 60.8656 51.0457 60.0967 50.4802 59.5289C49.9155 58.9611 49.1474 58.6411 48.3464 58.6396H33.6965V76.6795C33.6904 78.3484 32.3307 79.6935 30.6619 79.6872H20.6985C19.0381 79.6811 17.6901 78.3399 17.6838 76.6795V58.6396L3.03472 58.6396ZM23.7342 58.6396V73.645H27.655V58.6396H23.7342ZM61.674 58.6396C60.8691 58.6358 60.0964 58.9535 59.527 59.522C58.9569 60.0898 58.6377 60.8625 58.6393 61.6674V106.985C58.6416 107.788 58.9623 108.557 59.5316 109.122C60.101 109.688 60.8721 110.004 61.6747 110H106.992C107.79 109.996 108.554 109.678 109.118 109.113C109.681 108.548 109.998 107.783 110 106.985V61.6675C110.002 60.8672 109.686 60.0991 109.122 59.5313C108.558 58.9635 107.792 58.6428 106.992 58.6397H92.3422V76.6796C92.3361 78.3485 90.9765 79.6936 89.3076 79.6873H79.3382C77.6778 79.6812 76.3297 78.3399 76.3235 76.6796V58.6397L61.674 58.6396ZM82.3734 58.6396V73.645H86.3012V58.6396H82.3734Z" fill="url(#paint0_linear_482_2789)"/>
</g>
<defs>
<linearGradient id="paint0_linear_482_2789" x1="55" y1="0" x2="55" y2="110" gradientUnits="userSpaceOnUse">
<stop stop-color="#E34338"/>
<stop offset="1" stop-color="#D02C1C"/>
</linearGradient>
</defs>
</svg>
