<svg width="89" height="16" viewBox="0 0 89 16" fill="none" xmlns="http://www.w3.org/2000/svg">
<g id="Group 463">
<path id="Vector" fill-rule="evenodd" clip-rule="evenodd" d="M7.68576 0.50757L5.60601 4.83046L0.786198 5.44096C0.440744 5.48478 0.151732 5.72064 0.0442789 6.04683C-0.0635658 6.37259 0.0292595 6.7306 0.282699 6.96565L3.81736 10.2485L2.91821 14.9491C2.85394 15.286 2.99264 15.6293 3.27421 15.8306C3.55593 16.0322 3.9306 16.0556 4.23616 15.8914L8.5 13.5971L12.7638 15.8914C13.0694 16.0556 13.4441 16.0322 13.7258 15.8306C14.0074 15.6293 14.1461 15.286 14.0818 14.9491L13.1826 10.2485L16.7173 6.96565C16.9707 6.73058 17.0636 6.37257 16.9557 6.04683C16.8483 5.72066 16.5593 5.48481 16.2138 5.44096L11.394 4.83046L9.31424 0.50757C9.16512 0.197655 8.84837 0 8.49992 0C8.15148 0 7.83473 0.197645 7.68561 0.50757H7.68576Z" fill="#FEC00F"/>
<path id="Vector_2" fill-rule="evenodd" clip-rule="evenodd" d="M25.6858 0.50757L23.606 4.83046L18.7862 5.44096C18.4407 5.48478 18.1517 5.72064 18.0443 6.04683C17.9364 6.37259 18.0293 6.7306 18.2827 6.96565L21.8174 10.2485L20.9182 14.9491C20.8539 15.286 20.9926 15.6293 21.2742 15.8306C21.5559 16.0322 21.9306 16.0556 22.2362 15.8914L26.5 13.5971L30.7638 15.8914C31.0694 16.0556 31.4441 16.0322 31.7258 15.8306C32.0074 15.6293 32.1461 15.286 32.0818 14.9491L31.1826 10.2485L34.7173 6.96565C34.9707 6.73058 35.0636 6.37257 34.9557 6.04683C34.8483 5.72066 34.5593 5.48481 34.2138 5.44096L29.394 4.83046L27.3142 0.50757C27.1651 0.197655 26.8484 0 26.4999 0C26.1515 0 25.8347 0.197645 25.6856 0.50757H25.6858Z" fill="#FEC00F"/>
<path id="Vector_3" fill-rule="evenodd" clip-rule="evenodd" d="M43.6858 0.50757L41.606 4.83046L36.7862 5.44096C36.4407 5.48478 36.1517 5.72064 36.0443 6.04683C35.9364 6.37259 36.0293 6.7306 36.2827 6.96565L39.8174 10.2485L38.9182 14.9491C38.8539 15.286 38.9926 15.6293 39.2742 15.8306C39.5559 16.0322 39.9306 16.0556 40.2362 15.8914L44.5 13.5971L48.7638 15.8914C49.0694 16.0556 49.4441 16.0322 49.7258 15.8306C50.0074 15.6293 50.1461 15.286 50.0818 14.9491L49.1826 10.2485L52.7173 6.96565C52.9707 6.73058 53.0636 6.37257 52.9557 6.04683C52.8483 5.72066 52.5593 5.48481 52.2138 5.44096L47.394 4.83046L45.3142 0.50757C45.1651 0.197655 44.8484 0 44.4999 0C44.1515 0 43.8347 0.197645 43.6856 0.50757H43.6858Z" fill="#FEC00F"/>
<path id="Vector_4" fill-rule="evenodd" clip-rule="evenodd" d="M61.6858 0.50757L59.606 4.83046L54.7862 5.44096C54.4407 5.48478 54.1517 5.72064 54.0443 6.04683C53.9364 6.37259 54.0293 6.7306 54.2827 6.96565L57.8174 10.2485L56.9182 14.9491C56.8539 15.286 56.9926 15.6293 57.2742 15.8306C57.5559 16.0322 57.9306 16.0556 58.2362 15.8914L62.5 13.5971L66.7638 15.8914C67.0694 16.0556 67.4441 16.0322 67.7258 15.8306C68.0074 15.6293 68.1461 15.286 68.0818 14.9491L67.1826 10.2485L70.7173 6.96565C70.9707 6.73058 71.0636 6.37257 70.9557 6.04683C70.8483 5.72066 70.5593 5.48481 70.2138 5.44096L65.394 4.83046L63.3142 0.50757C63.1651 0.197655 62.8484 0 62.4999 0C62.1515 0 61.8347 0.197645 61.6856 0.50757H61.6858Z" fill="#FEC00F"/>
<path id="Vector_5" fill-rule="evenodd" clip-rule="evenodd" d="M79.6858 0.50757L77.606 4.83046L72.7862 5.44096C72.4407 5.48478 72.1517 5.72064 72.0443 6.04683C71.9364 6.37259 72.0293 6.7306 72.2827 6.96565L75.8174 10.2485L74.9182 14.9491C74.8539 15.286 74.9926 15.6293 75.2742 15.8306C75.5559 16.0322 75.9306 16.0556 76.2362 15.8914L80.5 13.5971L84.7638 15.8914C85.0694 16.0556 85.4441 16.0322 85.7258 15.8306C86.0074 15.6293 86.1461 15.286 86.0818 14.9491L85.1826 10.2485L88.7173 6.96565C88.9707 6.73058 89.0636 6.37257 88.9557 6.04683C88.8483 5.72066 88.5593 5.48481 88.2138 5.44096L83.394 4.83046L81.3142 0.50757C81.1651 0.197655 80.8484 0 80.4999 0C80.1515 0 79.8347 0.197645 79.6856 0.50757H79.6858Z" fill="#FEC00F"/>
</g>
</svg>
