<svg width="30" height="24" viewBox="0 0 30 24" fill="none" xmlns="http://www.w3.org/2000/svg">
<g id="Group 480">
<path id="Vector" d="M23.705 10.6946C23.705 5.03545 18.4061 0.428467 11.8881 0.428467C5.37015 0.428467 0.0712891 5.03545 0.0712891 10.6946C0.0800348 12.8034 0.796471 14.8439 2.09894 16.4693L0.693229 21.4291C0.62642 21.677 0.709506 21.9424 0.904589 22.1029C1.02072 22.1991 1.16648 22.2492 1.31517 22.244C1.42207 22.2437 1.52701 22.2149 1.61982 22.1605L6.06035 19.594H6.06059C7.88026 20.4917 9.87121 20.9587 11.8881 20.9607C18.406 20.9607 23.705 16.3537 23.705 10.6946ZM11.8881 19.6774C9.95721 19.6842 8.05227 19.2203 6.32813 18.3235C6.14519 18.2232 5.92606 18.2232 5.74336 18.3235L2.32269 20.3191L3.38633 16.4693C3.44513 16.2615 3.39824 16.0372 3.26195 15.8725C2.02534 14.4476 1.33344 12.6072 1.31521 10.6946C1.31521 5.74126 6.06068 1.71174 11.8882 1.71174C17.7157 1.71174 22.4612 5.74126 22.4612 10.6946C22.4612 15.6479 17.7157 19.6774 11.8881 19.6774Z" fill="url(#paint0_linear_828_7240)"/>
<path id="Vector_2" d="M29.0975 18.85C30.0213 16.9033 30.1746 14.6619 29.5245 12.6007C28.8744 10.5397 27.4721 8.82055 25.6146 7.80748C25.3107 7.6408 24.9334 7.76011 24.7718 8.07366C24.6105 8.38745 24.7261 8.77669 25.0301 8.94313C26.6328 9.81511 27.8346 11.3074 28.3722 13.0924C28.9096 14.8775 28.7388 16.8097 27.897 18.4651C27.8307 18.5972 27.8108 18.7493 27.8412 18.8949L28.4631 21.8464L26.28 20.9609C26.0871 20.88 25.8677 20.904 25.6954 21.0251C24.5599 21.8258 23.215 22.2512 21.8394 22.2442C20.5139 22.2424 19.2176 21.8434 18.1078 21.0958C17.8223 20.9023 17.4392 20.9825 17.2494 21.2752C17.1581 21.4181 17.1258 21.5925 17.1595 21.76C17.1936 21.9274 17.2907 22.074 17.43 22.1673C18.721 23.0387 20.227 23.5109 21.7697 23.528C23.3126 23.545 24.8281 23.1061 26.1371 22.2635L29.0913 23.4826C29.1584 23.5109 29.23 23.5262 29.3027 23.5275C29.4487 23.526 29.5896 23.4713 29.7006 23.3736C29.8838 23.2187 29.9659 22.9698 29.9122 22.7319L29.0975 18.85Z" fill="url(#paint1_linear_828_7240)"/>
</g>
<defs>
<linearGradient id="paint0_linear_828_7240" x1="11.8881" y1="0.428467" x2="11.8881" y2="22.2443" gradientUnits="userSpaceOnUse">
<stop stop-color="#FF6251"/>
<stop offset="1" stop-color="#FF4358"/>
</linearGradient>
<linearGradient id="paint1_linear_828_7240" x1="23.5375" y1="7.73218" x2="23.5375" y2="23.5284" gradientUnits="userSpaceOnUse">
<stop stop-color="#FF6251"/>
<stop offset="1" stop-color="#FF4358"/>
</linearGradient>
</defs>
</svg>
