<svg width="116" height="100" viewBox="0 0 116 100" fill="none" xmlns="http://www.w3.org/2000/svg">
<path d="M55.7123 72.4392C56.3273 72.8263 57.0392 73.0316 57.7655 73.0316C58.4918 73.0316 59.2036 72.8263 59.8187 72.4392C64.825 69.2697 73.7939 62.8217 77.3243 55.6182C82.2591 46.2893 81.9345 36.9242 76.5682 31.845L76.5673 31.8459C73.5182 28.9851 69.3105 27.706 65.1852 28.3879C62.4075 28.8184 59.8225 30.0739 57.7656 31.9897C55.7179 30.0803 53.1474 28.8258 50.3813 28.3879C46.2569 27.6815 42.0374 28.9324 38.9638 31.7734C33.5964 36.8883 33.3089 46.1811 38.1714 55.4749C41.7368 62.8592 50.5621 69.2702 55.7123 72.4396V72.4392ZM44.2225 37.3917C45.5567 36.2023 47.3593 35.6859 49.1212 35.9871C51.4629 36.4348 53.432 38.0131 54.3799 40.2011C54.8195 41.0296 55.5458 41.6681 56.4223 41.9992C57.2997 42.3302 58.2675 42.3302 59.1439 41.9992C60.0213 41.6681 60.7476 41.0296 61.1872 40.2011C62.1342 38.0131 64.1033 36.4347 66.4459 35.9871C68.1961 35.6859 69.9889 36.2042 71.3085 37.3917C74.0454 39.9849 73.7217 46.0008 70.5161 52.1232V52.1241C67.2934 57.2228 62.9282 61.5019 57.7656 64.6225C52.5819 61.4857 48.2033 57.1812 44.9787 52.0519C41.8092 46.0369 41.5207 40.0212 44.2225 37.4281V37.3917Z" fill="url(#paint0_linear_246_2187)"/>
<path d="M96.199 67.6138C92.1904 76.3928 85.2971 83.5338 76.6656 87.8508C68.0341 92.1671 58.1852 93.399 48.7546 91.3402C39.3261 89.2825 30.8863 84.0582 24.8378 76.5373C18.7904 69.0156 15.5008 59.6512 15.5151 49.9993C15.5413 48.8515 15.0592 47.7507 14.1982 46.9919C13.3371 46.2331 12.1848 45.893 11.0486 46.063C9.91349 46.2331 8.91129 46.8961 8.31077 47.8738L0.638822 59.3997V59.4006C0.125058 60.1775 -0.0901901 61.1146 0.0346154 62.0382C0.158532 62.9617 0.612586 63.8092 1.31265 64.4234C2.01363 65.0375 2.91271 65.3776 3.84442 65.3794H10.2556C13.3417 74.9616 19.2525 83.3871 27.212 89.5509C35.1715 95.7141 44.8089 99.3267 54.8568 99.9146C64.9065 100.503 74.8995 98.0396 83.5227 92.847C92.1458 87.6545 99.0004 79.9761 103.183 70.819L96.199 67.6138Z" fill="url(#paint1_linear_246_2187)"/>
<path d="M114.929 36.6739C114.603 36.057 114.116 35.5406 113.52 35.1788C112.924 34.8179 112.241 34.6244 111.544 34.6207H105.276C102.19 25.0385 96.2796 16.6131 88.32 10.4492C80.3605 4.28603 70.7231 0.673383 60.6753 0.0854776C50.6255 -0.503354 40.6325 1.9605 32.0094 7.15308C23.3862 12.3457 16.5316 20.024 12.3494 29.1811L19.3375 32.3867C23.3461 23.6077 30.2394 16.4667 38.8709 12.1497C47.5024 7.83338 57.3514 6.60153 66.7819 8.66024C76.2104 10.718 84.6502 15.9423 90.6987 23.4632C96.7461 30.9849 100.036 40.3493 100.021 50.0012C99.9762 51.1608 100.455 52.2796 101.326 53.0466C102.198 53.8136 103.367 54.1464 104.512 53.9547C105.656 53.762 106.653 53.0637 107.226 52.0543L114.898 40.6361C115.262 40.041 115.458 39.3581 115.464 38.6607C115.47 37.9625 115.287 37.2759 114.934 36.6745L114.929 36.6739Z" fill="url(#paint2_linear_246_2187)"/>
<defs>
<linearGradient id="paint0_linear_246_2187" x1="57.7703" y1="28.1945" x2="57.7703" y2="73.0316" gradientUnits="userSpaceOnUse">
<stop stop-color="#E34338"/>
<stop offset="0.520833" stop-color="#CC3F31"/>
<stop offset="1" stop-color="#D02C1C"/>
</linearGradient>
<linearGradient id="paint1_linear_246_2187" x1="51.5913" y1="46.0201" x2="51.5913" y2="100" gradientUnits="userSpaceOnUse">
<stop stop-color="#E34338"/>
<stop offset="0.520833" stop-color="#CC3F31"/>
<stop offset="1" stop-color="#D02C1C"/>
</linearGradient>
<linearGradient id="paint2_linear_246_2187" x1="63.9067" y1="0" x2="63.9067" y2="54.0078" gradientUnits="userSpaceOnUse">
<stop stop-color="#E34338"/>
<stop offset="0.520833" stop-color="#CC3F31"/>
<stop offset="1" stop-color="#D02C1C"/>
</linearGradient>
</defs>
</svg>
