<svg width="48" height="48" viewBox="0 0 48 48" fill="none" xmlns="http://www.w3.org/2000/svg">
<g id="Group">
<path id="Vector" d="M46.1225 36.8559C41.8847 29.8887 35.7593 20.3401 33.9713 17.5648V4.93363H34.0789C35.4415 4.93363 36.5466 3.82856 36.5466 2.4677C36.5466 1.10519 35.4416 0 34.0789 0H13.9214C12.5588 0 11.4537 1.10508 11.4537 2.4677C11.4537 3.82856 12.5587 4.93363 13.9214 4.93363H14.029V17.5648C12.2418 20.3401 6.11636 29.8884 1.87782 36.8559C-0.615139 40.9555 -0.172866 43.5308 0.636227 44.9723C1.63968 46.7595 3.70193 47.7398 6.44078 47.7398H41.559C44.2978 47.7398 46.3583 46.7578 47.3635 44.9723C48.1739 43.5303 48.6141 40.955 46.1215 36.8554L46.1225 36.8559ZM44.2215 43.206C43.8907 43.7981 42.9186 44.1361 41.5595 44.1361H6.44134C5.08267 44.1361 4.11181 43.7959 3.77936 43.206C3.31431 42.3798 3.75448 40.7057 4.95571 38.7297C9.44147 31.3551 16.0625 21.0608 17.3442 19.0696L17.6307 18.6239L17.6303 4.93401H30.3669V18.6239L30.6535 19.0696C31.9354 21.0589 38.5567 31.3549 43.0419 38.7297C44.2471 40.7053 44.6851 42.3797 44.2201 43.206H44.2215Z" fill="url(#paint0_linear_807_7323)"/>
<path id="Vector_2" d="M24.3379 11.1049C24.3379 12.4139 23.2769 13.4748 21.9685 13.4748C20.6596 13.4748 19.5986 12.4138 19.5986 11.1049C19.5986 9.79603 20.6596 8.73511 21.9685 8.73511C23.2769 8.73511 24.3379 9.79605 24.3379 11.1049Z" fill="url(#paint1_linear_807_7323)"/>
<path id="Vector_3" d="M28.4032 16.7883C28.4032 17.7235 27.6452 18.4816 26.7099 18.4816C25.7747 18.4816 25.0166 17.7235 25.0166 16.7883C25.0166 15.8535 25.7747 15.095 26.7099 15.095C27.6452 15.095 28.4032 15.8535 28.4032 16.7883Z" fill="url(#paint2_linear_807_7323)"/>
<path id="Vector_4" d="M29.9558 22.6488H18.0429C15.6751 26.343 10.9084 33.9401 7.72007 39.0415C6.96072 40.2561 6.16536 41.6113 9.28642 41.6113C12.4079 41.6113 18.3141 41.613 23.9988 41.613C29.6841 41.613 35.5899 41.6113 38.7112 41.6113C41.8344 41.6113 41.0369 40.2564 40.2775 39.0415C37.0917 33.9406 32.325 26.3434 29.9556 22.6488H29.9558Z" fill="url(#paint3_linear_807_7323)"/>
</g>
<defs>
<linearGradient id="paint0_linear_807_7323" x1="24" y1="0" x2="24" y2="47.7398" gradientUnits="userSpaceOnUse">
<stop stop-color="#E34338"/>
<stop offset="1" stop-color="#D02C1C"/>
</linearGradient>
<linearGradient id="paint1_linear_807_7323" x1="21.9683" y1="8.73511" x2="21.9683" y2="13.4748" gradientUnits="userSpaceOnUse">
<stop stop-color="#E34338"/>
<stop offset="1" stop-color="#D02C1C"/>
</linearGradient>
<linearGradient id="paint2_linear_807_7323" x1="26.7099" y1="15.095" x2="26.7099" y2="18.4816" gradientUnits="userSpaceOnUse">
<stop stop-color="#E34338"/>
<stop offset="1" stop-color="#D02C1C"/>
</linearGradient>
<linearGradient id="paint3_linear_807_7323" x1="23.9992" y1="22.6488" x2="23.9992" y2="41.613" gradientUnits="userSpaceOnUse">
<stop stop-color="#E34338"/>
<stop offset="1" stop-color="#D02C1C"/>
</linearGradient>
</defs>
</svg>
