<svg width="22" height="21" viewBox="0 0 22 21" fill="none" xmlns="http://www.w3.org/2000/svg">
<path d="M11.2404 20.9246C5.54627 20.9246 0.913574 16.2919 0.913574 10.5978C0.913574 4.90369 5.54627 0.270996 11.2404 0.270996C16.9345 0.270996 21.5672 4.90369 21.5672 10.5978C21.5672 16.2919 16.9345 20.9246 11.2404 20.9246ZM11.2404 1.14994C6.03078 1.14994 1.79252 5.3882 1.79252 10.5978C1.79252 15.8074 6.03078 20.0457 11.2404 20.0457C16.45 20.0457 20.6882 15.8074 20.6882 10.5978C20.6882 5.3882 16.45 1.14994 11.2404 1.14994Z" fill="#FBFBFB"/>
<path d="M14.5356 14.3328C14.4232 14.3328 14.3106 14.2899 14.2249 14.2041L10.929 10.9084C10.8467 10.8259 10.8003 10.7141 10.8003 10.5976V5.10463C10.8003 4.86199 10.997 4.66516 11.2398 4.66516C11.4824 4.66516 11.6792 4.86185 11.6792 5.10463V10.4156L14.8463 13.5828C15.018 13.7543 15.018 14.0326 14.8463 14.2043C14.7605 14.2899 14.6479 14.3329 14.5356 14.3329L14.5356 14.3328Z" fill="#FBFBFB"/>
</svg>
