<svg width="146" height="105" viewBox="0 0 146 105" fill="none" xmlns="http://www.w3.org/2000/svg">
<g id="Group 427">
<path id="Vector" d="M145.311 76.0784C145.311 64.207 137.932 53.5516 127.044 49.2274C127.865 46.0259 128.28 42.7622 128.28 39.4927C128.28 17.7152 110.565 0 88.7874 0C70.4454 0 54.5259 12.8566 50.3845 30.4369C48.1038 29.7671 45.7538 29.4288 43.3619 29.4288C29.4905 29.4288 18.2059 40.7131 18.2059 54.5825C18.2059 55.527 18.2638 56.4863 18.3807 57.4524C7.71284 60.0499 0 69.6281 0 80.8725C0 94.172 10.819 104.991 24.117 104.991H116.401C132.343 104.991 145.312 92.0205 145.312 76.0796L145.311 76.0784ZM116.401 99.1771H24.1163C14.0218 99.1771 5.81174 90.967 5.81174 80.8713C5.81174 71.5452 12.8038 63.7257 22.0753 62.6903C22.904 62.596 23.6521 62.1544 24.1312 61.4699C24.6091 60.7887 24.7726 59.9316 24.5762 59.1222C24.2004 57.5556 24.0177 56.0683 24.0177 54.5812C24.0177 43.9156 32.6954 35.24 43.3612 35.24C46.1324 35.24 48.8342 35.8337 51.392 37.0019C52.2264 37.3822 53.1914 37.3481 53.9974 36.9076C54.8023 36.4672 55.3506 35.6725 55.4789 34.7643C57.8016 18.2578 72.1217 5.80984 88.7872 5.80984C107.359 5.80984 122.467 20.9199 122.467 39.4901C122.467 43.0808 121.877 46.6705 120.712 50.158C120.461 50.9107 120.53 51.7337 120.9 52.4376C121.272 53.1381 121.915 53.658 122.677 53.8737C132.582 56.6789 139.498 65.8096 139.498 76.0779C139.498 88.8153 129.136 99.1766 116.401 99.1766L116.401 99.1771Z" fill="url(#paint0_linear_1702_1019)"/>
<path id="Vector_2" d="M59.0166 70.9256C55.5338 63.4069 57.1309 54.4191 62.99 48.5613C66.7079 44.8434 71.6906 42.7942 77.0172 42.7942C80.6816 42.7942 84.1726 43.7841 87.2116 45.6005H84.4473C82.8421 45.6005 81.5411 46.9004 81.5411 48.5067C81.5411 50.1131 82.8421 51.413 84.4473 51.413H95.1004C96.7056 51.413 98.0066 50.1131 98.0066 48.5067V37.8548C98.0066 36.2485 96.7056 34.9486 95.1004 34.9486C93.4952 34.9486 92.1942 36.2485 92.1942 37.8548V41.9462C87.8337 38.7404 82.5763 36.9806 77.017 36.9806C70.1373 36.9806 63.6948 39.6337 58.8804 44.4505C51.3038 52.0247 49.2398 63.6453 53.7433 73.3652C54.2337 74.4266 55.2838 75.051 56.3816 75.051C56.7903 75.051 57.2058 74.9659 57.602 74.782C59.0574 74.1076 59.692 72.3823 59.0166 70.9256Z" fill="url(#paint1_linear_1702_1019)"/>
<path id="Vector_3" d="M99.6512 53.2092C98.1947 53.8847 97.5612 55.6103 98.2367 57.069C101.719 64.5842 100.122 73.5697 94.2633 79.4298C87.7016 85.986 77.658 86.9575 70.0384 82.3907H72.8061C74.4114 82.3907 75.7124 81.0908 75.7124 79.4844C75.7124 77.8781 74.4114 76.5782 72.8061 76.5782H62.1531C60.5478 76.5782 59.2468 77.8781 59.2468 79.4844V90.1364C59.2468 91.7427 60.5478 93.0426 62.1531 93.0426C63.7583 93.0426 65.0593 91.7427 65.0593 90.1364V86.0426C69.5593 89.3552 74.8905 91.0387 80.2365 91.0387C86.8051 91.0387 93.3735 88.5412 98.3731 83.5404C105.95 75.9627 108.012 64.3433 103.51 54.6257C102.835 53.1636 101.105 52.5278 99.6515 53.209L99.6512 53.2092Z" fill="url(#paint2_linear_1702_1019)"/>
</g>
<defs>
<linearGradient id="paint0_linear_1702_1019" x1="72.6559" y1="0" x2="72.6559" y2="104.991" gradientUnits="userSpaceOnUse">
<stop stop-color="#E34338"/>
<stop offset="1" stop-color="#D02C1C"/>
</linearGradient>
<linearGradient id="paint1_linear_1702_1019" x1="74.6947" y1="34.9486" x2="74.6947" y2="75.051" gradientUnits="userSpaceOnUse">
<stop stop-color="#E34338"/>
<stop offset="1" stop-color="#D02C1C"/>
</linearGradient>
<linearGradient id="paint2_linear_1702_1019" x1="82.5585" y1="52.9355" x2="82.5585" y2="93.0426" gradientUnits="userSpaceOnUse">
<stop stop-color="#E34338"/>
<stop offset="1" stop-color="#D02C1C"/>
</linearGradient>
</defs>
</svg>
