<svg width="137" height="135" viewBox="0 0 137 135" fill="none" xmlns="http://www.w3.org/2000/svg">
<g id="Group 420">
<path id="Vector" d="M107.031 119.875C107.031 120.446 106.809 120.984 106.404 121.389C105.999 121.793 105.462 122.016 104.891 122.016H78.9854C77.9925 117.137 73.6683 113.453 68.5002 113.453C63.3302 113.453 59.0088 117.137 58.0131 122.016H32.1104C31.5389 122.016 31.0018 121.793 30.5947 121.386C30.1924 120.984 29.9697 120.448 29.9697 119.875V115.594H25.6885V119.875C25.6885 121.591 26.3584 123.205 27.5701 124.417C28.7819 125.629 30.3979 126.297 32.1104 126.297H58.0132C59.009 131.175 63.3303 134.859 68.5003 134.859C73.6674 134.859 77.9937 131.175 78.9855 126.297H104.891C106.605 126.297 108.219 125.627 109.431 124.415C110.643 123.203 111.313 121.589 111.313 119.875V115.594H107.031L107.031 119.875ZM68.5 130.578C64.9593 130.578 62.0781 127.697 62.0781 124.156C62.0781 120.616 64.9593 117.734 68.5 117.734C72.0407 117.734 74.9219 120.616 74.9219 124.156C74.9219 127.697 72.0407 130.578 68.5 130.578Z" fill="url(#paint0_linear_1702_2638)"/>
<path id="Vector_2" d="M66.3594 122.016H70.6406V126.297H66.3594V122.016Z" fill="url(#paint1_linear_1702_2638)"/>
<path id="Vector_3" d="M66.3594 57.7969H70.6406V83.4844H66.3594V57.7969Z" fill="url(#paint2_linear_1702_2638)"/>
<path id="Vector_4" d="M66.3594 104.891H70.6406V109.172H66.3594V104.891Z" fill="url(#paint3_linear_1702_2638)"/>
<path id="Vector_5" d="M66.3594 96.3281H70.6406V100.609H66.3594V96.3281Z" fill="url(#paint4_linear_1702_2638)"/>
<path id="Vector_6" d="M66.3594 87.7656H70.6406V92.0469H66.3594V87.7656Z" fill="url(#paint5_linear_1702_2638)"/>
<path id="Vector_7" d="M14.9844 107.031V111.312H40.6719V107.031H36.3906V100.609H51.375C53.7364 100.609 55.6562 98.6895 55.6562 96.3281V62.0781C55.6562 59.7168 53.7364 57.7969 51.375 57.7969H4.28125C1.91988 57.7969 0 59.7168 0 62.0781V96.3281C0 98.6895 1.91988 100.609 4.28125 100.609H19.2656V107.031H14.9844ZM4.28125 62.0781H51.375L51.3683 96.3281H4.2819L4.28125 62.0781ZM23.5469 100.609H32.1094V107.031H23.5469V100.609Z" fill="url(#paint6_linear_1702_2638)"/>
<path id="Vector_8" d="M17.125 87.7656H21.4062V92.0469H17.125V87.7656Z" fill="url(#paint7_linear_1702_2638)"/>
<path id="Vector_9" d="M25.6875 87.7656H29.9687V92.0469H25.6875V87.7656Z" fill="url(#paint8_linear_1702_2638)"/>
<path id="Vector_10" d="M34.25 87.7656H38.5312V92.0469H34.25V87.7656Z" fill="url(#paint9_linear_1702_2638)"/>
<path id="Vector_11" d="M132.719 57.7969H85.625C83.2636 57.7969 81.3438 59.7168 81.3438 62.0781V96.3281C81.3438 98.6895 83.2636 100.609 85.625 100.609H100.609V107.031H96.3281V111.312H122.016V107.031H117.734V100.609H132.719C135.08 100.609 137 98.6895 137 96.3281V62.0781C137 59.7168 135.08 57.7969 132.719 57.7969ZM113.453 107.031H104.891V100.609H113.453V107.031ZM132.712 96.3281H85.6257V62.0781H132.719L132.712 96.3281Z" fill="url(#paint10_linear_1702_2638)"/>
<path id="Vector_12" d="M98.4688 87.7656H102.75V92.0469H98.4688V87.7656Z" fill="url(#paint11_linear_1702_2638)"/>
<path id="Vector_13" d="M107.031 87.7656H111.312V92.0469H107.031V87.7656Z" fill="url(#paint12_linear_1702_2638)"/>
<path id="Vector_14" d="M115.594 87.7656H119.875V92.0469H115.594V87.7656Z" fill="url(#paint13_linear_1702_2638)"/>
<path id="Vector_15" d="M44.9531 42.8125H59.9375V49.2344H55.6562V53.5156H81.3437V49.2344H77.0625V42.8125H92.0469C94.4082 42.8125 96.3281 40.8926 96.3281 38.5312V4.28125C96.3281 1.91988 94.4082 0 92.0469 0H44.9531C42.5918 0 40.6719 1.91988 40.6719 4.28125V38.5312C40.6719 40.8926 42.5918 42.8125 44.9531 42.8125ZM72.7812 49.2344H64.2187V42.8125H72.7812V49.2344ZM44.9531 4.28125H92.0469L92.0402 38.5312H44.9538L44.9531 4.28125Z" fill="url(#paint14_linear_1702_2638)"/>
<path id="Vector_16" d="M57.7969 29.9688H62.0781V34.25H57.7969V29.9688Z" fill="url(#paint15_linear_1702_2638)"/>
<path id="Vector_17" d="M66.3594 29.9688H70.6406V34.25H66.3594V29.9688Z" fill="url(#paint16_linear_1702_2638)"/>
<path id="Vector_18" d="M74.9219 29.9688H79.2031V34.25H74.9219V29.9688Z" fill="url(#paint17_linear_1702_2638)"/>
</g>
<defs>
<linearGradient id="paint0_linear_1702_2638" x1="68.5006" y1="113.453" x2="68.5006" y2="134.859" gradientUnits="userSpaceOnUse">
<stop stop-color="#E34338"/>
<stop offset="1" stop-color="#D02C1C"/>
</linearGradient>
<linearGradient id="paint1_linear_1702_2638" x1="68.5" y1="122.016" x2="68.5" y2="126.297" gradientUnits="userSpaceOnUse">
<stop stop-color="#E34338"/>
<stop offset="1" stop-color="#D02C1C"/>
</linearGradient>
<linearGradient id="paint2_linear_1702_2638" x1="68.5" y1="57.7969" x2="68.5" y2="83.4844" gradientUnits="userSpaceOnUse">
<stop stop-color="#E34338"/>
<stop offset="1" stop-color="#D02C1C"/>
</linearGradient>
<linearGradient id="paint3_linear_1702_2638" x1="68.5" y1="104.891" x2="68.5" y2="109.172" gradientUnits="userSpaceOnUse">
<stop stop-color="#E34338"/>
<stop offset="1" stop-color="#D02C1C"/>
</linearGradient>
<linearGradient id="paint4_linear_1702_2638" x1="68.5" y1="96.3281" x2="68.5" y2="100.609" gradientUnits="userSpaceOnUse">
<stop stop-color="#E34338"/>
<stop offset="1" stop-color="#D02C1C"/>
</linearGradient>
<linearGradient id="paint5_linear_1702_2638" x1="68.5" y1="87.7656" x2="68.5" y2="92.0469" gradientUnits="userSpaceOnUse">
<stop stop-color="#E34338"/>
<stop offset="1" stop-color="#D02C1C"/>
</linearGradient>
<linearGradient id="paint6_linear_1702_2638" x1="27.8281" y1="57.7969" x2="27.8281" y2="111.312" gradientUnits="userSpaceOnUse">
<stop stop-color="#E34338"/>
<stop offset="1" stop-color="#D02C1C"/>
</linearGradient>
<linearGradient id="paint7_linear_1702_2638" x1="19.2656" y1="87.7656" x2="19.2656" y2="92.0469" gradientUnits="userSpaceOnUse">
<stop stop-color="#E34338"/>
<stop offset="1" stop-color="#D02C1C"/>
</linearGradient>
<linearGradient id="paint8_linear_1702_2638" x1="27.8281" y1="87.7656" x2="27.8281" y2="92.0469" gradientUnits="userSpaceOnUse">
<stop stop-color="#E34338"/>
<stop offset="1" stop-color="#D02C1C"/>
</linearGradient>
<linearGradient id="paint9_linear_1702_2638" x1="36.3906" y1="87.7656" x2="36.3906" y2="92.0469" gradientUnits="userSpaceOnUse">
<stop stop-color="#E34338"/>
<stop offset="1" stop-color="#D02C1C"/>
</linearGradient>
<linearGradient id="paint10_linear_1702_2638" x1="109.172" y1="57.7969" x2="109.172" y2="111.312" gradientUnits="userSpaceOnUse">
<stop stop-color="#E34338"/>
<stop offset="1" stop-color="#D02C1C"/>
</linearGradient>
<linearGradient id="paint11_linear_1702_2638" x1="100.609" y1="87.7656" x2="100.609" y2="92.0469" gradientUnits="userSpaceOnUse">
<stop stop-color="#E34338"/>
<stop offset="1" stop-color="#D02C1C"/>
</linearGradient>
<linearGradient id="paint12_linear_1702_2638" x1="109.172" y1="87.7656" x2="109.172" y2="92.0469" gradientUnits="userSpaceOnUse">
<stop stop-color="#E34338"/>
<stop offset="1" stop-color="#D02C1C"/>
</linearGradient>
<linearGradient id="paint13_linear_1702_2638" x1="117.734" y1="87.7656" x2="117.734" y2="92.0469" gradientUnits="userSpaceOnUse">
<stop stop-color="#E34338"/>
<stop offset="1" stop-color="#D02C1C"/>
</linearGradient>
<linearGradient id="paint14_linear_1702_2638" x1="68.5" y1="0" x2="68.5" y2="53.5156" gradientUnits="userSpaceOnUse">
<stop stop-color="#E34338"/>
<stop offset="1" stop-color="#D02C1C"/>
</linearGradient>
<linearGradient id="paint15_linear_1702_2638" x1="59.9375" y1="29.9688" x2="59.9375" y2="34.25" gradientUnits="userSpaceOnUse">
<stop stop-color="#E34338"/>
<stop offset="1" stop-color="#D02C1C"/>
</linearGradient>
<linearGradient id="paint16_linear_1702_2638" x1="68.5" y1="29.9688" x2="68.5" y2="34.25" gradientUnits="userSpaceOnUse">
<stop stop-color="#E34338"/>
<stop offset="1" stop-color="#D02C1C"/>
</linearGradient>
<linearGradient id="paint17_linear_1702_2638" x1="77.0625" y1="29.9688" x2="77.0625" y2="34.25" gradientUnits="userSpaceOnUse">
<stop stop-color="#E34338"/>
<stop offset="1" stop-color="#D02C1C"/>
</linearGradient>
</defs>
</svg>
