<svg width="117" height="126" viewBox="0 0 117 126" fill="none" xmlns="http://www.w3.org/2000/svg">
<path id="Vector" d="M103.22 0.000698823H13.7809C9.99197 0.000698823 6.54242 1.54847 4.04668 4.03898C1.55095 6.52949 0 9.97005 0 13.753V117.8C0 120.05 0.924286 122.1 2.41126 123.585C3.90847 125.078 5.96381 126 8.21938 126H86.5375C88.7995 126 90.8576 125.078 92.3438 123.594C93.8317 122.109 94.7569 120.057 94.7569 117.8L94.7439 51.5614H108.781C110.953 51.5614 112.942 50.7011 114.417 49.3087L114.587 49.1533C116.075 47.6685 117 45.6164 117 43.3591V13.7523C117 9.96935 115.449 6.52884 112.953 4.03828C110.458 1.54772 107.01 0 103.219 0L103.22 0.000698823ZM77.0738 67.4349C78.5414 67.4349 79.7326 66.2461 79.7326 64.7816C79.7326 63.3171 78.5414 62.1283 77.0738 62.1283H17.6873C16.2198 62.1283 15.0285 63.3171 15.0285 64.7816C15.0285 66.2461 16.2198 67.4349 17.6873 67.4349H77.0738ZM22.1135 101.518C19.6697 101.518 17.6869 103.497 17.6869 105.938C17.6869 108.377 19.6698 110.356 22.1135 110.356C24.5571 110.356 26.542 108.377 26.542 105.938C26.542 103.496 24.5581 101.518 22.1135 101.518ZM33.8399 89.0359C31.3925 89.0359 29.4104 91.0148 29.4104 93.4534C29.4104 95.8919 31.3934 97.8727 33.8399 97.8727C36.2827 97.8727 38.2648 95.8929 38.2648 93.4534C38.2648 91.0147 36.2818 89.0359 33.8399 89.0359ZM24.1799 90.7493C23.2612 89.6132 21.5942 89.4319 20.4522 90.3487C19.3138 91.2618 19.1321 92.929 20.0508 94.0658L31.7736 108.642C32.6905 109.778 34.36 109.962 35.5003 109.047C36.6388 108.132 36.8223 106.466 35.9055 105.328L24.181 90.7501L24.1799 90.7493ZM64.7606 82.929C66.2281 82.929 67.4193 81.7402 67.4193 80.2757C67.4193 78.8112 66.2281 77.6224 64.7606 77.6224H17.6866C16.2191 77.6224 15.0278 78.8112 15.0278 80.2757C15.0278 81.7402 16.2191 82.929 17.6866 82.929H64.7606ZM64.7606 20.9491C66.2281 20.9491 67.4193 19.7603 67.4193 18.2959C67.4193 16.8314 66.2281 15.6426 64.7606 15.6426H17.6866C16.2191 15.6426 15.0278 16.8314 15.0278 18.2959C15.0278 19.7603 16.2191 20.9491 17.6866 20.9491H64.7606ZM77.0738 51.9367C78.5414 51.9367 79.7326 50.7479 79.7326 49.2834C79.7326 47.8189 78.5414 46.6301 77.0738 46.6301H17.6873C16.2198 46.6301 15.0285 47.8189 15.0285 49.2834C15.0285 50.7479 16.2198 51.9367 17.6873 51.9367H77.0738ZM77.0738 36.4443C78.5414 36.4443 79.7326 35.2555 79.7326 33.791C79.7326 32.3266 78.5414 31.1378 77.0738 31.1378H17.6873C16.2198 31.1378 15.0285 32.3266 15.0285 33.791C15.0285 35.2555 16.2198 36.4443 17.6873 36.4443H77.0738ZM13.7809 5.3052H92.3672C90.5335 7.64118 89.4367 10.5748 89.4367 13.7472L89.4497 117.796C89.4386 118.59 89.1122 119.315 88.5866 119.841C88.0638 120.362 87.3342 120.69 86.5378 120.69H8.21967C7.41869 120.69 6.68907 120.365 6.16529 119.845C5.64429 119.322 5.3189 118.595 5.3189 117.796V13.7496C5.3189 11.4284 6.27191 9.31624 7.80538 7.78605C9.33873 6.25588 11.4558 5.3052 13.7809 5.3052ZM102.788 5.3052H103.217C105.546 5.3052 107.662 6.25623 109.196 7.78652C110.729 9.31669 111.683 11.4288 111.683 13.75V43.3568C111.683 44.1506 111.356 44.8759 110.831 45.4014L110.735 45.5032C110.225 45.9666 109.535 46.2516 108.783 46.2516H94.746V13.7507C94.7571 11.4212 95.7064 9.31001 97.2341 7.78716C98.6859 6.34765 100.641 5.41438 102.788 5.3052Z" fill="url(#paint0_linear_1702_1039)"/>
<defs>
<linearGradient id="paint0_linear_1702_1039" x1="58.5" y1="0" x2="58.5" y2="126" gradientUnits="userSpaceOnUse">
<stop stop-color="#E34338"/>
<stop offset="1" stop-color="#D02C1C"/>
</linearGradient>
</defs>
</svg>
