<svg width="30" height="32" viewBox="0 0 30 32" fill="none" xmlns="http://www.w3.org/2000/svg">
<g id="Group 281">
<path id="Vector" d="M2.36535 20.9107H0.0752531C0.0399561 20.9107 0.00976562 20.9406 0.00976562 20.9754V30.6643C0.00976562 30.6992 0.0399538 30.7291 0.0752531 30.7291H2.36517C2.40047 30.7291 2.43066 30.6992 2.43066 30.6643V29.8165L2.43089 22.4514V20.9755C2.436 20.9406 2.40558 20.9108 2.36541 20.9108L2.36535 20.9107Z" fill="url(#paint0_linear_1601_3140)"/>
<path id="Vector_2" d="M27.1462 24.7649C26.7881 24.5755 26.3745 24.5454 26.0062 24.6751L18.4807 27.343C18.1124 27.5425 17.6889 27.6571 17.2449 27.6571H11.076C10.7985 27.6571 10.5716 27.4328 10.5716 27.1584C10.5716 26.8841 10.7985 26.6598 11.076 26.6598H17.2449C17.5073 26.6598 17.7595 26.5951 17.9764 26.4803C18.0017 26.4603 18.0319 26.4454 18.0621 26.4355C18.3951 26.236 18.6319 25.9118 18.6925 25.5379C18.758 25.1341 18.6521 24.7402 18.3848 24.4309C18.1224 24.1267 17.7441 23.9523 17.3408 23.9523H13.9462C12.9625 23.9523 11.9791 23.6033 11.177 22.9699C9.84041 21.9178 7.08121 20.5066 3.43457 22.7206V29.2882C4.34251 29.2882 6.28942 29.4427 9.02847 30.5049C11.5706 31.4872 14.2742 31.7166 16.847 31.158C19.4901 30.5896 23.4297 29.4326 27.2123 27.1437C27.52 26.9591 27.7469 26.64 27.8328 26.281C27.9889 25.6827 27.7014 25.0594 27.1466 24.7651L27.1462 24.7649Z" fill="url(#paint1_linear_1601_3140)"/>
<path id="Vector_3" d="M8.49414 13.3957H11.5206V19.3797H8.49414V13.3957Z" fill="url(#paint2_linear_1601_3140)"/>
<path id="Vector_4" d="M13.543 15.8888H16.5694V19.3744H13.543V15.8888Z" fill="url(#paint3_linear_1601_3140)"/>
<path id="Vector_5" d="M18.5869 10.8974H21.6134V19.3745H18.5869V10.8974Z" fill="url(#paint4_linear_1601_3140)"/>
<path id="Vector_6" d="M23.6357 8.40439H26.6622V19.375H23.6357V8.40439Z" fill="url(#paint5_linear_1601_3140)"/>
<path id="Vector_7" d="M29.7446 0.71981C29.5479 0.525363 29.23 0.525363 29.0333 0.71981L26.5618 3.16313C26.2945 3.00358 25.9868 2.90876 25.6589 2.90876C24.8215 2.90876 24.1205 3.48728 23.944 4.26506H22.0725C21.891 3.49212 21.195 2.90876 20.3576 2.90876C19.3842 2.90876 18.5923 3.69158 18.5923 4.65395C18.5923 4.91818 18.6578 5.1675 18.7639 5.39204L15.808 8.31428C15.5811 8.20959 15.3287 8.14462 15.0614 8.14462C14.7235 8.14462 14.4107 8.24426 14.1384 8.40886L11.5659 5.86569C11.6971 5.62143 11.7777 5.34709 11.7777 5.05278C11.7777 4.09042 10.9858 3.3076 10.0124 3.3076C9.03891 3.3076 8.24707 4.09042 8.24707 5.05278C8.24707 6.01515 9.03891 6.79797 10.0124 6.79797C10.3201 6.79797 10.6076 6.71326 10.8597 6.57368L13.4675 9.15175C13.3616 9.37604 13.2959 9.62559 13.2959 9.88985C13.2959 10.8522 14.0878 11.635 15.0612 11.635C16.0347 11.635 16.8265 10.8522 16.8265 9.88985C16.8265 9.55582 16.7257 9.24661 16.5592 8.97732L19.4343 6.13501C19.7016 6.29962 20.0195 6.39925 20.3573 6.39925C21.1139 6.39925 21.7546 5.92542 22.0068 5.2624H24.0143C24.2665 5.92562 24.9072 6.39925 25.6637 6.39925C26.6372 6.39925 27.429 5.61643 27.429 4.65407C27.429 4.38478 27.3584 4.13041 27.2474 3.9011L29.7494 1.4277C29.9412 1.22866 29.9412 0.914375 29.7445 0.719928L29.7446 0.71981Z" fill="url(#paint6_linear_1601_3140)"/>
</g>
<defs>
<linearGradient id="paint0_linear_1601_3140" x1="1.22061" y1="20.9107" x2="1.22061" y2="30.7291" gradientUnits="userSpaceOnUse">
<stop stop-color="#E34338"/>
<stop offset="1" stop-color="#D02C1C"/>
</linearGradient>
<linearGradient id="paint1_linear_1601_3140" x1="15.6548" y1="21.548" x2="15.6548" y2="31.4566" gradientUnits="userSpaceOnUse">
<stop stop-color="#E34338"/>
<stop offset="1" stop-color="#D02C1C"/>
</linearGradient>
<linearGradient id="paint2_linear_1601_3140" x1="10.0074" y1="13.3957" x2="10.0074" y2="19.3797" gradientUnits="userSpaceOnUse">
<stop stop-color="#E34338"/>
<stop offset="1" stop-color="#D02C1C"/>
</linearGradient>
<linearGradient id="paint3_linear_1601_3140" x1="15.0562" y1="15.8888" x2="15.0562" y2="19.3744" gradientUnits="userSpaceOnUse">
<stop stop-color="#E34338"/>
<stop offset="1" stop-color="#D02C1C"/>
</linearGradient>
<linearGradient id="paint4_linear_1601_3140" x1="20.1002" y1="10.8974" x2="20.1002" y2="19.3745" gradientUnits="userSpaceOnUse">
<stop stop-color="#E34338"/>
<stop offset="1" stop-color="#D02C1C"/>
</linearGradient>
<linearGradient id="paint5_linear_1601_3140" x1="25.149" y1="8.40439" x2="25.149" y2="19.375" gradientUnits="userSpaceOnUse">
<stop stop-color="#E34338"/>
<stop offset="1" stop-color="#D02C1C"/>
</linearGradient>
<linearGradient id="paint6_linear_1601_3140" x1="19.0698" y1="0.573975" x2="19.0698" y2="11.635" gradientUnits="userSpaceOnUse">
<stop stop-color="#E34338"/>
<stop offset="1" stop-color="#D02C1C"/>
</linearGradient>
</defs>
</svg>
