<svg width="27" height="27" viewBox="0 0 27 27" fill="none" xmlns="http://www.w3.org/2000/svg">
<g id="icon/instagram">
<path id="vector" fill-rule="evenodd" clip-rule="evenodd" d="M13.5 3.375C10.7501 3.375 10.4058 3.38648 9.3258 3.43575C8.24783 3.48503 7.5114 3.65648 6.86745 3.9069C6.19245 4.1607 5.58022 4.55895 5.07397 5.07465C4.5591 5.58032 4.1606 6.19211 3.90623 6.86745C3.65715 7.5114 3.48503 8.2485 3.43575 9.32648C3.38715 10.4058 3.375 10.7494 3.375 13.5C3.375 16.2506 3.38648 16.5942 3.43575 17.6742C3.48503 18.7522 3.65648 19.4886 3.9069 20.1326C4.1607 20.8076 4.55895 21.4198 5.07465 21.926C5.58033 22.4409 6.19212 22.8394 6.86745 23.0938C7.5114 23.3435 8.24783 23.515 9.3258 23.5643C10.4058 23.6135 10.7501 23.625 13.5 23.625C16.25 23.625 16.5942 23.6135 17.6742 23.5643C18.7522 23.515 19.4886 23.3435 20.1326 23.0931C20.8076 22.8393 21.4198 22.4411 21.926 21.9254C22.4409 21.4197 22.8394 20.8079 23.0938 20.1326C23.3435 19.4886 23.515 18.7522 23.5643 17.6742C23.6135 16.5942 23.625 16.25 23.625 13.5C23.625 10.7501 23.6135 10.4058 23.5643 9.3258C23.515 8.24783 23.3435 7.5114 23.0931 6.86745C22.8389 6.19182 22.4404 5.57977 21.9254 5.07397C21.4197 4.5591 20.8079 4.1606 20.1326 3.90623C19.4886 3.65715 18.7515 3.48503 17.6735 3.43575C16.5942 3.38715 16.2506 3.375 13.5 3.375ZM13.5 5.19953C16.2034 5.19953 16.524 5.20965 17.5919 5.25825C18.5787 5.30348 19.1147 5.4675 19.4717 5.60722C19.9442 5.79015 20.2817 6.0102 20.6361 6.3639C20.9905 6.71828 21.2099 7.05577 21.3928 7.52828C21.5318 7.88535 21.6965 8.4213 21.7417 9.40815C21.7903 10.476 21.8005 10.7966 21.8005 13.5C21.8005 16.2034 21.7903 16.524 21.7417 17.5919C21.6965 18.5787 21.5325 19.1147 21.3928 19.4717C21.2307 19.9115 20.9722 20.3094 20.6361 20.6361C20.3095 20.9722 19.9116 21.2308 19.4717 21.3928C19.1147 21.5318 18.5787 21.6965 17.5919 21.7417C16.524 21.7903 16.2041 21.8005 13.5 21.8005C10.7959 21.8005 10.476 21.7903 9.40815 21.7417C8.4213 21.6965 7.88535 21.5325 7.52828 21.3928C7.08848 21.2307 6.6906 20.9722 6.3639 20.6361C6.02787 20.3094 5.76931 19.9115 5.60722 19.4717C5.46817 19.1147 5.30348 18.5787 5.25825 17.5919C5.20965 16.524 5.19953 16.2034 5.19953 13.5C5.19953 10.7966 5.20965 10.476 5.25825 9.40815C5.30348 8.4213 5.4675 7.88535 5.60722 7.52828C5.79015 7.05577 6.0102 6.71828 6.3639 6.3639C6.69056 6.02778 7.08845 5.76921 7.52828 5.60722C7.88535 5.46817 8.4213 5.30348 9.40815 5.25825C10.476 5.20965 10.7966 5.19953 13.5 5.19953Z" fill="url(#paint0_linear_1644_1811)"/>
<path id="vector_2" fill-rule="evenodd" clip-rule="evenodd" d="M13.5001 16.8785C13.0565 16.8785 12.6172 16.7911 12.2073 16.6213C11.7974 16.4516 11.425 16.2027 11.1113 15.889C10.7976 15.5753 10.5487 15.2029 10.3789 14.793C10.2092 14.3831 10.1218 13.9438 10.1218 13.5001C10.1218 13.0565 10.2092 12.6172 10.3789 12.2073C10.5487 11.7974 10.7976 11.425 11.1113 11.1113C11.425 10.7975 11.7974 10.5487 12.2073 10.3789C12.6172 10.2091 13.0565 10.1218 13.5001 10.1218C14.3961 10.1218 15.2555 10.4777 15.889 11.1113C16.5226 11.7448 16.8785 12.6041 16.8785 13.5001C16.8785 14.3961 16.5226 15.2554 15.889 15.889C15.2555 16.5226 14.3961 16.8785 13.5001 16.8785ZM13.5001 8.29588C12.1199 8.29588 10.7962 8.84418 9.82019 9.82017C8.8442 10.7962 8.2959 12.1199 8.2959 13.5001C8.2959 14.8804 8.8442 16.2041 9.82019 17.1801C10.7962 18.1561 12.1199 18.7044 13.5001 18.7044C14.8804 18.7044 16.2041 18.1561 17.1801 17.1801C18.1561 16.2041 18.7044 14.8804 18.7044 13.5001C18.7044 12.1199 18.1561 10.7962 17.1801 9.82017C16.2041 8.84418 14.8804 8.29588 13.5001 8.29588ZM20.2184 8.20138C20.2184 8.52764 20.0888 8.84055 19.8581 9.07125C19.6274 9.30196 19.3145 9.43157 18.9882 9.43157C18.662 9.43157 18.3491 9.30196 18.1184 9.07125C17.8877 8.84055 17.758 8.52764 17.758 8.20138C17.758 7.87511 17.8877 7.56221 18.1184 7.33151C18.3491 7.1008 18.662 6.97119 18.9882 6.97119C19.3145 6.97119 19.6274 7.1008 19.8581 7.33151C20.0888 7.56221 20.2184 7.87511 20.2184 8.20138Z" fill="url(#paint1_linear_1644_1811)"/>
</g>
<defs>
<linearGradient id="paint0_linear_1644_1811" x1="13.5" y1="3.375" x2="13.5" y2="23.625" gradientUnits="userSpaceOnUse">
<stop stop-color="#FF6251"/>
<stop offset="1" stop-color="#FF4358"/>
</linearGradient>
<linearGradient id="paint1_linear_1644_1811" x1="14.2572" y1="6.97119" x2="14.2572" y2="18.7044" gradientUnits="userSpaceOnUse">
<stop stop-color="#FF6251"/>
<stop offset="1" stop-color="#FF4358"/>
</linearGradient>
</defs>
</svg>
