<svg width="90" height="122" viewBox="0 0 90 122" fill="none" xmlns="http://www.w3.org/2000/svg">
<path d="M35.8991 43.3326C37.1815 42.5635 37.566 40.8965 36.7969 39.6151C36.0278 38.3327 34.3608 37.9482 33.0795 38.7173C32.5671 39.1018 27.695 42.0503 27.3106 47.1789C27.0539 50.5119 28.7209 53.717 32.3105 56.6661C32.8229 57.0507 33.4641 57.3073 33.9774 57.3073C34.7465 57.3073 35.5156 56.9228 36.0289 56.2816C36.9267 55.128 36.7979 53.3332 35.6443 52.4353C34.234 51.2817 32.4393 49.4868 32.5672 47.5633C32.9509 45.5119 35.0024 43.845 35.8994 43.3326L35.8991 43.3326Z" fill="url(#paint0_linear_246_2174)"/>
<path d="M56.9243 38.589C55.6419 37.8199 53.9758 38.2044 53.2068 39.4868C52.4378 40.7692 52.8223 42.4353 54.1047 43.2043C54.8738 43.7167 57.0531 45.3836 57.1818 47.4349C57.3097 49.2297 55.6436 51.0246 54.1047 52.3069C52.9511 53.2047 52.8223 54.9996 53.7201 56.1532C54.2326 56.7944 55.0025 57.1789 55.7716 57.1789C56.4128 57.1789 57.054 56.9223 57.4385 56.5377C61.0282 53.5893 62.6951 50.3842 62.4384 47.0505C62.3096 41.9228 57.4375 38.9736 56.9243 38.589Z" fill="url(#paint1_linear_246_2174)"/>
<path d="M89.1032 67.9475C88.7187 66.4093 87.4363 65.2548 85.8982 64.9991C86.9239 62.9476 87.693 60.6404 87.693 58.3323C87.693 52.5634 84.4879 47.4346 79.488 45.1274C78.4622 36.6658 71.5396 29.9999 63.206 29.6144C59.3597 23.7166 51.1547 21.4094 45.0012 24.7425C38.8477 21.5374 30.7707 23.7167 26.7964 29.6144C18.4637 29.8711 11.54 36.6658 10.5144 45.1274C5.51451 47.5635 2.30944 52.5632 2.30944 58.3323C2.30944 60.7684 3.07852 62.9476 4.10424 64.9991C2.56608 65.2557 1.28377 66.2815 0.899165 67.9475C-0.638994 75.6401 -0.383229 83.9729 3.0785 92.6906C9.10403 107.819 22.6935 119.229 38.7189 121.408C66.2825 125.125 90 103.716 90 76.9217C90 73.8446 89.6155 70.8962 89.103 67.9477L89.1032 67.9475ZM10.5149 64.9991C8.72013 63.2034 7.82312 60.8961 7.82312 58.3323C7.82312 55.2552 9.2334 52.5634 11.5405 50.8965C13.0787 54.7428 16.0281 58.8449 22.3094 61.2807C22.6939 61.4086 22.9506 61.4086 23.3351 61.4086C24.4887 61.4086 25.5144 60.7674 25.8989 59.6138C26.4113 58.2035 25.771 56.6654 24.3608 56.0241C19.7455 54.2293 16.925 50.8965 16.028 46.4089C16.4126 39.9988 21.4126 34.9989 27.4381 34.9989L28.2072 35.1268C29.3608 35.1268 30.3865 34.6143 30.8999 33.5886C33.0792 29.2299 38.3356 27.4351 42.3099 29.3579V64.8701H10.5156L10.5149 64.9991ZM24.4888 81.7934C24.4888 78.3317 27.3093 75.5112 30.771 75.5112C34.2327 75.5112 37.0531 78.3317 37.0531 81.7934C37.0531 85.2551 34.2327 88.0756 30.771 88.0756C27.3093 88.0747 24.4888 85.2542 24.4888 81.7934ZM56.9241 99.9982C55.1293 104.998 50.2573 108.331 45.0017 108.331C39.6172 108.331 34.8741 104.998 33.0793 99.9982C32.5669 98.46 33.336 96.7931 34.8741 96.2808C36.4122 95.7684 38.0792 96.5374 38.5915 98.0756C39.4894 100.768 42.0532 102.563 45.0017 102.563C47.8221 102.563 50.5139 100.768 51.4118 98.0756C51.9242 96.5374 53.719 95.7684 55.1292 96.4087C56.6683 96.7932 57.4374 98.4591 56.9241 99.9982ZM59.2322 88.0749C55.7705 88.0749 52.9501 85.2544 52.9501 81.7927C52.9501 78.331 55.7705 75.5106 59.2322 75.5106C62.6939 75.5106 65.5144 78.331 65.5144 81.7927C65.5144 85.2544 62.6939 88.0749 59.2322 88.0749ZM79.4883 64.9984H47.694V29.4862C51.7969 27.4348 57.0525 29.3583 59.104 33.7169C59.6164 34.7426 61.2833 35.1272 62.4371 35.1272C68.4626 35.1272 73.5905 40.2548 73.9749 46.5372C73.077 51.1525 70.3852 54.3576 65.6421 56.2804C64.2318 56.7928 63.5907 58.4597 64.104 59.8701C64.4885 60.8958 65.5142 61.6649 66.6678 61.6649C67.0523 61.6649 67.309 61.6649 67.6935 61.537C73.847 59.1009 76.9241 54.9989 78.4623 51.1528C80.7695 52.8197 82.1798 55.6404 82.1798 58.5886C82.1798 60.8958 81.2828 63.2029 79.488 64.9987L79.4883 64.9984Z" fill="url(#paint2_linear_246_2174)"/>
<path d="M27.4377 16.9232C27.8223 17.949 28.848 18.5901 30.0016 18.5901C30.3861 18.5901 30.6428 18.4623 31.0273 18.3335C32.4376 17.8211 33.0787 16.1541 32.5655 14.7438L28.7191 5.38523C28.2067 3.97495 26.5398 3.33378 25.1295 3.84707C23.7192 4.35949 23.078 6.0264 23.5913 7.43675L27.4377 16.9232Z" fill="url(#paint3_linear_246_2174)"/>
<path d="M15.2586 26.2815C15.771 26.7939 16.541 27.0505 17.1813 27.0505C17.8225 27.0505 18.5915 26.7939 19.1039 26.2815C20.1297 25.2557 20.1297 23.461 19.1039 22.4352L11.9248 15.256C10.8991 14.2303 9.10436 14.2303 8.07851 15.256C7.05277 16.2818 7.05277 18.0765 8.07851 19.1023L15.2586 26.2815Z" fill="url(#paint4_linear_246_2174)"/>
<path d="M72.8215 27.1789C73.4627 27.1789 74.2318 26.9222 74.7442 26.4098L81.9233 19.2307C82.9491 18.2049 82.9491 16.4102 81.9233 15.3843C80.8976 14.3586 79.1029 14.3586 78.077 15.3843L70.8988 22.4357C69.8731 23.4615 69.8731 25.2562 70.8988 26.282C71.4112 26.9232 72.0525 27.1789 72.8215 27.1789Z" fill="url(#paint5_linear_246_2174)"/>
<path d="M58.9757 18.4614C59.3602 18.5893 59.6169 18.7181 60.0014 18.7181C61.0271 18.7181 62.0528 18.0769 62.5652 17.0512L66.4115 7.6926C66.924 6.28232 66.2836 4.74417 64.8734 4.10292C63.4631 3.5905 61.9249 4.2308 61.2837 5.64108L57.4374 14.9997C56.9241 16.2821 57.5654 17.8202 58.9757 18.4614Z" fill="url(#paint6_linear_246_2174)"/>
<path d="M45.0014 15.6409C46.5396 15.6409 47.6941 14.3585 47.6941 12.9482V2.69262C47.6941 1.15447 46.4118 -9.15527e-05 45.0014 -9.15527e-05C43.5911 -9.15527e-05 42.3087 1.2823 42.3087 2.69262V12.8202C42.3087 14.3583 43.4632 15.6409 45.0014 15.6409Z" fill="url(#paint7_linear_246_2174)"/>
<defs>
<linearGradient id="paint0_linear_246_2174" x1="32.2382" y1="38.3227" x2="32.2382" y2="57.3073" gradientUnits="userSpaceOnUse">
<stop stop-color="#E34338"/>
<stop offset="0.520833" stop-color="#CC3F31"/>
<stop offset="1" stop-color="#D02C1C"/>
</linearGradient>
<linearGradient id="paint1_linear_246_2174" x1="57.6382" y1="38.1944" x2="57.6382" y2="57.1789" gradientUnits="userSpaceOnUse">
<stop stop-color="#E34338"/>
<stop offset="0.520833" stop-color="#CC3F31"/>
<stop offset="1" stop-color="#D02C1C"/>
</linearGradient>
<linearGradient id="paint2_linear_246_2174" x1="45" y1="23.2076" x2="45" y2="121.829" gradientUnits="userSpaceOnUse">
<stop stop-color="#E34338"/>
<stop offset="0.520833" stop-color="#CC3F31"/>
<stop offset="1" stop-color="#D02C1C"/>
</linearGradient>
<linearGradient id="paint3_linear_246_2174" x1="28.0784" y1="3.67142" x2="28.0784" y2="18.5901" gradientUnits="userSpaceOnUse">
<stop stop-color="#E34338"/>
<stop offset="0.520833" stop-color="#CC3F31"/>
<stop offset="1" stop-color="#D02C1C"/>
</linearGradient>
<linearGradient id="paint4_linear_246_2174" x1="13.5912" y1="14.4867" x2="13.5912" y2="27.0505" gradientUnits="userSpaceOnUse">
<stop stop-color="#E34338"/>
<stop offset="0.520833" stop-color="#CC3F31"/>
<stop offset="1" stop-color="#D02C1C"/>
</linearGradient>
<linearGradient id="paint5_linear_246_2174" x1="76.4111" y1="14.615" x2="76.4111" y2="27.179" gradientUnits="userSpaceOnUse">
<stop stop-color="#E34338"/>
<stop offset="0.520833" stop-color="#CC3F31"/>
<stop offset="1" stop-color="#D02C1C"/>
</linearGradient>
<linearGradient id="paint6_linear_246_2174" x1="61.9243" y1="3.92763" x2="61.9243" y2="18.7181" gradientUnits="userSpaceOnUse">
<stop stop-color="#E34338"/>
<stop offset="0.520833" stop-color="#CC3F31"/>
<stop offset="1" stop-color="#D02C1C"/>
</linearGradient>
<linearGradient id="paint7_linear_246_2174" x1="45.0014" y1="-9.15527e-05" x2="45.0014" y2="15.6409" gradientUnits="userSpaceOnUse">
<stop stop-color="#E34338"/>
<stop offset="0.520833" stop-color="#CC3F31"/>
<stop offset="1" stop-color="#D02C1C"/>
</linearGradient>
</defs>
</svg>
