<svg width="132" height="132" viewBox="0 0 132 132" fill="none" xmlns="http://www.w3.org/2000/svg">
<g id="Group 421">
<path id="Vector" d="M17.0322 106.452H21.2903V110.71H17.0322V106.452Z" fill="url(#paint0_linear_1702_1453)"/>
<path id="Vector_2" d="M8.51636 106.452H12.7744V110.71H8.51636V106.452Z" fill="url(#paint1_linear_1702_1453)"/>
<path id="Vector_3" d="M25.5483 106.452H29.8064V110.71H25.5483V106.452Z" fill="url(#paint2_linear_1702_1453)"/>
<path id="Vector_4" d="M121.355 29.8065H119.226V0H12.7742V25.5484H17.0323V21.2903H114.968V34.0645H121.355C124.876 34.0645 127.742 36.9301 127.742 40.4516V102.194H43.0843L34.5682 97.9355H4.25806V40.4516C4.25806 36.9301 7.12362 34.0645 10.6452 34.0645H12.7742V93.6774H119.226V38.3226H114.968V89.4194H17.0323V29.8065H10.6452C4.77512 29.8065 0 34.5816 0 40.4516V108.581C0 114.451 4.77512 119.226 10.6452 119.226H38.3226V127.742H29.8065V132H102.194V127.742H93.6774V119.226H121.355C127.225 119.226 132 114.451 132 108.581V40.4516C132 34.5816 127.225 29.8065 121.355 29.8065ZM17.0323 17.0323V4.25806H114.968V17.0323H17.0323ZM89.4194 127.742H42.5806V119.226H89.4194V127.742ZM121.355 114.968H10.6452C7.12362 114.968 4.25806 112.102 4.25806 108.581V102.194H33.5608L42.077 106.452H127.742V108.581C127.742 112.102 124.876 114.968 121.355 114.968Z" fill="url(#paint3_linear_1702_1453)"/>
<path id="Vector_5" d="M21.2903 8.51611H25.5483V12.7742H21.2903V8.51611Z" fill="url(#paint4_linear_1702_1453)"/>
<path id="Vector_6" d="M29.8066 8.51611H34.0647V12.7742H29.8066V8.51611Z" fill="url(#paint5_linear_1702_1453)"/>
<path id="Vector_7" d="M38.3225 8.51611H42.5806V12.7742H38.3225V8.51611Z" fill="url(#paint6_linear_1702_1453)"/>
<path id="Vector_8" d="M97.9355 85.1613V57.6056C100.503 55.7256 102.194 52.7127 102.194 49.2958V48.1695C102.194 47.0584 102.015 45.9578 101.663 44.9056L95.2124 25.5485H36.7869L30.336 44.9037C29.9844 45.9549 29.8057 47.0555 29.8057 48.1675V49.2938C29.8057 52.7127 31.4965 55.7257 34.0637 57.6036V85.1618L97.9355 85.1613ZM70.2581 80.9033H61.742V68.1291H70.2581V80.9033ZM93.6775 80.9033H74.5162V63.871H57.4839V80.9033H38.3226V59.4295C38.91 59.534 39.5088 59.6129 40.1257 59.6129C43.6109 59.6129 46.7446 57.8289 48.6228 55.0821C50.4819 57.8138 53.6108 59.6129 57.1579 59.6129C60.8515 59.6129 64.1752 57.6284 66.0001 54.5974C67.8269 57.6314 71.1477 59.6129 74.8423 59.6129C78.3874 59.6129 81.5192 57.8137 83.3774 55.0821C85.2574 57.8289 88.3892 59.6129 91.8745 59.6129C92.4923 59.6129 93.0902 59.534 93.6776 59.4295L93.6775 80.9033ZM92.1425 29.8065L97.6247 46.2514C97.8309 46.8692 97.9355 47.5136 97.9355 48.1675V49.2938C97.9355 52.6365 95.2171 55.3549 91.8744 55.3549C88.9935 55.3549 86.4985 53.3066 85.9321 50.4819L85.1613 46.9414V46.8388H85.1403L81.4317 29.8065L92.1425 29.8065ZM80.9034 47.0687V49.2937C80.9034 52.6364 78.185 55.3548 74.8423 55.3548C71.9614 55.3548 69.4664 53.3065 68.9 50.4818L68.1292 46.6277V29.8064H77.0672L80.9034 47.0687ZM63.8711 29.8065V46.6278L63.1003 50.4839C62.5338 53.3069 60.0369 55.3551 57.158 55.3551C53.8153 55.3551 51.0969 52.6368 51.0969 49.2941V47.3989L54.9331 29.8067L63.8711 29.8065ZM34.0647 48.1675C34.0647 47.5136 34.1692 46.8692 34.3754 46.2514L39.8576 29.8065H50.5712L46.8815 46.4215L46.0679 50.4837C45.5014 53.3066 43.0045 55.3549 40.1256 55.3549C36.7829 55.3549 34.0645 52.6365 34.0645 49.2938L34.0647 48.1675Z" fill="url(#paint7_linear_1702_1453)"/>
</g>
<defs>
<linearGradient id="paint0_linear_1702_1453" x1="19.1613" y1="106.452" x2="19.1613" y2="110.71" gradientUnits="userSpaceOnUse">
<stop stop-color="#E34338"/>
<stop offset="1" stop-color="#D02C1C"/>
</linearGradient>
<linearGradient id="paint1_linear_1702_1453" x1="10.6454" y1="106.452" x2="10.6454" y2="110.71" gradientUnits="userSpaceOnUse">
<stop stop-color="#E34338"/>
<stop offset="1" stop-color="#D02C1C"/>
</linearGradient>
<linearGradient id="paint2_linear_1702_1453" x1="27.6774" y1="106.452" x2="27.6774" y2="110.71" gradientUnits="userSpaceOnUse">
<stop stop-color="#E34338"/>
<stop offset="1" stop-color="#D02C1C"/>
</linearGradient>
<linearGradient id="paint3_linear_1702_1453" x1="66" y1="0" x2="66" y2="132" gradientUnits="userSpaceOnUse">
<stop stop-color="#E34338"/>
<stop offset="1" stop-color="#D02C1C"/>
</linearGradient>
<linearGradient id="paint4_linear_1702_1453" x1="23.4193" y1="8.51611" x2="23.4193" y2="12.7742" gradientUnits="userSpaceOnUse">
<stop stop-color="#E34338"/>
<stop offset="1" stop-color="#D02C1C"/>
</linearGradient>
<linearGradient id="paint5_linear_1702_1453" x1="31.9357" y1="8.51611" x2="31.9357" y2="12.7742" gradientUnits="userSpaceOnUse">
<stop stop-color="#E34338"/>
<stop offset="1" stop-color="#D02C1C"/>
</linearGradient>
<linearGradient id="paint6_linear_1702_1453" x1="40.4515" y1="8.51611" x2="40.4515" y2="12.7742" gradientUnits="userSpaceOnUse">
<stop stop-color="#E34338"/>
<stop offset="1" stop-color="#D02C1C"/>
</linearGradient>
<linearGradient id="paint7_linear_1702_1453" x1="65.9996" y1="25.5485" x2="65.9996" y2="85.1618" gradientUnits="userSpaceOnUse">
<stop stop-color="#E34338"/>
<stop offset="1" stop-color="#D02C1C"/>
</linearGradient>
</defs>
</svg>
