<svg width="111" height="97" viewBox="0 0 111 97" fill="none" xmlns="http://www.w3.org/2000/svg">
<g id="Group 374">
<path id="Vector" d="M90.9386 57.3214H57.332V96.8589H90.9386C101.839 96.8589 110.708 87.9906 110.708 77.0893C110.708 66.1887 101.84 57.3197 90.9386 57.3197V57.3214Z" fill="url(#paint0_linear_482_2791)"/>
<path id="Vector_2" d="M28.5528 57.3215H19.7696C8.86899 57.3215 0 66.1898 0 77.0911C0 87.9917 8.8683 96.8607 19.7696 96.8607H53.3762V57.3233L28.5528 57.3215ZM29.6541 88.9529H19.7696C13.2282 88.9529 7.90822 83.6329 7.90822 77.0915C7.90822 76.0003 8.79397 75.1145 9.88518 75.1145C10.9763 75.1145 11.8621 76.0003 11.8621 77.0915C11.8621 81.4527 15.4086 84.9991 19.7698 84.9991H29.6542C30.7454 84.9991 31.6312 85.8849 31.6312 86.9761C31.6312 88.0673 30.7454 88.9531 29.6542 88.9531L29.6541 88.9529Z" fill="url(#paint1_linear_482_2791)"/>
<path id="Vector_3" d="M9.74262 33.7398L29.3704 53.3676H37.6435L61.4656 29.5455L37.7023 5.78046C29.996 -1.92777 17.4536 -1.92587 9.74296 5.78046C2.03732 13.4887 2.03732 26.0292 9.74364 33.7381L9.74262 33.7398ZM15.3355 11.3723C16.1085 10.5994 17.3576 10.5994 18.1306 11.3723C18.9035 12.1432 18.9035 13.3944 18.1306 14.1674C15.0463 17.2517 15.0463 22.269 18.1306 25.3505L25.1207 32.3406C25.8936 33.1135 25.8936 34.3627 25.1207 35.1356C24.7349 35.5214 24.2289 35.7147 23.7228 35.7147C23.2168 35.7147 22.7107 35.5207 22.3249 35.1356L15.3348 28.1455C10.7116 23.5241 10.7116 15.9984 15.3355 11.3722L15.3355 11.3723Z" fill="url(#paint2_linear_482_2791)"/>
<path id="Vector_4" d="M64.2609 32.3423L43.2338 53.3693H85.2862L64.2609 32.3423Z" fill="url(#paint3_linear_482_2791)"/>
</g>
<defs>
<linearGradient id="paint0_linear_482_2791" x1="84.0201" y1="57.3197" x2="84.0201" y2="96.8589" gradientUnits="userSpaceOnUse">
<stop stop-color="#E34338"/>
<stop offset="1" stop-color="#D02C1C"/>
</linearGradient>
<linearGradient id="paint1_linear_482_2791" x1="26.6881" y1="57.3215" x2="26.6881" y2="96.8607" gradientUnits="userSpaceOnUse">
<stop stop-color="#E34338"/>
<stop offset="1" stop-color="#D02C1C"/>
</linearGradient>
<linearGradient id="paint2_linear_482_2791" x1="32.7147" y1="0" x2="32.7147" y2="53.3676" gradientUnits="userSpaceOnUse">
<stop stop-color="#E34338"/>
<stop offset="1" stop-color="#D02C1C"/>
</linearGradient>
<linearGradient id="paint3_linear_482_2791" x1="64.26" y1="32.3423" x2="64.26" y2="53.3693" gradientUnits="userSpaceOnUse">
<stop stop-color="#E34338"/>
<stop offset="1" stop-color="#D02C1C"/>
</linearGradient>
</defs>
</svg>
