<svg width="21" height="21" viewBox="0 0 21 21" fill="none" xmlns="http://www.w3.org/2000/svg">
<path id="vector" d="M20.25 1.86397V19.136C20.25 19.5309 20.0931 19.9097 19.8139 20.1889C19.5347 20.4681 19.1559 20.625 18.761 20.625H1.48897C1.09407 20.625 0.715346 20.4681 0.436109 20.1889C0.156873 19.9097 0 19.5309 0 19.136L0 1.86397C0 1.46907 0.156873 1.09035 0.436109 0.811109C0.715346 0.531873 1.09407 0.375 1.48897 0.375L18.761 0.375C19.1559 0.375 19.5347 0.531873 19.8139 0.811109C20.0931 1.09035 20.25 1.46907 20.25 1.86397ZM5.95588 8.11765H2.97794V17.6471H5.95588V8.11765ZM6.2239 4.84191C6.22547 4.61665 6.18265 4.39329 6.0979 4.18458C6.01314 3.97587 5.88811 3.7859 5.72993 3.62551C5.57176 3.46513 5.38354 3.33747 5.17603 3.24982C4.96852 3.16218 4.74577 3.11626 4.52051 3.11471H4.46691C4.00883 3.11471 3.56951 3.29668 3.24559 3.62059C2.92168 3.94451 2.73971 4.38383 2.73971 4.84191C2.73971 5.29999 2.92168 5.73932 3.24559 6.06323C3.56951 6.38714 4.00883 6.56912 4.46691 6.56912C4.69218 6.57466 4.91634 6.53576 5.12657 6.45464C5.33681 6.37352 5.529 6.25177 5.69216 6.09635C5.85533 5.94093 5.98627 5.75488 6.07751 5.54884C6.16874 5.34279 6.21849 5.12079 6.2239 4.89551V4.84191ZM17.2721 11.8579C17.2721 8.99316 15.4496 7.87941 13.639 7.87941C13.0461 7.84973 12.4559 7.97599 11.9271 8.24562C11.3983 8.51524 10.9495 8.91879 10.6253 9.41603H10.5419V8.11765H7.74265V17.6471H10.7206V12.5786C10.6775 12.0595 10.8411 11.5444 11.1756 11.1452C11.5102 10.7459 11.9887 10.4948 12.5074 10.4464H12.6205C13.5675 10.4464 14.2703 11.042 14.2703 12.5429V17.6471H17.2482L17.2721 11.8579Z" fill="url(#paint0_linear_1644_1814)"/>
<defs>
<linearGradient id="paint0_linear_1644_1814" x1="10.125" y1="0.375" x2="10.125" y2="20.625" gradientUnits="userSpaceOnUse">
<stop stop-color="#FF6251"/>
<stop offset="1" stop-color="#FF4358"/>
</linearGradient>
</defs>
</svg>
