<svg width="18" height="23" viewBox="0 0 18 23" fill="none" xmlns="http://www.w3.org/2000/svg">
<path d="M9.03632 22.7881C8.31135 22.7787 7.63483 22.4214 7.21813 21.8282C6.94693 21.4668 0.565918 13.0982 0.565918 8.59185C0.565918 6.34525 1.45827 4.19087 3.04686 2.60264C4.63524 1.01406 6.78982 0.121704 9.03606 0.121704C11.2823 0.121704 13.437 1.01406 15.0253 2.60264C16.6139 4.19103 17.5062 6.34541 17.5062 8.59185C17.5062 13.1094 11.1253 21.4667 10.854 21.8282C10.4373 22.4214 9.76073 22.7787 9.03581 22.7881H9.03632ZM9.03632 1.25087C7.09026 1.25383 5.22478 2.02823 3.84876 3.4043C2.47269 4.78037 1.69852 6.64585 1.69534 8.59185C1.69534 12.7142 8.04252 21.0149 8.11008 21.139H8.11028C8.3214 21.4417 8.66725 21.6219 9.03631 21.6219C9.40537 21.6219 9.75124 21.4417 9.96235 21.139C10.0301 21.0486 16.3771 12.7136 16.3771 8.59185C16.3739 6.6458 15.5997 4.78032 14.2237 3.4043C12.8476 2.02823 10.9821 1.25385 9.03611 1.25087H9.03632Z" fill="#FBFBFB"/>
<path d="M9.03674 12.5446C7.98839 12.5446 6.98299 12.1283 6.24164 11.387C5.50029 10.6457 5.08398 9.64022 5.08398 8.59187C5.08398 7.54352 5.50033 6.53813 6.24164 5.79678C6.98295 5.05542 7.98839 4.63892 9.03674 4.63892C10.0851 4.63892 11.0905 5.05546 11.8318 5.79678C12.5732 6.53809 12.9895 7.54352 12.9895 8.59187C12.9895 9.64022 12.5731 10.6456 11.8318 11.387C11.0905 12.1283 10.0851 12.5446 9.03674 12.5446ZM9.03674 5.76839C8.28792 5.76839 7.56966 6.06578 7.04027 6.59535C6.51067 7.12475 6.21331 7.84301 6.21331 8.59182C6.21331 9.34064 6.51069 10.0587 7.04027 10.5883C7.56966 11.1177 8.28792 11.4153 9.03674 11.4153C9.78555 11.4153 10.5038 11.1177 11.0332 10.5883C11.5628 10.0587 11.8602 9.34064 11.8602 8.59182C11.8602 7.84301 11.5628 7.12475 11.0332 6.59535C10.5038 6.06576 9.78555 5.76839 9.03674 5.76839Z" fill="#FBFBFB"/>
</svg>
