<svg width="77" height="49" viewBox="0 0 77 49" fill="none" xmlns="http://www.w3.org/2000/svg">
<g id="Home page" clip-path="url(#clip0_11_4)">
<rect width="1440" height="7027" transform="translate(-128 -15)" fill="#F7F7F7"/>
<g id="Head">
<rect id="Rectangle 731" x="-128" y="-15" width="1440" height="78" fill="#FBFBFB"/>
<g id="Vector">
<path d="M40.8369 24.7907C39.0211 25.8585 38.5001 28.8795 37.2611 32.1536C36.0789 35.2774 34.567 37.6318 34.567 37.6318C34.567 37.6318 35.0683 37.2917 35.8114 36.2921C37.7419 33.695 38.3939 31.46 38.9731 30.1669C39.193 29.6762 40.0203 27.3223 41.1392 26.6877C41.6477 26.3994 43.432 26.4075 44.9655 26.1479C46.0591 25.9629 47.9181 25.7793 48.4659 25.6626C48.5326 25.6483 46.6426 25.0143 44.6323 24.7625C42.875 24.5424 41.517 24.3907 40.8369 24.7907Z" fill="#DFDFDF"/>
<path d="M24.8735 47.0132C24.8735 47.2071 24.8265 47.3738 24.7323 47.5139C24.6382 47.654 24.5034 47.7611 24.3282 47.8357C24.1526 47.9104 23.9434 47.9474 23.7007 47.9474C23.5822 47.9474 23.4688 47.9407 23.3608 47.9273C23.2527 47.9139 23.1508 47.8943 23.0553 47.868C22.9598 47.8419 22.8728 47.8102 22.7944 47.7729V47.2677C22.9262 47.3257 23.0734 47.3783 23.2364 47.4253C23.3994 47.4723 23.5651 47.4956 23.734 47.4956C23.8717 47.4956 23.9861 47.4774 24.0771 47.4409C24.1681 47.4044 24.2358 47.3523 24.2804 47.2844C24.3247 47.2167 24.3471 47.1373 24.3471 47.0463C24.3471 46.9494 24.3212 46.8675 24.2695 46.8004C24.2177 46.7333 24.1395 46.6718 24.0352 46.616C23.9309 46.5601 23.8002 46.5003 23.643 46.4361C23.5363 46.3929 23.4347 46.3438 23.3376 46.2885C23.2404 46.2334 23.1543 46.1685 23.0788 46.0941C23.0033 46.0198 22.9438 45.9315 22.9 45.8294C22.8563 45.7274 22.8344 45.6072 22.8344 45.4684C22.8344 45.2837 22.8784 45.1259 22.9664 44.9946C23.0545 44.8636 23.1788 44.763 23.3397 44.6929C23.5003 44.6228 23.6881 44.5879 23.9029 44.5879C24.0731 44.5879 24.2334 44.6059 24.3836 44.6416C24.5338 44.6773 24.6817 44.7281 24.8268 44.7936L24.6579 45.2249C24.5248 45.1699 24.3954 45.1259 24.2703 45.0931C24.1451 45.0604 24.0173 45.044 23.8871 45.044C23.7746 45.044 23.679 45.0612 23.6006 45.0955C23.5222 45.1299 23.4624 45.178 23.4219 45.2397C23.381 45.3014 23.3608 45.375 23.3608 45.4598C23.3608 45.5551 23.384 45.6354 23.4307 45.7001C23.4773 45.7648 23.5499 45.8241 23.6484 45.8778C23.7468 45.9315 23.8738 45.991 24.0293 46.0565C24.2086 46.1312 24.3607 46.2093 24.4858 46.2912C24.611 46.373 24.7067 46.471 24.7734 46.5851C24.8401 46.6992 24.8735 46.8417 24.8735 47.0132Z" fill="#350805"/>
<path d="M27.555 46.66C27.555 46.8657 27.5283 47.0482 27.4749 47.2077C27.4216 47.3671 27.3439 47.5016 27.2417 47.6111C27.1396 47.7206 27.0166 47.8041 26.873 47.8613C26.7295 47.9187 26.5673 47.9475 26.3867 47.9475C26.2178 47.9475 26.0631 47.9187 25.9225 47.8613C25.7819 47.8039 25.6599 47.7204 25.5569 47.6111C25.454 47.5016 25.3745 47.3671 25.3182 47.2077C25.2619 47.0482 25.2339 46.8657 25.2339 46.66C25.2339 46.3873 25.2808 46.1562 25.375 45.9661C25.4689 45.7761 25.6034 45.6314 25.7781 45.5315C25.9529 45.4317 26.161 45.3818 26.4021 45.3818C26.6287 45.3818 26.8287 45.4317 27.0019 45.5315C27.175 45.6314 27.3106 45.7766 27.4082 45.9672C27.5061 46.1581 27.555 46.3889 27.555 46.66ZM25.7714 46.66C25.7714 46.8404 25.7933 46.9945 25.8371 47.1226C25.8808 47.2506 25.9483 47.3486 26.0404 47.4165C26.1322 47.4844 26.2506 47.5182 26.3957 47.5182C26.5409 47.5182 26.6593 47.4844 26.7511 47.4165C26.8429 47.3489 26.9104 47.2509 26.9533 47.1226C26.9963 46.9945 27.0179 46.8402 27.0179 46.66C27.0179 46.4799 26.9966 46.3267 26.9533 46.2008C26.9104 46.0749 26.8432 45.9788 26.7511 45.9125C26.6593 45.8462 26.5401 45.8131 26.3936 45.8131C26.1772 45.8131 26.0196 45.8861 25.9206 46.0322C25.8211 46.1782 25.7714 46.3873 25.7714 46.66Z" fill="#350805"/>
<path d="M29.3148 45.8289H28.7174V47.9028H28.1956V45.8289H27.7935V45.5763L28.1956 45.4222V45.2501C28.1956 45.0399 28.2284 44.8732 28.2943 44.7495C28.3602 44.6258 28.4549 44.5369 28.5787 44.4824C28.7025 44.4279 28.85 44.4008 29.0218 44.4008C29.1344 44.4008 29.2374 44.4102 29.3305 44.4287C29.4239 44.4472 29.5023 44.4687 29.5661 44.4923L29.4306 44.8902C29.3801 44.8738 29.3239 44.8585 29.2617 44.8443C29.1995 44.83 29.1328 44.8231 29.0619 44.8231C28.9434 44.8231 28.8564 44.8604 28.8009 44.9347C28.7455 45.0093 28.7177 45.1181 28.7177 45.2609V45.4284H29.3151L29.3148 45.8289Z" fill="#350805"/>
<path d="M30.5794 47.5231C30.6474 47.5231 30.7149 47.5167 30.7816 47.5041C30.8483 47.4915 30.9089 47.4762 30.9638 47.4582V47.856C30.9062 47.8812 30.8313 47.903 30.7395 47.9207C30.6477 47.9387 30.5522 47.9475 30.4529 47.9475C30.3137 47.9475 30.1885 47.9242 30.0776 47.8772C29.9666 47.8302 29.8783 47.7494 29.8132 47.6348C29.7481 47.5202 29.7155 47.3615 29.7155 47.1589V45.829H29.3802V45.5944L29.7401 45.4089L29.9111 44.8793H30.2398V45.4291H30.9438V45.829H30.2398V47.1522C30.2398 47.2773 30.271 47.3704 30.3331 47.4316C30.395 47.4925 30.477 47.5231 30.5794 47.5231Z" fill="#350805"/>
<path d="M33.4051 47.9009L33.094 46.7499C33.0791 46.6933 33.0615 46.6248 33.0407 46.5443C33.0199 46.4637 32.9993 46.3808 32.9785 46.2952C32.9577 46.2095 32.9388 46.1301 32.9219 46.0571C32.9049 45.9841 32.8921 45.9274 32.883 45.8871H32.8651C32.8577 45.9274 32.8459 45.9841 32.8296 46.0571C32.8134 46.1301 32.795 46.2098 32.7741 46.2962C32.7533 46.3827 32.7331 46.467 32.713 46.5488C32.693 46.6307 32.6749 46.7008 32.6586 46.759L32.3321 47.9009H31.759L31.0704 45.427H31.5989L31.9188 46.6562C31.9396 46.7397 31.9599 46.8299 31.9799 46.9265C31.9999 47.0234 32.0173 47.1158 32.0322 47.2035C32.0469 47.2916 32.0581 47.3638 32.0655 47.4204H32.0834C32.0893 47.3802 32.0976 47.3292 32.108 47.2674C32.1184 47.2057 32.1301 47.1407 32.1434 47.0731C32.1568 47.0054 32.1701 46.9413 32.1835 46.8809C32.1968 46.8205 32.2093 46.7716 32.2211 46.7346L32.5986 45.4273H33.1695L33.5316 46.7346C33.5478 46.7912 33.5657 46.8624 33.5849 46.948C33.6041 47.0336 33.6215 47.1193 33.6372 47.2049C33.6527 47.2905 33.6628 47.3617 33.6671 47.4183H33.685C33.6908 47.3676 33.7015 47.2988 33.7173 47.2116C33.733 47.1244 33.7509 47.0315 33.7717 46.9322C33.7925 46.8331 33.8138 46.741 33.8362 46.6562L34.1628 45.427H34.6825L33.9894 47.9009H33.4051Z" fill="#350805"/>
<path d="M36 45.3818C36.3111 45.3818 36.5461 45.451 36.7051 45.5895C36.8644 45.728 36.9439 45.9441 36.9439 46.2375V47.9024H36.5731L36.473 47.5515H36.4552C36.3855 47.6409 36.3138 47.7147 36.2396 47.7727C36.1654 47.8307 36.08 47.8745 35.9829 47.9034C35.8858 47.9324 35.7679 47.9469 35.6286 47.9469C35.4822 47.9469 35.3509 47.9198 35.2354 47.8653C35.1199 47.8108 35.0289 47.7279 34.9622 47.6162C34.8955 47.5045 34.8621 47.3628 34.8621 47.1916C34.8621 46.9368 34.9566 46.7454 35.1455 46.6171C35.3344 46.4891 35.6196 46.4182 36.0016 46.4048L36.4282 46.3892V46.2595C36.4282 46.0883 36.3885 45.9661 36.3095 45.8931C36.2303 45.8201 36.1187 45.7836 35.9752 45.7836C35.8522 45.7836 35.7332 45.8016 35.6177 45.8373C35.5022 45.873 35.3896 45.917 35.2802 45.9691L35.1113 45.5981C35.2314 45.534 35.368 45.4819 35.5211 45.4416C35.6745 45.4019 35.8341 45.3818 36 45.3818ZM36.4266 46.7204L36.1089 46.7317C35.8482 46.7406 35.6655 46.7854 35.5603 46.8657C35.4552 46.9462 35.4027 47.0565 35.4027 47.1964C35.4027 47.3185 35.4389 47.4076 35.5115 47.4635C35.5841 47.5193 35.6796 47.5472 35.7981 47.5472C35.9787 47.5472 36.1286 47.4954 36.2479 47.3918C36.3671 47.2882 36.4266 47.136 36.4266 46.9347V46.7204Z" fill="#350805"/>
<path d="M38.8525 45.3818C38.8938 45.3818 38.9392 45.3839 38.988 45.3885C39.0368 45.393 39.079 45.3989 39.1147 45.4065L39.0659 45.8982C39.0347 45.8894 38.9968 45.8827 38.9514 45.8781C38.9061 45.8735 38.8661 45.8714 38.8303 45.8714C38.7369 45.8714 38.6481 45.8867 38.5638 45.9173C38.4795 45.9479 38.4045 45.9941 38.3394 46.0558C38.2743 46.1175 38.2231 46.1948 38.1863 46.2872C38.1492 46.3795 38.1308 46.4869 38.1308 46.609V47.9029H37.6065V45.429H38.0153L38.0862 45.8647H38.1108C38.1596 45.7769 38.2204 45.6964 38.293 45.6233C38.3656 45.5503 38.4488 45.4918 38.543 45.4478C38.6366 45.4038 38.7399 45.3818 38.8525 45.3818Z" fill="#350805"/>
<path d="M40.4812 45.3818C40.7003 45.3818 40.8883 45.4271 41.0455 45.5181C41.2024 45.6091 41.3232 45.738 41.4075 45.9047C41.4918 46.0716 41.5343 46.2711 41.5343 46.5036V46.7851H39.8929C39.8988 47.0251 39.9628 47.2098 40.085 47.3395C40.2072 47.4691 40.3785 47.5338 40.5991 47.5338C40.756 47.5338 40.8972 47.5185 41.0223 47.4879C41.1474 47.4573 41.2765 47.4122 41.4099 47.3526V47.7794C41.2869 47.8374 41.1618 47.8798 41.0345 47.9067C40.907 47.9335 40.7547 47.9469 40.577 47.9469C40.3356 47.9469 40.1235 47.8997 39.9407 47.8049C39.7577 47.7104 39.6149 47.5692 39.512 47.3813C39.409 47.1937 39.3575 46.9604 39.3575 46.6818C39.3575 46.4048 39.4042 46.1693 39.4976 45.9755C39.5909 45.782 39.7219 45.6344 39.8908 45.5332C40.0592 45.4325 40.256 45.3818 40.4812 45.3818ZM40.4812 45.7774C40.3169 45.7774 40.184 45.8311 40.0826 45.9382C39.9813 46.0456 39.9215 46.2026 39.9039 46.4099H41.0233C41.0217 46.2861 41.0015 46.1766 40.9622 46.0813C40.923 45.986 40.8638 45.9114 40.7846 45.858C40.7051 45.8043 40.6039 45.7774 40.4812 45.7774Z" fill="#350805"/>
<path d="M44.4294 45.3818C44.721 45.3818 44.9555 45.4891 45.1324 45.7036C45.3092 45.9181 45.3978 46.237 45.3978 46.66C45.3978 46.9403 45.3567 47.176 45.2746 47.3674C45.1924 47.5588 45.0777 47.7035 44.9304 47.8009C44.7831 47.8986 44.6116 47.9472 44.4163 47.9472C44.292 47.9472 44.1839 47.9308 44.0919 47.8981C44.0001 47.8653 43.9217 47.8224 43.8566 47.7695C43.7915 47.7166 43.7365 47.6589 43.6922 47.5964H43.661C43.6685 47.6559 43.6754 47.722 43.6821 47.7942C43.6887 47.8664 43.6919 47.9324 43.6919 47.992V49H43.1677V45.4287H43.5943L43.6677 45.7707H43.6919C43.7378 45.7007 43.7939 45.636 43.8598 45.5764C43.9257 45.5168 44.0057 45.4695 44.0996 45.4344C44.1938 45.3992 44.3037 45.3818 44.4294 45.3818ZM44.2896 45.8107C44.146 45.8107 44.0308 45.8394 43.9441 45.8969C43.8574 45.9543 43.7944 46.0402 43.7552 46.1551C43.716 46.2697 43.6949 46.4136 43.6919 46.5865V46.6603C43.6919 46.8437 43.7109 46.9988 43.7485 47.1263C43.7864 47.2538 43.8491 47.3505 43.9374 47.4168C44.0254 47.4831 44.1452 47.5161 44.2962 47.5161C44.4235 47.5161 44.5291 47.4812 44.6126 47.4111C44.6964 47.3411 44.7589 47.2412 44.8002 47.1116C44.8416 46.9819 44.8624 46.8292 44.8624 46.6533C44.8624 46.3868 44.8154 46.1795 44.7212 46.0322C44.6276 45.8845 44.4835 45.8107 44.2896 45.8107Z" fill="#350805"/>
<path d="M46.8956 45.3818C47.2067 45.3818 47.4417 45.451 47.6007 45.5895C47.76 45.728 47.8395 45.9441 47.8395 46.2375V47.9024H47.4687L47.3686 47.5515H47.3508C47.2811 47.6409 47.2094 47.7147 47.1352 47.7727C47.061 47.8307 46.9756 47.8745 46.8785 47.9034C46.7814 47.9324 46.6635 47.9469 46.5242 47.9469C46.3778 47.9469 46.2465 47.9198 46.131 47.8653C46.0155 47.8108 45.9245 47.7279 45.8578 47.6162C45.7911 47.5045 45.7577 47.3628 45.7577 47.1916C45.7577 46.9368 45.8522 46.7454 46.0411 46.6171C46.23 46.4891 46.5152 46.4182 46.8972 46.4048L47.3238 46.3892V46.2595C47.3238 46.0883 47.2841 45.9661 47.2051 45.8931C47.1258 45.8201 47.0143 45.7836 46.8708 45.7836C46.7478 45.7836 46.6288 45.8016 46.5133 45.8373C46.3978 45.873 46.2852 45.917 46.1758 45.9691L46.0069 45.5981C46.127 45.534 46.2636 45.4819 46.4167 45.4416C46.5701 45.4019 46.7297 45.3818 46.8956 45.3818ZM47.3219 46.7204L47.0042 46.7317C46.7435 46.7406 46.5608 46.7854 46.4557 46.8657C46.3505 46.9462 46.298 47.0565 46.298 47.1964C46.298 47.3185 46.3343 47.4076 46.4068 47.4635C46.4794 47.5193 46.5749 47.5472 46.6934 47.5472C46.874 47.5472 47.0239 47.4954 47.1432 47.3918C47.2624 47.2882 47.3219 47.136 47.3219 46.9347V46.7204Z" fill="#350805"/>
<path d="M49.748 45.3818C49.7894 45.3818 49.8347 45.3839 49.8836 45.3885C49.9324 45.393 49.9745 45.3989 50.0103 45.4065L49.9615 45.8982C49.9303 45.8894 49.8924 45.8827 49.847 45.8781C49.8017 45.8735 49.7617 45.8714 49.7259 45.8714C49.6325 45.8714 49.5437 45.8867 49.4594 45.9173C49.3751 45.9479 49.3001 45.9941 49.235 46.0558C49.1699 46.1175 49.1187 46.1948 49.0819 46.2872C49.0448 46.3795 49.0264 46.4869 49.0264 46.609V47.9029H48.5021V45.429H48.9108L48.9818 45.8647H49.0064C49.0552 45.7769 49.116 45.6964 49.1886 45.6233C49.2611 45.5503 49.3444 45.4918 49.4386 45.4478C49.5322 45.4038 49.6355 45.3818 49.748 45.3818Z" fill="#350805"/>
<path d="M51.361 45.3818C51.6721 45.3818 51.9071 45.451 52.0661 45.5895C52.2254 45.728 52.3049 45.9441 52.3049 46.2375V47.9024H51.9341L51.834 47.5515H51.8162C51.7465 47.6409 51.6748 47.7147 51.6006 47.7727C51.5264 47.8307 51.4411 47.8745 51.3439 47.9034C51.2468 47.9324 51.1289 47.9469 50.9896 47.9469C50.8432 47.9469 50.7119 47.9198 50.5964 47.8653C50.4809 47.8108 50.3899 47.7279 50.3232 47.6162C50.2565 47.5045 50.2231 47.3628 50.2231 47.1916C50.2231 46.9368 50.3176 46.7454 50.5065 46.6171C50.6954 46.4891 50.9806 46.4182 51.3626 46.4048L51.7892 46.3892V46.2595C51.7892 46.0883 51.7495 45.9661 51.6705 45.8931C51.5913 45.8201 51.4797 45.7836 51.3362 45.7836C51.2132 45.7836 51.0942 45.8016 50.9787 45.8373C50.8632 45.873 50.7506 45.917 50.6412 45.9691L50.4723 45.5981C50.5924 45.534 50.729 45.4819 50.8821 45.4416C51.0358 45.4019 51.1953 45.3818 51.361 45.3818ZM51.7876 46.7204L51.4699 46.7317C51.2092 46.7406 51.0265 46.7854 50.9213 46.8657C50.8162 46.9462 50.7637 47.0565 50.7637 47.1964C50.7637 47.3185 50.7999 47.4076 50.8725 47.4635C50.9451 47.5193 51.0406 47.5472 51.1591 47.5472C51.3397 47.5472 51.4896 47.4954 51.6089 47.3918C51.7281 47.2882 51.7876 47.136 51.7876 46.9347V46.7204Z" fill="#350805"/>
<path d="M54.6629 47.9023H54.1344V44.6349H55.9692V45.0864H54.6632V46.1054H55.8848V46.5545H54.6632L54.6629 47.9023Z" fill="#350805"/>
<path d="M57.4003 45.3818C57.7114 45.3818 57.9464 45.451 58.1054 45.5895C58.2647 45.728 58.3442 45.9441 58.3442 46.2375V47.9024H57.9734L57.8733 47.5515H57.8555C57.7858 47.6409 57.7141 47.7147 57.6399 47.7727C57.5657 47.8307 57.4804 47.8745 57.3832 47.9034C57.2861 47.9324 57.1682 47.9469 57.0289 47.9469C56.8825 47.9469 56.7512 47.9198 56.6357 47.8653C56.5202 47.8108 56.4292 47.7279 56.3625 47.6162C56.2958 47.5045 56.2625 47.3628 56.2625 47.1916C56.2625 46.9368 56.3569 46.7454 56.5458 46.6171C56.7347 46.4891 57.0199 46.4182 57.4019 46.4048L57.8285 46.3892V46.2595C57.8285 46.0883 57.7888 45.9661 57.7098 45.8931C57.6306 45.8201 57.519 45.7836 57.3755 45.7836C57.2525 45.7836 57.1335 45.8016 57.018 45.8373C56.9025 45.873 56.7899 45.917 56.6805 45.9691L56.5116 45.5981C56.6317 45.534 56.7683 45.4819 56.9214 45.4416C57.0748 45.4019 57.2344 45.3818 57.4003 45.3818ZM57.8267 46.7204L57.5089 46.7317C57.2483 46.7406 57.0655 46.7854 56.9604 46.8657C56.8553 46.9462 56.8027 47.0565 56.8027 47.1964C56.8027 47.3185 56.839 47.4076 56.9116 47.4635C56.9841 47.5193 57.0796 47.5472 57.1981 47.5472C57.3787 47.5472 57.5286 47.4954 57.6479 47.3918C57.7672 47.2882 57.8267 47.136 57.8267 46.9347V46.7204Z" fill="#350805"/>
<path d="M60.2528 45.3818C60.2941 45.3818 60.3395 45.3839 60.3883 45.3885C60.4371 45.393 60.4793 45.3989 60.515 45.4065L60.4662 45.8982C60.435 45.8894 60.3971 45.8827 60.3517 45.8781C60.3064 45.8735 60.2664 45.8714 60.2306 45.8714C60.1372 45.8714 60.0484 45.8867 59.9641 45.9173C59.8798 45.9479 59.8048 45.9941 59.7397 46.0558C59.6746 46.1175 59.6234 46.1948 59.5866 46.2872C59.5495 46.3795 59.5311 46.4869 59.5311 46.609V47.9029H59.0068V45.429H59.4156L59.4865 45.8647H59.5111C59.5599 45.7769 59.6207 45.6964 59.6933 45.6233C59.7659 45.5503 59.8491 45.4918 59.9433 45.4478C60.0369 45.4038 60.1402 45.3818 60.2528 45.3818Z" fill="#350805"/>
<path d="M63.6806 45.3823C63.9559 45.3823 64.1637 45.4537 64.3035 45.5968C64.4436 45.7399 64.5135 45.9694 64.5135 46.285V47.9032H63.9916V46.379C63.9916 46.1914 63.9553 46.0496 63.8828 45.9543C63.8102 45.859 63.6998 45.8113 63.552 45.8113C63.3447 45.8113 63.1955 45.8778 63.1043 46.0112C63.0133 46.1447 62.9677 46.3379 62.9677 46.5911V47.9029H62.4456V46.3787C62.4456 46.2536 62.4296 46.1489 62.3978 46.0647C62.3661 45.9804 62.3175 45.9173 62.2524 45.8746C62.1873 45.8322 62.1051 45.811 62.0059 45.811C61.8624 45.811 61.7479 45.8437 61.6628 45.9092C61.5777 45.9747 61.5166 46.0714 61.4795 46.1986C61.4424 46.3261 61.424 46.4821 61.424 46.6668V47.9026H60.9022V45.4287H61.3088L61.3821 45.7616H61.4109C61.4614 45.6752 61.5238 45.604 61.5985 45.5482C61.6732 45.4924 61.7564 45.4507 61.8485 45.4231C61.9403 45.3955 62.0358 45.3818 62.135 45.3818C62.3186 45.3818 62.4733 45.4142 62.5992 45.4789C62.7252 45.5436 62.8191 45.6424 62.8812 45.775H62.9213C62.9984 45.6411 63.1056 45.5417 63.2433 45.4779C63.3807 45.4142 63.5266 45.3823 63.6806 45.3823Z" fill="#350805"/>
<path d="M66.1377 45.382C66.4488 45.382 66.6838 45.4512 66.8429 45.5897C67.0021 45.7282 67.0816 45.9443 67.0816 46.2377V47.9026H66.7108L66.6107 47.5517H66.5929C66.5232 47.6411 66.4515 47.7149 66.3773 47.7729C66.3031 47.8309 66.2178 47.8746 66.1207 47.9036C66.0235 47.9326 65.9056 47.9471 65.7663 47.9471C65.6199 47.9471 65.4886 47.92 65.3731 47.8655C65.2576 47.811 65.1666 47.7281 65.0999 47.6164C65.0332 47.5047 64.9999 47.363 64.9999 47.1917C64.9999 46.937 65.0943 46.7456 65.2832 46.6173C65.4721 46.4893 65.7573 46.4184 66.1393 46.405L66.5659 46.3894V46.2597C66.5659 46.0885 66.5262 45.9663 66.4472 45.8933C66.368 45.8203 66.2564 45.7838 66.1129 45.7838C65.9899 45.7838 65.8709 45.8018 65.7554 45.8375C65.6399 45.8732 65.5273 45.9172 65.4179 45.9693L65.249 45.5983C65.3691 45.5342 65.5057 45.4821 65.6588 45.4418C65.8122 45.4021 65.9718 45.382 66.1377 45.382ZM66.5643 46.7206L66.2466 46.7319C65.9859 46.7408 65.8032 46.7856 65.6981 46.8659C65.5929 46.9464 65.5404 47.0567 65.5404 47.1966C65.5404 47.3187 65.5767 47.4078 65.6492 47.4637C65.7218 47.5195 65.8173 47.5474 65.9358 47.5474C66.1164 47.5474 66.2663 47.4956 66.3856 47.392C66.5048 47.2884 66.5643 47.1362 66.5643 46.9349V46.7206ZM66.8773 44.3965V44.4411C66.8418 44.4843 66.7935 44.5361 66.7329 44.5965C66.6721 44.6569 66.6065 44.7203 66.5352 44.7866C66.4643 44.8529 66.3938 44.9162 66.3242 44.9766C66.2546 45.037 66.1916 45.088 66.1353 45.1296H65.7866V45.0716C65.8354 45.015 65.8899 44.9474 65.9499 44.8682C66.0099 44.7893 66.0692 44.7079 66.1276 44.6247C66.186 44.5412 66.2354 44.4653 66.2754 44.3968L66.8773 44.3965Z" fill="#350805"/>
<path d="M68.7349 47.9472C68.5025 47.9472 68.3011 47.9018 68.1306 47.8108C67.9604 47.7201 67.8291 47.5805 67.7373 47.3929C67.6455 47.2052 67.5997 46.9669 67.5997 46.6778C67.5997 46.3769 67.6501 46.131 67.7507 45.9404C67.8512 45.7498 67.991 45.6089 68.1693 45.5181C68.3477 45.4274 68.5524 45.3818 68.7834 45.3818C68.9299 45.3818 69.063 45.3963 69.182 45.4252C69.3013 45.4542 69.4021 45.4897 69.4851 45.5313L69.3295 45.9514C69.2391 45.9141 69.1465 45.8829 69.0518 45.8574C68.9571 45.8322 68.8659 45.8193 68.7786 45.8193C68.6351 45.8193 68.5156 45.8513 68.4198 45.9154C68.3243 45.9796 68.2533 46.0749 68.2066 46.2016C68.1599 46.3283 68.1367 46.4853 68.1367 46.6732C68.1367 46.8549 68.1605 47.0079 68.2077 47.1325C68.2552 47.2568 68.3253 47.3507 68.4187 47.4141C68.5121 47.4774 68.6268 47.5091 68.7629 47.5091C68.8976 47.5091 69.0182 47.4927 69.1249 47.46C69.2316 47.4272 69.3322 47.3848 69.4269 47.3327V47.7886C69.3335 47.8422 69.2338 47.882 69.127 47.908C69.0214 47.934 68.8904 47.9472 68.7349 47.9472Z" fill="#350805"/>
<path d="M70.1991 44.4811C70.2791 44.4811 70.3482 44.5029 70.4067 44.5458C70.4651 44.589 70.4944 44.6637 70.4944 44.7692C70.4944 44.8736 70.4651 44.9477 70.4067 44.9914C70.3482 45.0354 70.2789 45.0575 70.1991 45.0575C70.1161 45.0575 70.0462 45.0354 69.9891 44.9914C69.932 44.9474 69.9035 44.8733 69.9035 44.7692C69.9035 44.6634 69.932 44.589 69.9891 44.5458C70.0462 44.5029 70.1161 44.4811 70.1991 44.4811ZM70.4568 45.4287V47.9026H69.935V45.4287H70.4568Z" fill="#350805"/>
<path d="M72.0989 45.3818C72.41 45.3818 72.645 45.451 72.804 45.5895C72.9633 45.728 73.0428 45.9441 73.0428 46.2375V47.9024H72.672L72.5719 47.5515H72.554C72.4844 47.6409 72.4126 47.7147 72.3385 47.7727C72.2643 47.8307 72.1789 47.8745 72.0818 47.9034C71.9847 47.9324 71.8668 47.9469 71.7275 47.9469C71.5811 47.9469 71.4498 47.9198 71.3343 47.8653C71.2188 47.8108 71.1278 47.7279 71.0611 47.6162C70.9944 47.5045 70.961 47.3628 70.961 47.1916C70.961 46.9368 71.0555 46.7454 71.2444 46.6171C71.4333 46.4891 71.7185 46.4182 72.1005 46.4048L72.5271 46.3892V46.2595C72.5271 46.0883 72.4874 45.9661 72.4084 45.8931C72.3291 45.8201 72.2176 45.7836 72.0741 45.7836C71.9511 45.7836 71.8321 45.8016 71.7166 45.8373C71.6011 45.873 71.4885 45.917 71.3791 45.9691L71.2102 45.5981C71.3303 45.534 71.4669 45.4819 71.62 45.4416C71.7734 45.4019 71.933 45.3818 72.0989 45.3818ZM72.5252 46.7204L72.2075 46.7317C71.9468 46.7406 71.7641 46.7854 71.659 46.8657C71.5538 46.9462 71.5013 47.0565 71.5013 47.1964C71.5013 47.3185 71.5376 47.4076 71.6101 47.4635C71.6827 47.5193 71.7782 47.5472 71.8967 47.5472C72.0773 47.5472 72.2272 47.4954 72.3465 47.3918C72.4657 47.2882 72.5252 47.136 72.5252 46.9347V46.7204Z" fill="#350805"/>
<path d="M75.3578 47.1961C75.3578 47.3585 75.3186 47.4957 75.2401 47.6074C75.1617 47.719 75.0472 47.8036 74.897 47.861C74.7468 47.9185 74.5627 47.9472 74.345 47.9472C74.1732 47.9472 74.0257 47.9349 73.9019 47.9104C73.7781 47.8857 73.6615 47.8481 73.5521 47.7977V47.344C73.669 47.3991 73.8005 47.4468 73.9464 47.4871C74.0924 47.5274 74.2303 47.5475 74.3608 47.5475C74.5326 47.5475 74.6561 47.5204 74.7316 47.4659C74.8071 47.4114 74.845 47.3389 74.845 47.2479C74.845 47.1942 74.8298 47.1462 74.7994 47.1038C74.769 47.0614 74.7127 47.0173 74.6305 46.972C74.5483 46.9266 74.428 46.8718 74.2695 46.8077C74.114 46.7451 73.983 46.6826 73.8763 46.62C73.7696 46.5575 73.689 46.4818 73.6343 46.3932C73.5796 46.3046 73.5521 46.1911 73.5521 46.0523C73.5521 45.8333 73.6383 45.6668 73.8109 45.5527C73.9835 45.4387 74.2119 45.3818 74.496 45.3818C74.647 45.3818 74.7895 45.3971 74.9237 45.4277C75.0576 45.4583 75.1892 45.5026 75.318 45.5605L75.1537 45.9562C75.0427 45.9071 74.9312 45.8666 74.8194 45.8343C74.7076 45.8024 74.594 45.7863 74.4784 45.7863C74.3437 45.7863 74.241 45.8072 74.1708 45.8488C74.1004 45.8907 74.0654 45.95 74.0654 46.0276C74.0654 46.0856 74.0825 46.135 74.1167 46.1753C74.1505 46.2155 74.2095 46.2558 74.2933 46.2961C74.3768 46.3363 74.4934 46.3862 74.643 46.4458C74.7895 46.5025 74.9165 46.5618 75.024 46.6235C75.1313 46.6853 75.214 46.761 75.2716 46.8504C75.329 46.9392 75.3578 47.0546 75.3578 47.1961Z" fill="#350805"/>
<path d="M75.2422 27.1377C74.1619 25.8973 72.8042 25.0898 71.319 24.4794C69.0614 23.5514 66.6715 23.3686 64.2943 23.0658C63.0615 22.9088 61.8292 22.6202 60.6444 22.235C59.7842 21.9556 59.2706 21.2174 59.1762 20.2373C59.0281 18.7016 59.8634 17.4974 61.4818 16.971C62.907 16.5074 64.3613 16.4642 65.8236 16.745C67.6196 17.0899 69.0489 17.9054 69.5555 19.8954C69.5862 20.0162 69.7873 20.1732 69.9103 20.1743C71.7144 20.1896 73.5187 20.1874 75.375 20.1866C75.792 20.1863 76.1258 19.8253 76.0812 19.4079C76.081 19.4055 76.0807 19.4033 76.0804 19.4009C75.7904 16.7879 74.6333 14.7172 72.4579 13.2996C70.0987 11.762 67.4761 11.2405 64.7324 11.1742C62.096 11.1105 59.5275 11.4211 57.124 12.6237C54.1565 14.1084 52.7812 16.5751 52.5576 19.1531C50.1258 14.3777 45.3147 11.1258 39.7761 11.1258C35.3223 11.1258 31.3393 13.2288 28.685 16.5356C27.5709 14.7492 26.0659 13.3928 24.2053 12.5018C22.2553 11.5682 20.0174 11.0947 17.5539 11.0947C14.863 11.0947 12.4517 11.6149 10.3868 12.6412C9.86039 12.9029 9.36415 13.1944 8.89913 13.5146C8.42851 13.8389 7.78981 13.5002 7.78981 12.9262V0.713501C7.79008 0.319438 7.47259 0 7.08094 0H0.709135C0.317483 0 0 0.319438 0 0.713501V40.7351C0 41.1291 0.317483 41.4486 0.709135 41.4486H1.29394C4.88177 41.4486 7.79008 38.5224 7.79008 34.9124V26.2712C7.79008 24.3619 8.1297 22.7641 8.79989 21.5221C9.46153 20.2921 10.4153 19.352 11.634 18.7274C12.8674 18.0963 14.3054 17.7763 15.9078 17.7763C18.0725 17.7763 19.7768 18.3886 20.9726 19.5963C22.1683 20.8054 22.7745 22.6817 22.7745 25.1728L22.7694 32.2705C23.1 32.6729 23.554 32.9698 24.1711 33.0908C24.3918 33.1217 24.6226 33.1426 24.8653 33.151C24.9478 33.1502 25.0265 33.152 25.1036 33.155C29.5158 33.1638 31.9623 29.1832 32.2611 28.8125C32.6058 28.3844 32.8254 27.8341 33.0388 27.3122C33.697 25.7032 34.2364 24.0357 34.9984 22.482C35.4351 21.5916 36.192 20.8582 36.8502 20.0959C37.0826 19.8269 37.2469 19.5888 37.244 19.2256C37.2421 18.9918 37.1818 18.2872 37.2136 18.0539C37.2965 17.4488 37.713 16.993 38.2498 17.2416C38.4245 17.3224 38.6433 17.8107 38.7297 17.9661C38.9797 18.4152 39.529 18.8162 39.949 18.893C40.6258 19.0168 41.3913 18.965 42.0057 19.2707C42.7855 19.6589 43.2631 20.0618 44.1283 20.1246C45.6549 20.2355 46.5385 20.2153 48.06 20.3912C48.6512 20.4593 49.176 20.9248 49.3878 21.4107C49.4756 21.612 49.6888 21.9529 49.8027 22.14C50.1893 22.7751 50.8845 22.894 51.0694 23.3415C51.3957 24.1313 50.6727 24.3525 49.8128 24.3433C50.0244 24.5122 50.6861 25.0359 50.8323 25.2141C50.8893 25.2837 51.3453 25.7741 51.102 26.0968C50.9064 26.3561 50.5508 26.4726 50.1063 26.3652C49.7563 26.2806 49.4329 25.966 48.8081 25.7389C48.1662 25.5057 47.2266 25.5277 46.9232 25.5958C45.0306 26.0208 43.7852 26.0278 41.8854 26.4146C40.9783 26.5993 40.3641 27.0312 39.9693 27.9245C39.0363 30.0339 38.1108 32.1529 37.0444 34.192C35.953 36.2793 34.4229 37.967 32.6367 39.3942C34.7433 40.6454 37.1799 41.3608 39.7764 41.3608C44.9231 41.3608 49.4415 38.553 52.0067 34.3238C52.0595 34.5514 52.1209 34.7755 52.1985 34.9935C53.1779 37.7361 55.2071 39.3873 57.787 40.333C61.4301 41.6682 65.1721 41.7251 68.9248 40.931C71.0407 40.4833 72.9664 39.565 74.5667 38.0131C77.5182 35.1503 77.8346 30.1147 75.2422 27.1377ZM68.4518 35.2013C66.2385 36.2157 63.9323 36.1969 61.6347 35.6128C59.9659 35.1887 58.7571 34.1514 58.2296 32.3816C58.1875 32.2402 57.9351 32.0753 57.7787 32.0737C56.2311 32.0565 54.6831 32.0638 53.1352 32.0582C53.8499 30.268 54.2453 28.3036 54.2453 26.2428C54.2453 25.8573 54.2315 25.4753 54.2042 25.0974C55.1436 26.224 56.424 27 57.8436 27.5995C60.0056 28.5124 62.3102 28.6477 64.5907 28.9465C65.9199 29.1207 67.2533 29.3808 68.5366 29.7711C69.504 30.0656 70.1827 30.8185 70.3404 31.9282C70.5437 33.3614 69.8946 34.5401 68.4518 35.2013Z" fill="#DA4536"/>
</g>
</g>
</g>
<defs>
<clipPath id="clip0_11_4">
<rect width="1440" height="7027" fill="white" transform="translate(-128 -15)"/>
</clipPath>
</defs>
</svg>
