<svg width="8" height="8" viewBox="0 0 282 282" fill="none" xmlns="http://www.w3.org/2000/svg">
<path d="M282 137.855C282 139.955 282 142.055 282 144.155C281.958 144.454 281.888 144.753 281.876 145.056C281.791 147.306 281.797 149.56 281.598 151.807C281.426 153.743 281.274 155.678 281.04 157.608C280.706 160.368 280.297 163.113 279.814 165.851C279.03 170.29 278.049 174.683 276.828 179.021C275.372 184.195 273.647 189.275 271.612 194.252C269.352 199.774 266.762 205.135 263.825 210.325C259.893 217.273 255.399 223.843 250.346 230.026C246.766 234.407 242.951 238.57 238.869 242.488C236.708 244.563 234.489 246.574 232.204 248.513C228.245 251.875 224.11 255.006 219.805 257.91C215.5 260.815 211.045 263.469 206.446 265.885C202.205 268.114 197.86 270.117 193.412 271.895C189.884 273.304 186.303 274.568 182.67 275.689C179.542 276.654 176.39 277.534 173.193 278.237C170.208 278.893 167.212 279.512 164.203 280.047C161.714 280.489 159.203 280.83 156.683 281.06C154.931 281.22 153.183 281.438 151.428 281.562C149.549 281.693 147.666 281.739 145.783 281.838C145.512 281.851 145.248 281.944 144.979 282C142.322 282 139.665 282 137.007 282C136.835 281.946 136.665 281.853 136.489 281.844C134.763 281.753 133.034 281.685 131.308 281.591C130.197 281.531 129.087 281.463 127.982 281.355C126.54 281.215 125.099 281.041 123.66 280.859C122.038 280.657 120.412 280.475 118.799 280.209C116.149 279.771 113.509 279.273 110.883 278.698C107.443 277.943 104.032 277.09 100.658 276.085C96.0967 274.726 91.6142 273.141 87.2186 271.323C85.1367 270.463 83.0915 269.511 81.0347 268.587C80.8049 268.484 80.5094 268.427 80.3529 268.085C80.6561 267.919 80.9188 267.77 81.1853 267.628C82.1104 267.132 83.0432 266.649 83.9586 266.138C86.8826 264.505 89.5593 262.521 92.1453 260.406C96.427 256.905 100.6 253.282 104.577 249.438C107.775 246.346 110.881 243.163 113.826 239.828C117.099 236.121 120.197 232.277 123.069 228.251C125.508 224.831 127.787 221.307 129.896 217.671C131.959 214.114 133.83 210.462 135.512 206.716C136.611 204.267 137.633 201.783 138.664 199.305C140.98 193.749 143.137 188.129 145.24 182.489C146.911 178.008 148.543 173.511 150.148 169.003C152.278 163.014 154.367 157.01 156.467 151.01C156.967 149.582 157.448 148.15 158.114 146.787C159.362 144.234 160.978 141.964 163.168 140.119C165.349 138.282 167.809 136.938 170.509 136.081C173.481 135.138 176.481 134.273 179.491 133.468C185.366 131.897 191.261 130.398 197.145 128.858C201.775 127.646 206.406 126.447 211.022 125.191C213.94 124.396 216.839 123.521 219.734 122.643C221.362 122.149 222.994 121.711 224.687 121.495C226.607 121.252 228.507 121.308 230.406 121.649C232.244 121.981 233.979 122.618 235.638 123.463C236.8 124.058 238.021 124.471 239.29 124.774C241.01 125.187 242.768 125.305 244.52 125.474C246.159 125.633 247.467 124.973 248.598 123.873C248.985 123.496 249.203 123.033 249.242 122.477C249.292 121.761 249.234 121.064 249.068 120.368C248.844 119.436 248.401 118.646 247.639 118.05C246.982 117.537 246.339 117.002 245.659 116.521C244.498 115.703 243.313 114.921 242.14 114.117C241.895 113.949 241.598 113.835 241.393 113.487C241.887 113.399 242.33 113.316 242.774 113.238C244.213 112.988 245.599 112.592 246.858 111.814C248.948 110.525 249.668 108.28 249.286 106.341C248.907 104.422 248.123 102.709 246.984 101.14C246.271 100.159 245.423 99.3042 244.541 98.4839C243.567 97.5807 242.561 96.7142 241.601 95.7955C239.487 93.7729 237.787 91.4299 236.344 88.894C235.427 87.2824 234.475 85.6922 233.191 84.3354C231.497 82.5463 229.429 81.5736 226.96 81.4829C225.664 81.4366 224.369 81.4057 223.073 81.369C220.819 81.3034 218.567 81.2339 216.313 81.1722C213.998 81.1066 211.682 81.0641 209.368 80.9811C206.498 80.8769 203.625 80.9425 200.755 80.8094C198.565 80.709 196.369 80.7399 194.175 80.7418C191.456 80.7437 188.738 80.7688 186.019 80.792C181.55 80.8306 177.137 80.3867 172.784 79.3619C170.407 78.8022 168.066 78.1306 165.777 77.2717C162.967 76.218 160.096 75.3707 157.146 74.8168C155.447 74.4984 153.74 74.2205 152.029 73.9754C150.715 73.7882 149.392 73.6531 148.069 73.5508C146.733 73.4485 145.443 73.1764 144.203 72.6784C141.609 71.6382 139.543 69.9282 137.868 67.7107C137.478 67.1954 137.057 66.6956 136.596 66.2459C135.12 64.8023 133.38 63.8662 131.306 63.6076C129.34 63.3625 127.787 64.0959 126.961 65.858C126.829 66.1359 126.713 66.4234 126.615 66.7149C126.277 67.7165 126.107 68.7548 126.072 69.8067C125.981 72.5549 126.132 75.2974 126.377 78.036C126.468 79.0512 126.507 80.0605 126.31 81.0776C126.03 82.5386 125.381 83.8297 124.529 85.0128C123.231 86.8154 121.883 88.5852 120.535 90.3511C118.362 93.1978 116.165 96.0271 114.174 99.0089C112.248 101.894 110.585 104.916 109.316 108.149C107.625 112.461 106.141 116.846 104.762 121.265C103.532 125.212 102.389 129.186 101.213 133.15C99.6001 138.592 98.0068 144.043 96.3768 149.479C95.5695 152.17 94.6888 154.837 93.617 157.437C92.8155 159.384 91.8904 161.264 90.6737 162.989C89.4454 164.73 88.2248 166.476 86.9676 168.196C82.4252 174.405 77.6009 180.391 72.6684 186.289C69.4721 190.109 65.4589 192.722 60.6751 194.144C57.4537 195.102 54.1532 195.515 50.8043 195.578C48.5177 195.623 46.2368 195.53 43.956 195.327C39.6956 194.947 35.5182 194.168 31.4374 192.888C27.4126 191.628 23.5848 189.922 19.9405 187.804C16.0799 185.56 12.5244 182.902 9.21804 179.907C7.61508 178.456 6.09323 176.921 4.60807 175.35C4.30872 175.034 4.05766 174.702 3.95144 174.256C2.80619 169.42 1.89848 164.539 1.2515 159.61C0.975331 157.498 0.753234 155.379 0.5659 153.256C0.366978 150.983 0.156468 148.703 0.0965982 146.422C-0.00962231 142.443 -0.083011 138.459 0.181575 134.482C0.334146 132.171 0.442298 129.857 0.660532 127.553C0.865248 125.372 1.18198 123.201 1.46008 121.026C1.81351 118.239 2.30985 115.475 2.86606 112.723C3.74286 108.398 4.84369 104.127 6.12992 99.9044C8.40883 92.4161 11.3096 85.1807 14.8014 78.175C18.2391 71.2792 22.2233 64.7135 26.7444 58.4759C31.4297 52.0124 36.621 45.9794 42.3376 40.3999C44.9023 37.8967 47.5521 35.4862 50.2925 33.1779C55.1401 29.0922 60.2464 25.3558 65.6037 21.9649C69.9646 19.2031 74.4664 16.698 79.1034 14.4226C83.7964 12.1202 88.6053 10.1053 93.5204 8.3355C99.0168 6.35536 104.629 4.76121 110.33 3.48744C113.221 2.8409 116.13 2.27349 119.064 1.85855C121.02 1.58257 122.976 1.30658 124.938 1.08464C126.872 0.868482 128.811 0.706365 130.75 0.548109C132.32 0.420731 133.894 0.347393 135.464 0.227735C135.982 0.189136 136.495 0.0771984 137.011 0C139.668 0 142.326 0 144.983 0C145.57 0.231595 146.198 0.194926 146.808 0.235455C150.319 0.46898 153.836 0.650397 157.33 1.10394C159.41 1.37413 161.498 1.59994 163.57 1.92996C167.378 2.53597 171.162 3.29058 174.903 4.2324C180.895 5.74356 186.784 7.57316 192.537 9.8428C197.309 11.7245 201.97 13.8455 206.51 16.229C210.888 18.5257 215.129 21.052 219.245 23.7925C226.746 28.7892 233.687 34.4729 240.11 40.7858C242.598 43.2311 244.975 45.7844 247.274 48.4111C251.629 53.3923 255.613 58.6534 259.226 64.1943C261.874 68.255 264.308 72.4449 266.523 76.7584C268.187 79.9988 269.707 83.3067 271.129 86.6591C273.323 91.8372 275.136 97.1465 276.697 102.545C277.784 106.308 278.663 110.124 279.406 113.97C280.187 118 280.82 122.055 281.229 126.14C281.316 126.999 281.405 127.858 281.48 128.719C281.577 129.825 281.695 130.928 281.743 132.038C281.815 133.673 281.83 135.308 281.882 136.942C281.886 137.255 281.958 137.554 282 137.855Z" fill="#DA4536"/>
</svg>
