<svg width="56" height="57" viewBox="0 0 56 57" fill="none" xmlns="http://www.w3.org/2000/svg">
<g id="Group 459">
<path id="Vector" d="M27.6926 25.3737C29.9151 25.3848 32.0507 24.512 33.6289 22.9471C35.2071 21.3825 36.0983 19.2541 36.1059 17.032C36.1132 14.8094 35.2369 12.675 33.6694 11.0994C32.1019 9.52419 29.9722 8.63652 27.7496 8.6327C25.5271 8.62887 23.3944 9.50938 21.8218 11.0795C20.2487 12.6496 19.3648 14.7809 19.3648 17.0031C19.3613 19.2167 20.2363 21.3413 21.7979 22.9105C23.3591 24.4797 25.4788 25.3658 27.6925 25.3739L27.6926 25.3737ZM27.6926 12.2987C28.9426 12.2872 30.1461 12.7739 31.0364 13.6511C31.9271 14.5286 32.4322 15.7245 32.4398 16.9745C32.4475 18.2245 31.9569 19.4264 31.0769 20.3145C30.1972 21.2022 29.0001 21.7038 27.7496 21.7077C26.4996 21.7116 25.299 21.2176 24.4139 20.335C23.5283 19.4524 23.0309 18.2535 23.0309 17.0031C23.0258 15.7616 23.5142 14.5683 24.3882 13.6865C25.2623 12.8043 26.4505 12.3053 27.6925 12.2988L27.6926 12.2987Z" fill="url(#paint0_linear_807_7390)"/>
<path id="Vector_2" d="M54.8813 50.0511L50.0666 34.6237C49.7572 33.6307 49.1388 32.7618 48.3013 32.1441C47.4643 31.5266 46.4517 31.1924 45.4109 31.1903H38.6107L41.0544 27.9096L41.0548 27.9091C43.5821 24.6015 44.8453 20.4999 44.6169 16.343C44.0181 7.30056 36.625 0.20105 27.7897 0.20105C18.9552 0.20105 11.5561 7.30089 10.9506 16.343C10.7222 20.4997 11.9854 24.6012 14.5126 27.9091L16.9564 31.1899L10.4251 31.1903C9.40518 31.1903 8.41088 31.51 7.58158 32.1036C6.75179 32.6977 6.12919 33.5361 5.80013 34.5017L0.545678 49.9291C0.0299866 51.4237 0.269077 53.0756 1.18709 54.3627C2.10553 55.6498 3.58989 56.4131 5.17114 56.4118H50.2126C51.7716 56.4139 53.238 55.6724 54.1604 54.416C55.0827 53.1591 55.3503 51.5379 54.8807 50.0514L54.8813 50.0511ZM14.612 16.5877C15.0272 10.3433 20.074 3.86729 27.7907 3.86729C35.5077 3.86729 40.5243 10.3436 40.964 16.5877C41.134 19.8715 40.1265 23.1085 38.123 25.7158L27.7909 39.548L17.4533 25.7158C15.449 23.1085 14.4415 19.8715 14.6124 16.5877H14.612ZM10.4269 34.8561L19.7075 34.8557L26.3182 43.703C26.6642 44.1666 27.2089 44.4403 27.7877 44.4403C28.3664 44.4403 28.9111 44.1666 29.2572 43.703L35.8683 34.8557H45.4115C45.9459 34.8553 46.4186 35.2018 46.5788 35.7111L47.5381 38.766H36.9253V42.4321H48.6681L49.6211 45.487H27.9443C27.458 45.487 26.9918 45.6801 26.6482 46.024C26.3043 46.3675 26.1112 46.8338 26.1112 47.3201V52.7455H20.4105L20.9727 43.1651C21.0017 42.6614 20.821 42.1679 20.474 41.8013C20.1271 41.4348 19.6447 41.2277 19.14 41.2285H7.37861L9.26665 35.6808C9.4367 35.1852 9.9038 34.8536 10.4272 34.8557L10.4269 34.8561ZM4.18246 52.2135C3.95231 51.893 3.89094 51.4813 4.01752 51.1075L6.13141 44.8937H17.1782L16.7384 52.7449H5.17226C4.77548 52.739 4.4064 52.5408 4.18223 52.2135L4.18246 52.2135ZM51.2281 52.2135C50.9989 52.5276 50.6336 52.7134 50.2445 52.7143H29.7766V49.1706H50.7638L51.375 51.1378L51.3746 51.1382C51.4918 51.5082 51.4261 51.9118 51.1977 52.2254L51.2281 52.2135Z" fill="url(#paint1_linear_807_7390)"/>
</g>
<defs>
<linearGradient id="paint0_linear_807_7390" x1="27.7354" y1="8.63269" x2="27.7354" y2="25.3739" gradientUnits="userSpaceOnUse">
<stop stop-color="#E34338"/>
<stop offset="1" stop-color="#D02C1C"/>
</linearGradient>
<linearGradient id="paint1_linear_807_7390" x1="27.693" y1="0.20105" x2="27.693" y2="56.4118" gradientUnits="userSpaceOnUse">
<stop stop-color="#E34338"/>
<stop offset="1" stop-color="#D02C1C"/>
</linearGradient>
</defs>
</svg>
