<svg width="106" height="90" viewBox="0 0 106 90" fill="none" xmlns="http://www.w3.org/2000/svg">
<path d="M9.09967 89.4866C8.09186 89.4866 7.19579 88.5905 7.19579 87.5827V70.4469C9.99577 70.2227 12.5715 69.1031 14.5879 67.0867L24.2198 57.4548V87.5826C24.2198 88.5904 23.3238 89.4864 22.316 89.4864L9.09967 89.4866ZM46.0594 89.4866C47.0672 89.4866 47.9632 88.5905 47.9632 87.5827V69.6625C44.9391 69.5508 42.1391 68.4305 40.0109 66.3023L30.9392 57.2306V87.5824C30.9392 88.5902 31.8353 89.4862 32.8431 89.4862L46.0594 89.4866ZM69.6912 89.4866C70.699 89.4866 71.595 88.5905 71.595 87.5827V51.0711L56.3632 66.3029C55.803 66.8631 55.1311 67.4232 54.4593 67.8709V87.5825C54.4593 88.5903 55.3554 89.4864 56.3632 89.4864L69.6912 89.4866ZM93.323 89.4866C94.3308 89.4866 95.2269 88.5905 95.2269 87.5827V29.9032C94.7792 29.5673 94.4425 29.2314 94.219 29.0071L93.9948 28.7829L78.2028 44.4632V87.5828C78.2028 88.5906 79.0988 89.4867 80.1066 89.4867L93.323 89.4866ZM31.3875 31.6951C30.3797 30.6873 29.0351 30.1272 27.5797 30.1272C26.1235 30.1272 24.7797 30.6873 23.7719 31.6951L1.59614 53.9829C-0.532046 56.1111 -0.532046 59.4711 1.59614 61.4869L2.60395 62.4947C3.61254 63.615 4.95633 64.1751 6.41252 64.1751C7.8687 64.1751 9.21249 63.615 10.2203 62.6072L27.6919 45.1355L44.4918 61.9354C45.4996 62.9432 46.8442 63.5033 48.2996 63.5033C49.7558 63.5033 51.0995 62.9432 52.1073 61.9354L94.107 19.9357C94.2187 20.0475 94.3312 20.16 94.4429 20.2717C95.4507 21.2795 96.5711 22.3999 97.5789 23.4076L98.9227 24.7514C99.4828 25.3116 100.266 26.0951 101.498 26.0951C101.946 26.0951 102.506 25.9834 103.066 25.6475C103.402 25.4233 103.738 25.1998 103.962 24.9756C104.859 24.0795 105.083 22.8474 105.083 21.9514C105.307 17.9195 105.419 13.9991 105.643 9.96714L105.979 3.91959C106.091 2.57584 105.755 1.67981 105.083 1.00781C104.411 0.335817 103.515 0 102.283 0H101.947C95.7867 0.335937 89.6266 0.560155 83.4674 0.896092C82.683 0.896092 81.5635 1.00781 80.6674 1.9039C80.4432 2.12812 80.2198 2.46406 79.9956 2.91172C79.0995 4.9273 80.3315 6.15929 81.0034 6.83208L82.5713 8.40003C83.6916 9.52034 84.6995 10.5282 85.8189 11.6476L48.1872 48.4953L31.3875 31.6951Z" fill="url(#paint0_linear_246_2145)"/>
<defs>
<linearGradient id="paint0_linear_246_2145" x1="53" y1="0" x2="53" y2="89.4867" gradientUnits="userSpaceOnUse">
<stop stop-color="#E34338"/>
<stop offset="0.520833" stop-color="#CC3F31"/>
<stop offset="1" stop-color="#D02C1C"/>
</linearGradient>
</defs>
</svg>
