<svg width="51" height="53" viewBox="0 0 51 53" fill="none" xmlns="http://www.w3.org/2000/svg">
<g id="Group 430">
<path id="Vector" d="M16.5809 8.88466C14.8431 11.1251 14.2212 13.9276 14.7663 16.7642C18.5485 11.9087 24.7245 6.71247 27.8079 4.2417C22.8504 4.27582 18.9063 5.8857 16.5805 8.88426L16.5809 8.88466Z" fill="url(#paint0_linear_807_7119)"/>
<path id="Vector_2" d="M13.0703 16.8751C12.4997 13.6295 13.2323 10.418 15.234 7.8371C16.2223 6.55934 17.4573 5.50287 18.9055 4.6766C17.1591 2.84516 14.723 1.4141 11.5028 0.323486C8.80266 8.70583 9.32232 14.1492 13.0703 16.8749V16.8751Z" fill="url(#paint1_linear_807_7119)"/>
<path id="Vector_3" d="M15.8994 18.0847C20.0565 18.9961 23.3103 18.5019 25.5595 16.5767C29.0605 13.5954 29.444 7.90492 29.4099 5.13647C26.582 7.3942 19.733 13.0592 15.8995 18.0847H15.8994Z" fill="url(#paint2_linear_807_7119)"/>
<path id="Vector_4" d="M15.3532 50.7277C15.3532 51.8607 16.2733 52.7807 17.4062 52.7807H33.9155C35.0485 52.7807 35.9686 51.8607 35.9686 50.7277V48.4531H15.353L15.3532 50.7277Z" fill="url(#paint3_linear_807_7119)"/>
<path id="Vector_5" d="M50.4342 9.0975C50.3063 7.86211 49.693 6.75504 48.7219 5.97104C47.7509 5.1957 46.5328 4.83805 45.2975 4.97451C44.0621 5.11099 42.955 5.72396 42.1797 6.68679L32.6475 18.5698H44.5817L49.4372 12.513C50.2211 11.542 50.5705 10.3239 50.4341 9.09722L50.4342 9.0975ZM47.785 8.50139C47.4952 8.86768 46.9587 8.9273 46.5924 8.62924C46.0559 8.20333 45.2551 8.30569 44.8375 8.82532C44.6673 9.02965 44.4202 9.14063 44.1731 9.14063C43.9857 9.14063 43.7982 9.08102 43.6366 8.95317C43.2703 8.66335 43.2107 8.12685 43.5088 7.76055C44.0712 7.05346 44.9143 6.65307 45.8089 6.65307C46.2775 6.65307 46.9846 6.76367 47.6576 7.30055C48.0235 7.59821 48.0831 8.13509 47.785 8.50139Z" fill="url(#paint4_linear_807_7119)"/>
<path id="Vector_6" d="M3.30029 31.1355C3.30029 38.2826 7.84918 44.5435 14.6381 46.7503H36.6843C39.9723 45.6856 42.7834 43.6411 44.8364 40.8382C46.9236 37.9929 48.0224 34.6367 48.0224 31.1357V27.0637H3.30059L3.30029 31.1355ZM18.7705 34.7898C18.7705 34.3211 19.1536 33.938 19.6223 33.938H22.6973V30.8629C22.6973 30.3943 23.0805 30.0111 23.5491 30.0111H27.7745C28.2431 30.0111 28.6263 30.3943 28.6263 30.8629V33.938H31.7013C32.17 33.938 32.5531 34.3211 32.5531 34.7898V39.0151C32.5531 39.4837 32.17 39.8669 31.7013 39.8669H28.6263V42.942C28.6263 43.4106 28.2431 43.7938 27.7745 43.7938H23.5491C23.0805 43.7938 22.6973 43.4106 22.6973 42.942V39.8669H19.6223C19.1536 39.8669 18.7705 39.4837 18.7705 39.0151V34.7898Z" fill="url(#paint5_linear_807_7119)"/>
<path id="Vector_7" d="M49.3428 20.2734H1.97956C1.23011 20.2734 0.625 20.8782 0.625 21.628V23.996C0.625 24.7454 1.22973 25.3505 1.97956 25.3505H49.3428C50.0923 25.3505 50.6974 24.7458 50.6974 23.996V21.628C50.6974 20.8868 50.0923 20.2734 49.3428 20.2734Z" fill="url(#paint6_linear_807_7119)"/>
</g>
<defs>
<linearGradient id="paint0_linear_807_7119" x1="21.1913" y1="4.2417" x2="21.1913" y2="16.7642" gradientUnits="userSpaceOnUse">
<stop stop-color="#E34338"/>
<stop offset="1" stop-color="#D02C1C"/>
</linearGradient>
<linearGradient id="paint1_linear_807_7119" x1="14.3553" y1="0.323486" x2="14.3553" y2="16.8751" gradientUnits="userSpaceOnUse">
<stop stop-color="#E34338"/>
<stop offset="1" stop-color="#D02C1C"/>
</linearGradient>
<linearGradient id="paint2_linear_807_7119" x1="22.6556" y1="5.13647" x2="22.6556" y2="18.5271" gradientUnits="userSpaceOnUse">
<stop stop-color="#E34338"/>
<stop offset="1" stop-color="#D02C1C"/>
</linearGradient>
<linearGradient id="paint3_linear_807_7119" x1="25.6608" y1="48.4531" x2="25.6608" y2="52.7807" gradientUnits="userSpaceOnUse">
<stop stop-color="#E34338"/>
<stop offset="1" stop-color="#D02C1C"/>
</linearGradient>
<linearGradient id="paint4_linear_807_7119" x1="41.5552" y1="4.94604" x2="41.5552" y2="18.5698" gradientUnits="userSpaceOnUse">
<stop stop-color="#E34338"/>
<stop offset="1" stop-color="#D02C1C"/>
</linearGradient>
<linearGradient id="paint5_linear_807_7119" x1="25.6614" y1="27.0637" x2="25.6614" y2="46.7503" gradientUnits="userSpaceOnUse">
<stop stop-color="#E34338"/>
<stop offset="1" stop-color="#D02C1C"/>
</linearGradient>
<linearGradient id="paint6_linear_807_7119" x1="25.6612" y1="20.2734" x2="25.6612" y2="25.3505" gradientUnits="userSpaceOnUse">
<stop stop-color="#E34338"/>
<stop offset="1" stop-color="#D02C1C"/>
</linearGradient>
</defs>
</svg>
