<svg width="210" height="153" viewBox="0 0 210 153" fill="none" xmlns="http://www.w3.org/2000/svg">
<rect width="209.139" height="152.716" rx="7.16284" fill="white"/>
<path d="M104.638 135.448C136.571 135.448 162.458 109.561 162.458 77.6277C162.458 45.6945 136.571 19.8076 104.638 19.8076C72.7048 19.8076 46.8179 45.6945 46.8179 77.6277C46.8179 109.561 72.7048 135.448 104.638 135.448Z" fill="#243C63"/>
<path d="M153.741 89.7888C153.741 90.2488 153.372 90.6111 152.904 90.6111C152.434 90.6111 152.063 90.2468 152.063 89.7888C152.063 89.3309 152.436 88.9727 152.908 88.9727C153.372 88.9727 153.741 89.3309 153.741 89.7888ZM152.271 89.7888C152.271 90.1532 152.546 90.4401 152.908 90.4401C153.262 90.4483 153.531 90.1511 153.531 89.7929C153.531 89.4306 153.262 89.1355 152.898 89.1355C152.544 89.1355 152.271 89.4306 152.271 89.7888ZM152.774 90.2122H152.585V89.396C152.66 89.3858 152.766 89.3716 152.9 89.3716C153.053 89.3716 153.124 89.396 153.179 89.4367C153.228 89.4713 153.262 89.5303 153.262 89.6097C153.262 89.7095 153.187 89.7746 153.093 89.8051V89.8153C153.173 89.8417 153.213 89.9048 153.238 90.0148C153.262 90.1389 153.283 90.1837 153.297 90.2142H153.097C153.073 90.1837 153.057 90.1145 153.032 90.0148C153.016 89.9313 152.967 89.8906 152.863 89.8906H152.774V90.2122ZM152.778 89.7542H152.867C152.971 89.7542 153.057 89.7196 153.057 89.6362C153.057 89.5609 153.002 89.51 152.884 89.51C152.833 89.51 152.798 89.5161 152.778 89.5202V89.7542Z" fill="#FBFBFB"/>
<path d="M85.1535 105.05C84.6243 104.547 83.9262 104.175 83.0693 103.918C82.2063 103.67 81.1602 103.546 79.9288 103.546C78.6954 103.546 77.6451 103.672 76.7801 103.918C75.911 104.173 75.2109 104.545 74.6735 105.05C74.1362 105.552 73.7413 106.179 73.4951 106.937C73.2447 107.688 73.1226 108.569 73.1287 109.578C73.1246 110.59 73.2467 111.463 73.491 112.206C73.7332 112.949 74.1219 113.562 74.6552 114.046C75.1885 114.53 75.8866 114.889 76.7475 115.125C77.6126 115.363 78.6587 115.479 79.8921 115.479C81.1337 115.479 82.19 115.363 83.0551 115.129C83.9221 114.893 84.6202 114.534 85.1535 114.052C85.6827 113.572 86.0714 112.957 86.3157 112.216C86.5599 111.473 86.678 110.592 86.6739 109.578C86.678 108.567 86.5599 107.688 86.3157 106.937C86.0714 106.181 85.6868 105.552 85.1535 105.05ZM81.8074 109.99C81.8094 110.142 81.8094 110.297 81.8013 110.46C81.8013 110.629 81.7952 110.8 81.7789 110.971C81.7626 111.144 81.7362 111.31 81.6873 111.469C81.6344 111.697 81.5408 111.915 81.4105 112.112C81.2802 112.316 81.095 112.479 80.8549 112.607C80.6147 112.733 80.3053 112.798 79.9267 112.8C79.5421 112.798 79.2266 112.733 78.9803 112.607C78.7361 112.479 78.5468 112.316 78.4124 112.112C78.2761 111.915 78.1825 111.697 78.1295 111.469C78.0827 111.31 78.0542 111.144 78.0379 110.971C78.0217 110.8 78.0176 110.627 78.0176 110.46V108.699C78.0176 108.526 78.0217 108.357 78.0379 108.188C78.0542 108.015 78.0827 107.846 78.1295 107.688C78.1825 107.46 78.2761 107.246 78.4124 107.04C78.5468 106.841 78.7361 106.678 78.9803 106.552C79.2266 106.426 79.5421 106.361 79.9267 106.356C80.3033 106.358 80.6127 106.424 80.8549 106.552C81.095 106.68 81.2802 106.841 81.4105 107.04C81.5408 107.244 81.6364 107.46 81.6873 107.688C81.7341 107.846 81.7626 108.015 81.7789 108.188C81.7932 108.359 81.8013 108.53 81.8013 108.699C81.8094 108.858 81.8094 109.015 81.8074 109.167C81.8033 109.316 81.8013 109.454 81.8013 109.58C81.8013 109.701 81.8033 109.837 81.8074 109.99Z" fill="#FBFBFB"/>
<path d="M68.1035 103.584C66.6238 103.584 65.3721 103.721 64.3422 103.99C63.3184 104.258 62.4921 104.651 61.8672 105.17C61.2403 105.691 60.7864 106.326 60.5035 107.079C60.2206 107.83 60.0802 108.687 60.0843 109.656C60.0802 110.59 60.2288 111.414 60.5239 112.133C60.821 112.849 61.2831 113.458 61.9161 113.95C62.547 114.441 63.3652 114.811 64.3666 115.066C65.37 115.32 66.579 115.446 67.9895 115.446C68.6449 115.446 69.282 115.418 69.9048 115.357C70.5276 115.298 71.1362 115.204 71.7366 115.074V112.45C71.3458 112.511 70.9652 112.556 70.5988 112.597C70.2264 112.636 69.8519 112.656 69.4713 112.656C68.7813 112.652 68.1686 112.571 67.6293 112.408C67.0919 112.245 66.634 112.023 66.2636 111.742C65.8931 111.461 65.6061 111.142 65.4148 110.783C65.2255 110.427 65.1238 110.053 65.1238 109.658C65.1217 109.18 65.1991 108.752 65.3558 108.374C65.5125 107.997 65.769 107.676 66.119 107.411C66.4691 107.15 66.9352 106.949 67.5112 106.813C68.0913 106.672 68.7996 106.603 69.6422 106.603C69.9862 106.603 70.3322 106.625 70.6762 106.666C71.0242 106.705 71.3763 106.76 71.7407 106.827V103.922C71.1382 103.802 70.5317 103.717 69.9231 103.664C69.3084 103.609 68.7039 103.584 68.1035 103.584Z" fill="#FBFBFB"/>
<path d="M122.437 106.128C122.093 105.609 121.662 105.156 121.138 104.773C120.615 104.388 119.997 104.093 119.284 103.881C118.572 103.668 117.764 103.564 116.858 103.564C115.767 103.57 114.839 103.664 114.078 103.845C113.313 104.026 112.686 104.282 112.191 104.612C111.703 104.944 111.318 105.339 111.045 105.793C110.77 106.253 110.581 106.761 110.473 107.317C110.365 107.877 110.315 108.475 110.317 109.11V118.367H114.945V114.581C115.44 114.821 115.875 115.009 116.25 115.139C116.624 115.269 116.972 115.359 117.286 115.41C117.605 115.459 117.925 115.485 118.242 115.481C119.032 115.479 119.72 115.373 120.304 115.176C120.888 114.974 121.381 114.697 121.784 114.337C122.187 113.979 122.512 113.562 122.759 113.079C123.003 112.601 123.18 112.082 123.29 111.518C123.398 110.956 123.457 110.372 123.453 109.768C123.453 109.094 123.369 108.449 123.204 107.832C123.033 107.215 122.779 106.645 122.437 106.128ZM118.466 110.236C118.44 110.462 118.403 110.671 118.354 110.863C118.305 111.056 118.25 111.256 118.187 111.471C118.128 111.669 118.016 111.856 117.849 112.037C117.68 112.216 117.473 112.363 117.218 112.475C116.966 112.591 116.685 112.648 116.37 112.652C116.142 112.648 115.94 112.601 115.779 112.511C115.615 112.422 115.47 112.312 115.348 112.18C115.23 112.047 115.118 111.917 115.02 111.789L115 107.407C115.087 107.248 115.203 107.103 115.348 106.975C115.492 106.845 115.667 106.743 115.873 106.664C116.079 106.584 116.319 106.548 116.596 106.546C116.907 106.55 117.18 106.601 117.414 106.704C117.644 106.812 117.835 106.951 117.986 107.13C118.13 107.303 118.238 107.504 118.301 107.726C118.352 107.873 118.397 108.089 118.44 108.367C118.482 108.648 118.505 109.002 118.507 109.432C118.507 109.741 118.495 110.012 118.466 110.236Z" fill="#FBFBFB"/>
<path d="M146.511 105.382C145.978 104.814 145.3 104.374 144.478 104.057C143.66 103.745 142.689 103.585 141.571 103.582C140.7 103.574 139.843 103.619 138.999 103.707C138.156 103.796 137.328 103.959 136.511 104.199V106.859C137.183 106.69 137.849 106.558 138.504 106.462C139.159 106.369 139.821 106.318 140.484 106.318C140.655 106.318 140.853 106.328 141.077 106.349C141.299 106.371 141.527 106.412 141.757 106.471C141.986 106.53 142.202 106.617 142.4 106.723C142.599 106.831 142.76 106.975 142.88 107.146C143.002 107.317 143.065 107.531 143.067 107.779V108.341C142.253 108.221 141.467 108.16 140.712 108.16C139.957 108.158 139.255 108.223 138.61 108.357C137.963 108.49 137.397 108.691 136.914 108.97C136.43 109.247 136.051 109.603 135.781 110.041C135.51 110.474 135.372 110.997 135.368 111.602C135.372 112.28 135.514 112.866 135.799 113.362C136.086 113.861 136.497 114.264 137.041 114.588C137.582 114.909 138.235 115.145 139.003 115.302C139.77 115.457 140.637 115.536 141.606 115.536C142.573 115.538 143.413 115.489 144.138 115.385C144.86 115.284 145.473 115.111 145.98 114.864C146.483 114.618 146.892 114.284 147.201 113.857C147.512 113.432 147.738 112.896 147.881 112.251C148.021 111.606 148.093 110.834 148.09 109.933C148.09 109.009 147.962 108.162 147.7 107.393C147.441 106.621 147.046 105.95 146.511 105.382ZM143.163 111.677C143.159 111.905 143.104 112.102 142.992 112.261C142.88 112.422 142.733 112.552 142.552 112.648C142.371 112.75 142.174 112.819 141.962 112.866C141.752 112.91 141.545 112.931 141.347 112.931C140.977 112.929 140.678 112.874 140.446 112.758C140.214 112.646 140.043 112.489 139.935 112.29C139.825 112.09 139.772 111.862 139.772 111.604C139.77 111.142 139.908 110.79 140.193 110.547C140.476 110.305 140.918 110.183 141.514 110.181C141.655 110.181 141.805 110.183 141.956 110.195C142.113 110.203 142.288 110.222 142.481 110.252C142.674 110.281 142.902 110.317 143.161 110.366V111.677H143.163Z" fill="#FBFBFB"/>
<path d="M130.853 103.546C130.023 103.548 129.257 103.682 128.549 103.945C127.843 104.207 127.224 104.572 126.695 105.04C126.168 105.506 125.755 106.057 125.457 106.68C125.162 107.307 125.014 107.985 125.008 108.716V115.31H129.805V109.709C129.801 109.361 129.842 109.031 129.927 108.716C130.008 108.4 130.151 108.115 130.352 107.867C130.552 107.614 130.825 107.417 131.175 107.27C131.521 107.128 131.958 107.053 132.483 107.049C132.756 107.053 133.033 107.077 133.318 107.13C133.599 107.185 133.878 107.244 134.152 107.311V103.827C133.603 103.698 133.063 103.621 132.526 103.587C131.987 103.554 131.431 103.54 130.853 103.546Z" fill="#FBFBFB"/>
<path d="M107.514 105.428C107.089 105.05 106.6 104.726 106.038 104.449C105.481 104.175 104.884 103.961 104.251 103.81C103.62 103.66 102.981 103.584 102.334 103.584C101.87 103.58 101.418 103.631 100.968 103.731C100.522 103.835 100.083 104.002 99.6432 104.244C99.2056 104.478 98.7721 104.804 98.3406 105.215C97.9681 104.793 97.5631 104.462 97.1255 104.221C96.6838 103.981 96.232 103.808 95.7659 103.709C95.2978 103.609 94.8378 103.562 94.3859 103.564C94.2048 103.564 93.9585 103.58 93.641 103.617C93.3255 103.652 92.9754 103.713 92.5806 103.802C92.1878 103.89 91.7827 104.008 91.3614 104.156C90.9462 104.309 90.5452 104.496 90.1565 104.728C89.7657 104.956 89.4217 105.231 89.1185 105.551C88.8152 105.872 88.5811 106.245 88.4183 106.668C88.2555 107.093 88.1863 107.574 88.2168 108.117L88.6666 115.312H93.2767L93.0324 107.329C93.2706 107.089 93.523 106.914 93.7916 106.808C94.0603 106.705 94.331 106.652 94.6058 106.656C95.0271 106.66 95.3527 106.729 95.5868 106.871C95.8188 107.012 95.9837 107.195 96.0732 107.425C96.1669 107.657 96.2137 107.914 96.2157 108.19L96.3277 115.31H100.712L100.805 108.19C100.803 107.92 100.848 107.665 100.946 107.435C101.039 107.201 101.204 107.016 101.442 106.873C101.677 106.733 102 106.66 102.417 106.656C102.816 106.66 103.132 106.737 103.374 106.886C103.612 107.036 103.779 107.228 103.883 107.462C103.983 107.692 104.027 107.936 104.009 108.192L103.785 115.312H108.357L108.788 108.117C108.812 107.608 108.709 107.128 108.481 106.674C108.263 106.218 107.939 105.803 107.514 105.428Z" fill="#FBFBFB"/>
<path d="M99.8385 86.4937V101.915H105.778V87.552C104.042 87.8431 101.851 87.2325 99.8385 86.4937Z" fill="#FBFBFB"/>
<path d="M74.6959 97.0408C75.0603 96.1921 75.4327 95.3067 75.8052 94.3847L76.6315 94.6208C76.5888 95.494 76.5644 96.3407 76.5522 97.1569C76.5379 97.973 76.5339 98.777 76.5379 99.5626C76.544 100.35 76.5542 101.136 76.5685 101.915H81.7016V86.0093H75.2943C74.8384 86.9679 74.3784 87.9327 73.9083 88.8995C73.4381 89.8642 72.9781 90.8534 72.5222 91.8548C72.0642 92.8582 71.6348 93.8962 71.2216 94.9587H70.4787C70.0533 93.8942 69.6157 92.8623 69.17 91.8589C68.7242 90.8595 68.2724 89.8744 67.8205 88.9076C67.3687 87.9429 66.9169 86.972 66.4691 86.0093H60.0455V101.915H64.9873V96.762L64.9446 94.7267L65.7506 94.3847C66.1109 95.3291 66.4691 96.2267 66.8212 97.0795C67.1753 97.9282 67.5254 98.7505 67.8755 99.5463C68.2296 100.346 68.5797 101.134 68.9318 101.913H72.5588C72.9048 101.12 73.2549 100.32 73.6131 99.5158C73.9714 98.7139 74.3316 97.8855 74.6959 97.0408Z" fill="#FBFBFB"/>
<path d="M94.7645 101.932C95.6051 101.858 96.4192 101.73 97.2069 101.553V98.4147C96.4966 98.5409 95.7923 98.6304 95.0922 98.6793C94.3961 98.7322 93.7061 98.7566 93.0283 98.7525C92.778 98.7566 92.5052 98.7464 92.204 98.7241C91.9007 98.6996 91.5954 98.6508 91.282 98.5755C90.9665 98.4981 90.6694 98.3801 90.3844 98.2213C90.0974 98.0626 89.843 97.8468 89.6232 97.5741C89.4034 97.3014 89.2385 96.9594 89.1266 96.5462H97.8643C97.907 96.2165 97.9396 95.899 97.96 95.5856C97.9803 95.2741 97.9925 94.9668 97.9925 94.6595C97.9966 93.3833 97.7483 92.2964 97.2557 91.3968C96.7632 90.4952 96.0162 89.8113 95.0087 89.333C93.9971 88.8587 92.7149 88.6186 91.164 88.6145C89.4278 88.6206 88.0071 88.8913 86.904 89.4307C85.7967 89.968 84.9826 90.7394 84.4575 91.7449C83.9344 92.7463 83.6718 93.9532 83.6759 95.3596C83.68 96.8922 84.0158 98.1501 84.6753 99.1393C85.3388 100.124 86.3097 100.857 87.5797 101.331C88.8518 101.808 90.4088 102.044 92.2427 102.042C93.0853 102.046 93.9259 102.007 94.7645 101.932ZM89.21 93.1615C89.2813 92.8724 89.3871 92.6282 89.5316 92.4267C89.672 92.2272 89.8776 92.0766 90.1442 91.9728C90.4109 91.869 90.763 91.8181 91.2047 91.8181C91.6158 91.8181 91.9516 91.8792 92.2101 91.9911C92.4666 92.1072 92.6681 92.2679 92.8146 92.4776C92.9551 92.6872 93.0589 92.9294 93.122 93.2144C93.181 93.4973 93.2258 93.8128 93.242 94.1527H89.0228C89.0716 93.7802 89.1367 93.4505 89.21 93.1615Z" fill="#FBFBFB"/>
<path d="M149.304 88.6387C148.695 88.6062 148.066 88.5878 147.413 88.5939C146.47 88.598 145.605 88.7486 144.803 89.0458C144.004 89.3429 143.303 89.7561 142.703 90.2873C142.105 90.8165 141.638 91.4394 141.303 92.1477C140.971 92.8539 140.8 93.6212 140.794 94.4496V101.913H146.224V95.5731C146.222 95.1803 146.267 94.8058 146.362 94.4496C146.454 94.0914 146.617 93.7698 146.843 93.4869C147.069 93.1999 147.38 92.9781 147.773 92.8132C148.166 92.6504 148.658 92.5649 149.257 92.5629C149.564 92.5649 149.88 92.5934 150.201 92.6524C150.519 92.7114 150.834 92.7806 151.146 92.858V88.9135C150.523 88.769 149.912 88.6794 149.304 88.6387Z" fill="#FBFBFB"/>
<path d="M122.087 101.913V94.9584C122.087 94.2522 121.987 93.5886 121.79 92.9658C121.588 92.343 121.281 91.7914 120.868 91.3111C120.453 90.8307 119.925 90.4562 119.278 90.1794C118.635 89.9067 117.868 89.7663 116.976 89.7622C116.589 89.7581 116.199 89.7907 115.792 89.8558C115.389 89.923 114.955 90.0431 114.483 90.2161C114.013 90.3911 113.488 90.6333 112.903 90.9488V86.0518C111.483 86.5321 109.852 86.9025 107.642 87.2608V101.913H112.922V93.9815C113.233 93.6884 113.567 93.4869 113.911 93.379C114.257 93.265 114.595 93.2121 114.916 93.2182C115.393 93.2202 115.771 93.3057 116.048 93.4665C116.325 93.6293 116.522 93.8369 116.636 94.1015C116.752 94.3641 116.809 94.6491 116.807 94.9584V101.913H122.087Z" fill="#FBFBFB"/>
<path d="M138.649 98.4104C138.925 97.5698 139.06 96.5745 139.056 95.4245C139.06 94.2827 138.925 93.2874 138.649 92.4346C138.587 92.2433 138.516 92.0621 138.437 91.885L134.633 90.214L130.314 88.6326C129.386 88.6896 128.565 88.8178 127.855 89.0213C126.874 89.3063 126.078 89.7317 125.47 90.2995C124.861 90.8694 124.415 91.5818 124.137 92.4346C123.854 93.2874 123.717 94.2847 123.719 95.4245C123.717 96.5704 123.854 97.5596 124.13 98.4002C124.405 99.2408 124.845 99.9348 125.447 100.482C126.052 101.03 126.841 101.437 127.816 101.706C128.795 101.974 129.978 102.102 131.376 102.102C132.785 102.102 133.979 101.974 134.958 101.708C135.937 101.443 136.729 101.036 137.334 100.488C137.934 99.947 138.372 99.2489 138.649 98.4104ZM133.548 95.8906C133.552 96.0616 133.552 96.2366 133.542 96.4218C133.542 96.6132 133.536 96.8065 133.517 97.0019C133.501 97.1973 133.469 97.3866 133.416 97.5657C133.357 97.8242 133.249 98.0684 133.102 98.2943C132.954 98.5264 132.744 98.7075 132.473 98.8541C132.201 98.9945 131.85 99.0698 131.425 99.0718C130.992 99.0698 130.631 98.9945 130.354 98.8541C130.078 98.7075 129.862 98.5264 129.711 98.2943C129.555 98.0684 129.451 97.8242 129.39 97.5657C129.337 97.3866 129.304 97.1973 129.288 97.0019C129.27 96.8065 129.264 96.6132 129.264 96.4218V94.4292C129.264 94.2338 129.27 94.0425 129.288 93.8471C129.304 93.6538 129.337 93.4624 129.39 93.2813C129.451 93.0228 129.557 92.7806 129.711 92.5486C129.864 92.3247 130.08 92.1395 130.354 91.995C130.633 91.8525 130.992 91.7792 131.425 91.7772C131.852 91.7792 132.203 91.8545 132.473 91.995C132.746 92.1395 132.954 92.3247 133.102 92.5486C133.251 92.7806 133.357 93.0228 133.416 93.2813C133.469 93.4624 133.501 93.6538 133.517 93.8471C133.536 94.0425 133.542 94.2359 133.542 94.4292C133.554 94.6104 133.554 94.7854 133.548 94.9584C133.544 95.1274 133.542 95.2841 133.542 95.4245C133.54 95.5629 133.544 95.7176 133.548 95.8906Z" fill="#FBFBFB"/>
<path d="M88.7133 55.5728C90.9197 57.2214 103.598 63.2623 107.616 58.5973C110.217 55.6481 106.63 51.2456 104.424 49.597C100.268 47.0182 97.0033 46.9592 95.4137 45.9029C101.196 45.0684 114.002 51.4675 110.158 58.9108C109.924 59.3992 109.101 60.5024 108.509 61.1171C106.838 62.1164 106.942 61.2677 106.732 62.9652C106.419 65.5073 106.675 66.2278 104.896 68.0739C101.935 71.1513 102.969 68.3527 101.725 72.8447C101.284 75.0266 100.203 75.4113 97.9396 77.0233C97.392 80.0539 98.0088 80.6462 95.0229 82.5146C97.4857 84.8838 103.313 86.4652 108.249 85.5249C114.391 84.5642 117.224 81.1265 119.931 77.3306C119.258 80.001 118.177 80.3836 117.609 82.2073C121.997 84.2956 138.891 89.6546 139.762 90.9654C143.142 84.4991 142.913 72.4234 142.251 69.4152C142.334 67.3615 139.432 67.1742 134.555 64.8499C133.092 64.1518 130.782 63.3498 129.805 62.8878C128.517 64.9659 128.667 66.5331 125.472 70.097C123.103 72.5577 120.222 73.5795 116.834 73.1602C122.594 71.1187 125.706 69.6085 127.308 64.9883C130.619 54.8991 114.11 50.6208 116.679 39.5811C117.921 35.0871 121.197 29.4675 120.921 27.538C114.686 23.6688 103.909 28.7083 108.027 48.3188C103.952 43.6864 107.701 43.9754 100.539 42.0581C97.3798 41.1544 93.8607 40.3749 90.5981 40.3159C81.6568 40.2426 78.9152 48.5101 88.7133 55.5728Z" fill="#FBFBFB"/>
<path d="M98.1615 69.6471C102.737 68.837 104.978 66.014 105.037 62.7534C103.573 62.0573 94.7604 62.3443 87.0403 56.57C85.4487 55.5136 83.8367 53.2483 82.1189 51.8337C74.8018 60.9114 90.938 70.9924 98.1615 69.6471Z" fill="#FBFBFB"/>
<path d="M99.8793 71.0637C94.8154 71.6438 92.6335 71.2021 88.7338 69.3439C82.2655 65.9632 80.8631 62.0024 79.8861 61.5383C69.7359 74.0537 100.447 81.8063 99.8793 71.0637Z" fill="#FBFBFB"/>
<path d="M84.1318 81.511C88.2656 82.8808 94.8133 84.2058 95.546 78.2748C95.0596 78.0427 95.9063 78.1465 94.6993 78.171C91.3084 77.7517 90.7161 78.3664 86.0959 76.7625C83.7858 75.9626 80.4987 74.6946 78.1438 71.4788C74.9483 75.0426 80.3583 80.013 84.1318 81.511Z" fill="#FBFBFB"/>
<path d="M60.9309 83.459H61.1711C61.3034 83.459 61.3868 83.5261 61.4418 83.6544L61.9119 84.7351H62.8543L62.2803 83.4305C62.2294 83.3083 62.148 83.2107 62.0544 83.1638C62.321 83.0315 62.5816 82.7283 62.5816 82.2988C62.5816 81.5722 62.0544 81.332 61.2667 81.332H60.0496V84.7351H60.9289V83.459H60.9309ZM60.9309 82.0159H61.1975C61.515 82.0159 61.684 82.0871 61.684 82.3701C61.684 82.653 61.5252 82.7853 61.2647 82.7853H60.9309V82.0159Z" fill="#FBFBFB"/>
<path d="M68.8566 83.9656H67.4746V83.3815H68.6327V82.6141H67.4746V82.0972H68.822V81.3298H66.5953V84.7329H68.8566V83.9656Z" fill="#FBFBFB"/>
<path d="M75.5732 82.9176C75.5732 81.8327 74.9382 81.332 73.9205 81.332H72.7278V84.7351H73.9408C74.7957 84.7331 75.5732 84.2466 75.5732 82.9176ZM73.6091 82.0159H73.8961C74.3215 82.0159 74.6939 82.2154 74.6939 83.003C74.6939 83.7032 74.4069 84.0513 73.951 84.0513H73.6071V82.0159H73.6091Z" fill="#FBFBFB"/>
<path d="M81.6936 82.0972V81.3298H79.4669V84.7329H81.7282V83.9656H80.3482V83.3815H81.5043V82.6141H80.3482V82.0972H81.6936Z" fill="#FBFBFB"/>
<path d="M149.415 113.142C157.162 103.389 161.79 91.0507 161.79 77.6276C161.79 46.0634 136.202 20.4751 104.638 20.4751C73.0738 20.4751 47.4854 46.0634 47.4854 77.6276C47.4854 90.4177 51.6884 102.227 58.7857 111.748C58.6208 111.07 58.5435 110.372 58.5435 109.67C58.5435 108.599 58.6859 107.525 59.0686 106.519C59.152 106.297 59.2518 106.086 59.3596 105.88C54.2367 97.6859 51.2712 88.0037 51.2712 77.6276C51.2712 48.1517 75.1661 24.2588 104.64 24.2588C107.807 24.2588 110.909 24.5356 113.923 25.0648C114.285 24.9508 114.666 24.845 115.069 24.7514C117.715 24.2181 120.027 25.02 121.617 26.0764C122.309 26.5608 122.659 27.0024 122.797 27.4299C143.334 34.8589 158.009 54.5284 158.009 77.6296C158.009 88.4128 154.807 98.4491 149.308 106.841C149.314 106.857 149.322 106.873 149.328 106.892C149.662 107.879 149.802 108.911 149.804 109.951C149.806 110.84 149.749 111.752 149.556 112.621C149.515 112.796 149.468 112.969 149.415 113.142Z" fill="#B2CF61"/>
<path d="M141.689 117.182C141.298 117.182 140.908 117.164 140.517 117.138C131.04 125.749 118.452 130.998 104.638 130.998C90.7913 130.998 78.1783 125.725 68.6936 117.079C68.488 117.085 68.2824 117.091 68.0769 117.091C66.7397 117.091 65.3556 116.989 64.055 116.659C63.4607 116.509 62.8766 116.305 62.3209 116.045C72.7765 127.555 87.8645 134.782 104.64 134.782C121.23 134.782 136.165 127.711 146.607 116.421C145.925 116.727 145.19 116.912 144.453 117.018C143.541 117.146 142.607 117.182 141.689 117.182Z" fill="#B2CF61"/>
<path d="M144.237 87.8776C144.321 87.8471 144.408 87.8247 144.492 87.7962C145.591 84.1407 146.191 80.2776 146.191 76.2721C146.191 58.7824 134.938 43.8755 119.154 38.1399C118.965 38.8584 118.796 39.5748 118.657 40.2628C133.464 45.7643 143.997 59.8061 143.997 76.27C143.997 80.8821 143.169 85.3029 141.653 89.4021C142.414 88.7365 143.289 88.2297 144.237 87.8776Z" fill="#B2CF61"/>
<path d="M81.4857 45.3145C81.675 44.6632 81.9559 44.0119 82.3182 43.2506C82.8107 42.3917 83.3989 41.6794 84.0584 41.0891C71.6978 48.1212 63.3793 61.239 63.3793 76.2721C63.3793 77.5665 63.4485 78.8447 63.5686 80.1087H65.7688C65.6406 78.8468 65.5734 77.5665 65.5734 76.2721C65.5734 63.5797 71.8341 52.3262 81.4857 45.3145Z" fill="#B2CF61"/>
<path d="M104.786 37.7796C105.053 37.7796 105.316 37.7939 105.582 37.8C105.704 37.1222 105.843 36.3997 106.01 35.6568C105.602 35.6445 105.197 35.6262 104.788 35.6262C98.9123 35.6262 93.3253 36.8352 88.2614 39.0008C90.545 38.4615 93.077 38.5449 95.4746 38.8807C98.4584 38.1663 101.575 37.7796 104.786 37.7796Z" fill="#B2CF61"/>
</svg>
