<svg width="57" height="57" viewBox="0 0 57 57" fill="none" xmlns="http://www.w3.org/2000/svg">
<g id="Group 403">
<path id="Vector" fill-rule="evenodd" clip-rule="evenodd" d="M39.8547 15.6638L27.7702 27.7482C27.2992 28.2197 27.2992 28.986 27.7702 29.4574C28.2416 29.9284 29.008 29.9284 29.4794 29.4574L41.5639 17.373C42.0365 17.5988 42.567 17.7258 43.1266 17.7258H47.9608C48.9226 17.7258 49.8448 17.3439 50.5237 16.6636L55.3579 11.8295C56.395 10.7923 56.7054 9.23367 56.1445 7.87896C55.5829 6.52425 54.2605 5.64055 52.7945 5.64055H51.5863V4.43232C51.5863 2.96635 50.7026 1.64396 49.3479 1.08232C47.9932 0.521487 46.4345 0.831844 45.3974 1.86893L40.5632 6.70313C39.883 7.38211 39.501 8.30427 39.501 9.26607V14.1003C39.501 14.6599 39.6281 15.1903 39.8539 15.663L39.8547 15.6638ZM49.1698 4.43292V6.84981C49.1698 7.51705 49.7112 8.05846 50.3785 8.05846H52.7954C53.2838 8.05846 53.7248 8.35304 53.9121 8.8038C54.0995 9.25578 53.9955 9.77573 53.6499 10.1213L48.8158 14.9555C48.59 15.1825 48.2816 15.3096 47.9616 15.3096H43.1274C42.4601 15.3096 41.9187 14.7682 41.9187 14.1009V9.26672C41.9187 8.94666 42.0458 8.63833 42.2728 8.41254L47.107 3.57835C47.4525 3.23279 47.9725 3.1288 48.4245 3.31615C48.8753 3.50349 49.1698 3.94455 49.1698 4.43292Z" fill="url(#paint0_linear_828_5922)"/>
<path id="Vector_2" fill-rule="evenodd" clip-rule="evenodd" d="M34.6575 28.2656C34.6636 28.3777 34.6672 28.4902 34.6672 28.6027C34.6672 31.9381 31.9602 34.6451 28.6248 34.6451C25.2894 34.6451 22.5824 31.9381 22.5824 28.6027C22.5824 25.2673 25.2894 22.5603 28.6248 22.5603C28.7373 22.5603 28.8498 22.5639 28.9619 22.57C29.6279 22.606 30.1985 22.0949 30.2344 21.4289C30.272 20.7628 29.7606 20.1927 29.095 20.1563C28.9392 20.1478 28.7818 20.1429 28.6248 20.1429C23.9565 20.1429 20.165 23.9344 20.165 28.6027C20.165 33.2709 23.9565 37.0624 28.6248 37.0624C33.293 37.0624 37.0845 33.2709 37.0845 28.6027C37.0845 28.4457 37.0796 28.2883 37.0711 28.1325C37.0347 27.4669 36.4646 26.9554 35.7986 26.993C35.1326 27.029 34.6216 27.5996 34.6575 28.2656Z" fill="url(#paint1_linear_828_5922)"/>
<path id="Vector_3" fill-rule="evenodd" clip-rule="evenodd" d="M42.8225 21.8697C43.7932 23.9111 44.3358 26.1941 44.3358 28.6024C44.3358 37.2734 37.2959 44.3135 28.6248 44.3135C19.9536 44.3135 12.9138 37.2736 12.9138 28.6024C12.9138 19.9313 19.9536 12.8914 28.6248 12.8914C31.0332 12.8914 33.3161 13.434 35.3575 14.4047C35.9592 14.6908 36.6806 14.4347 36.9672 13.833C37.2536 13.2301 36.9975 12.5086 36.3942 12.2221C34.0388 11.1017 31.4042 10.4745 28.6248 10.4745C18.6193 10.4745 10.4971 18.5967 10.4971 28.6022C10.4971 38.6076 18.6193 46.7299 28.6248 46.7299C38.6302 46.7299 46.7525 38.6076 46.7525 28.6022C46.7525 25.8227 46.1253 23.1881 45.0049 20.8328C44.7184 20.2294 43.9969 19.9733 43.394 20.2598C42.7923 20.5463 42.5362 21.2678 42.8222 21.8694L42.8225 21.8697Z" fill="url(#paint2_linear_828_5922)"/>
<path id="Vector_4" fill-rule="evenodd" clip-rule="evenodd" d="M52.2665 19.3653C53.3882 22.2269 54.0033 25.3438 54.0033 28.6032C54.0033 42.6092 42.6305 53.982 28.6245 53.982C14.6185 53.982 3.24573 42.6092 3.24573 28.6032C3.24573 14.5972 14.6185 3.22442 28.6245 3.22442C31.8839 3.22442 35.0008 3.83947 37.8624 4.96116C38.4835 5.20395 39.1855 4.89723 39.4287 4.2757C39.6715 3.65459 39.3656 2.95373 38.7445 2.71103C35.6086 1.48176 32.1947 0.807617 28.6246 0.807617C13.2833 0.807617 0.829102 13.2619 0.829102 28.6031C0.829102 43.9443 13.2833 56.3985 28.6246 56.3985C43.9658 56.3985 56.42 43.9443 56.42 28.6031C56.42 25.033 55.7459 21.619 54.5166 18.4832C54.2738 17.862 53.573 17.5561 52.9519 17.7989C52.3304 18.0421 52.0238 18.7442 52.2665 19.3653Z" fill="url(#paint3_linear_828_5922)"/>
</g>
<defs>
<linearGradient id="paint0_linear_828_5922" x1="41.9187" y1="0.806519" x2="41.9187" y2="29.8107" gradientUnits="userSpaceOnUse">
<stop stop-color="#E34338"/>
<stop offset="1" stop-color="#D02C1C"/>
</linearGradient>
<linearGradient id="paint1_linear_828_5922" x1="28.6248" y1="20.1429" x2="28.6248" y2="37.0624" gradientUnits="userSpaceOnUse">
<stop stop-color="#E34338"/>
<stop offset="1" stop-color="#D02C1C"/>
</linearGradient>
<linearGradient id="paint2_linear_828_5922" x1="28.6248" y1="10.4745" x2="28.6248" y2="46.7299" gradientUnits="userSpaceOnUse">
<stop stop-color="#E34338"/>
<stop offset="1" stop-color="#D02C1C"/>
</linearGradient>
<linearGradient id="paint3_linear_828_5922" x1="28.6246" y1="0.807617" x2="28.6246" y2="56.3985" gradientUnits="userSpaceOnUse">
<stop stop-color="#E34338"/>
<stop offset="1" stop-color="#D02C1C"/>
</linearGradient>
</defs>
</svg>
