<svg width="85" height="92" viewBox="0 0 85 92" fill="none" xmlns="http://www.w3.org/2000/svg">
<path d="M84.998 78.1008C84.998 85.713 78.652 92 70.9709 92C63.2886 92 56.9437 85.7118 56.9437 78.1008C56.9437 77.1081 57.1103 76.1155 57.278 75.1229L23.3784 55.7629C20.874 57.9144 17.701 59.2384 14.0271 59.2384C6.34485 59.2384 0 52.9502 0 45.3392C0 37.7269 6.34604 31.4399 14.0271 31.4399C18.5362 31.4399 22.3768 33.4252 25.049 36.7356L57.6126 18.036C57.1117 16.7121 56.9452 15.3882 56.9452 13.8992C56.9452 6.28698 63.2912 0 70.9723 0C78.6546 0 84.9994 6.28816 84.9994 13.8992C84.9994 21.5114 78.6534 27.7984 70.9723 27.7984C67.7991 27.7984 64.7938 26.6396 62.4559 24.8205L28.0554 44.5106V45.3382C28.0554 46.4971 27.8888 47.6547 27.721 48.6473L61.4537 68.0073C63.9581 65.6908 67.299 64.367 70.9729 64.367C78.654 64.2019 85 70.4903 85 78.101L84.998 78.1008Z" fill="url(#paint0_linear_246_2169)"/>
<defs>
<linearGradient id="paint0_linear_246_2169" x1="42.5" y1="0" x2="42.5" y2="92" gradientUnits="userSpaceOnUse">
<stop stop-color="#E34338"/>
<stop offset="0.520833" stop-color="#CC3F31"/>
<stop offset="1" stop-color="#D02C1C"/>
</linearGradient>
</defs>
</svg>
