<svg width="19" height="25" viewBox="0 0 19 25" fill="none" xmlns="http://www.w3.org/2000/svg">
<g id="Group">
<path id="Vector" d="M11.2353 11.455C10.7475 10.9112 10.2656 10.3036 9.83179 9.75696C9.62718 9.49867 9.43139 9.25231 9.2483 9.02851L9.23482 9.01217C9.50296 8.24846 9.65623 7.62348 9.69046 7.1541C9.77733 5.95834 9.64378 5.18814 9.28254 4.79993C9.03851 4.53723 8.67208 4.44569 8.32744 4.56161C8.08056 4.64433 7.74628 4.86606 7.55516 5.45162C7.27042 6.32451 7.40838 7.87036 8.218 9.14884C7.85676 10.0949 7.35314 11.182 6.79689 12.2169C5.73754 12.5883 4.89317 13.0766 4.28712 13.6689C3.4954 14.4417 3.17357 15.2088 3.40386 15.7731C3.54571 16.1227 3.87376 16.3312 4.28116 16.3312C4.56486 16.3312 4.87165 16.2287 5.16858 16.0353C5.91829 15.5451 6.89725 13.9122 7.42238 12.9659C8.5087 12.6267 9.58128 12.4879 10.1264 12.4353C10.373 12.4114 10.6178 12.3925 10.8535 12.3793C11.8076 13.3868 12.5879 13.9181 13.3068 14.0506C13.4515 14.0776 13.5962 14.0911 13.7375 14.0911C14.3233 14.0911 14.8075 13.8574 15.0334 13.4661C15.2037 13.1705 15.2004 12.8256 15.0238 12.5196C14.6249 11.829 13.4211 11.4488 11.6341 11.4488C11.5055 11.4491 11.3727 11.4509 11.2353 11.455ZM4.67119 15.2754C4.52933 15.368 4.38359 15.4233 4.2809 15.4233C4.26145 15.4233 4.24822 15.4212 4.2407 15.4194C4.22281 15.3289 4.28712 14.9375 4.92118 14.318C5.21888 14.027 5.59543 13.7615 6.04121 13.5265C5.47873 14.4316 4.97252 15.0786 4.67119 15.2754ZM8.41768 5.7335C8.48381 5.53097 8.56576 5.43943 8.61684 5.42231C8.61814 5.42205 8.61918 5.42153 8.62021 5.42127C8.66949 5.47677 8.87902 5.79393 8.78515 7.08901C8.76881 7.31488 8.71383 7.6004 8.62125 7.9396C8.31836 7.15954 8.23511 6.29287 8.41768 5.7335ZM10.0387 11.5323C9.55587 11.5787 8.82042 11.6744 7.99991 11.8687C8.3181 11.2333 8.61269 10.5894 8.8588 9.99269C8.94411 10.0995 9.03151 10.2092 9.1202 10.3215C9.41713 10.6957 9.75062 11.1164 10.0963 11.5271L10.0387 11.5323ZM14.237 12.9736C14.2505 12.997 14.2502 13.0063 14.2468 13.0125C14.2087 13.0787 14.0363 13.1837 13.7362 13.1837C13.6525 13.1837 13.5632 13.1751 13.4712 13.158C13.0967 13.0888 12.66 12.83 12.1395 12.3684C13.5518 12.4358 14.1226 12.7763 14.237 12.9736Z" fill="#212121"/>
<path id="Vector_2" d="M13.1585 0.853027H1.41623C0.696598 0.853027 0.111816 1.43625 0.111816 2.1577V22.8878C0.111816 23.6084 0.696598 24.1924 1.41623 24.1924H17.0726C17.7938 24.1924 18.377 23.6084 18.377 22.8878V6.07172L13.1585 0.853027ZM13.1585 2.69762L16.5326 6.07172H13.1585V2.69762ZM17.0728 22.8878H1.41623V2.1577H11.8539V6.07172C11.8539 6.79239 12.4374 7.37639 13.1583 7.37639H17.0726L17.0728 22.8878Z" fill="#212121"/>
<path id="Vector_3" d="M7.0894 17.5421C6.98282 17.448 6.85497 17.3795 6.70974 17.3393C6.56634 17.2983 6.36095 17.2776 6.09929 17.2776H5.2308C5.06561 17.2776 4.94114 17.3155 4.86048 17.3909C4.77906 17.4672 4.7373 17.5906 4.7373 17.7573V20.333C4.7373 20.4829 4.77439 20.5996 4.84752 20.6805C4.92195 20.7635 5.02101 20.8057 5.14185 20.8057C5.25751 20.8057 5.35502 20.7635 5.43126 20.68C5.50595 20.598 5.54407 20.4798 5.54407 20.3286V19.4476H6.09929C6.52796 19.4476 6.8573 19.354 7.07747 19.1691C7.30153 18.9819 7.41537 18.7049 7.41537 18.3458C7.41537 18.1785 7.38788 18.0255 7.33317 17.8906C7.27819 17.754 7.19624 17.637 7.0894 17.5421ZM6.52822 18.6191C6.47972 18.6844 6.41048 18.7303 6.31609 18.7599C6.21573 18.791 6.08788 18.8071 5.93539 18.8071H5.54433V17.9155H5.93539C6.28782 17.9155 6.43071 17.9858 6.4875 18.0431C6.56323 18.124 6.60005 18.2275 6.60005 18.359C6.60005 18.4674 6.57593 18.5548 6.52822 18.6191Z" fill="#212121"/>
<path id="Vector_4" d="M10.2973 17.5966C10.1564 17.4734 9.99722 17.3881 9.82399 17.3432C9.65543 17.2996 9.45108 17.2773 9.21742 17.2773H8.33545C8.17234 17.2773 8.05045 17.3165 7.97291 17.3943C7.89537 17.4721 7.85596 17.594 7.85596 17.7568V20.207C7.85596 20.3218 7.86607 20.4139 7.88682 20.4878C7.91042 20.5718 7.96124 20.6374 8.03775 20.6828C8.11062 20.7269 8.21279 20.7482 8.3492 20.7482H9.23117C9.38728 20.7482 9.52991 20.7381 9.65517 20.7178C9.78276 20.6971 9.90386 20.6608 10.0149 20.6102C10.1269 20.5591 10.2311 20.4901 10.3258 20.4051C10.4443 20.2962 10.5431 20.1709 10.6193 20.0322C10.6948 19.894 10.7516 19.7371 10.7874 19.5664C10.8232 19.3973 10.8413 19.2078 10.8413 19.0037C10.8411 18.3792 10.6577 17.9057 10.2973 17.5966ZM9.70781 19.9401C9.66398 19.9782 9.61134 20.0088 9.55118 20.0304C9.48816 20.0527 9.42696 20.0669 9.36861 20.0724C9.30715 20.0781 9.22027 20.0812 9.11032 20.0812H8.6622V17.9428H9.04419C9.24413 17.9428 9.41555 17.9646 9.55403 18.0073C9.68343 18.0468 9.79494 18.1425 9.88545 18.2923C9.97829 18.4456 10.0255 18.6834 10.0255 18.9995C10.0255 19.4453 9.9189 19.7614 9.70781 19.9401Z" fill="#212121"/>
<path id="Vector_5" d="M13.3676 17.2776H11.7722C11.6659 17.2776 11.5798 17.2934 11.5093 17.3258C11.4338 17.3601 11.3775 17.4158 11.3418 17.4918C11.3086 17.5628 11.2925 17.6497 11.2925 17.7573V20.3283C11.2925 20.4831 11.3303 20.6022 11.4043 20.682C11.4797 20.764 11.5783 20.8057 11.697 20.8057C11.8135 20.8057 11.9112 20.7648 11.9875 20.6836C12.0616 20.6035 12.0992 20.4839 12.0992 20.3283V19.2923H13.149C13.2665 19.2923 13.3585 19.264 13.4221 19.2078C13.4882 19.1494 13.5217 19.0711 13.5217 18.9746C13.5217 18.8784 13.489 18.7998 13.4241 18.7412C13.3611 18.6837 13.2686 18.6546 13.149 18.6546H12.0992V17.9295H13.3679C13.4921 17.9295 13.5878 17.8997 13.6524 17.8406C13.7185 17.7804 13.7519 17.7003 13.7519 17.6025C13.7519 17.5068 13.7185 17.4275 13.6521 17.3663C13.5867 17.3072 13.4913 17.2776 13.3676 17.2776Z" fill="#212121"/>
</g>
</svg>
