<svg width="66" height="66" viewBox="0 0 66 66" fill="none" xmlns="http://www.w3.org/2000/svg">
<g id="Group 279">
<path id="Vector" d="M46.3971 39.0157C46.3971 39.5981 45.9249 40.0702 45.3426 40.0702C44.7603 40.0702 44.2881 39.5981 44.2881 39.0157C44.2881 38.4334 44.7603 37.9612 45.3426 37.9612C45.9249 37.9612 46.3971 38.4334 46.3971 39.0157Z" fill="#FBFBFB"/>
<path id="Vector_2" d="M54.8336 39.0157C54.8336 39.5981 54.3614 40.0702 53.7791 40.0702C53.1968 40.0702 52.7246 39.5981 52.7246 39.0157C52.7246 38.4334 53.1968 37.9612 53.7791 37.9612C54.3614 37.9612 54.8336 38.4334 54.8336 39.0157Z" fill="#FBFBFB"/>
<path id="Vector_3" d="M50.6154 46.3973H46.3975V48.5062H50.6154C52.9415 48.5062 54.8334 46.6143 54.8334 44.2883H52.7244C52.7244 45.4515 51.7787 46.3973 50.6154 46.3973Z" fill="#FBFBFB"/>
<path id="Vector_4" d="M29.525 15.817C29.525 16.3993 29.0528 16.8715 28.4705 16.8715C27.8882 16.8715 27.416 16.3993 27.416 15.817C27.416 15.2347 27.8882 14.7625 28.4705 14.7625C29.0528 14.7625 29.525 15.2347 29.525 15.817Z" fill="#FBFBFB"/>
<path id="Vector_5" d="M37.9615 15.817C37.9615 16.3993 37.4893 16.8715 36.907 16.8715C36.3247 16.8715 35.8525 16.3993 35.8525 15.817C35.8525 15.2347 36.3247 14.7625 36.907 14.7625C37.4893 14.7625 37.9615 15.2347 37.9615 15.817Z" fill="#FBFBFB"/>
<path id="Vector_6" d="M37.9613 21.0895H35.8523C35.8523 22.2527 34.9066 23.1985 33.7434 23.1985H29.5254V25.3074H33.7434C36.0694 25.3074 37.9613 23.4155 37.9613 21.0895Z" fill="#FBFBFB"/>
<path id="Vector_7" d="M56.2592 53.199L54.5856 52.8647L54.3662 52.2066C56.7896 51.2514 58.5842 49.0516 58.9669 46.3966H59.0517C61.3777 46.3966 63.2696 44.5046 63.2696 42.1786C63.2696 41.2823 62.9839 40.4547 62.5061 39.7703L63.0437 37.0822C63.1938 36.3332 63.2696 35.5678 63.2696 34.8075C63.2696 28.4057 58.0626 23.1987 51.6608 23.1987H50.0729C48.1264 23.1987 46.2946 23.9472 44.9069 25.3077H44.3933C43.0446 25.3077 41.7887 25.7559 40.7468 26.4959C41.4459 25.5436 41.9195 24.4195 42.0955 23.1988H42.1798C44.5058 23.1988 46.3977 21.3068 46.3977 18.9808C46.3977 18.4578 46.2904 17.9612 46.1153 17.4984C47.657 15.6055 48.5067 13.255 48.5067 10.7939C48.5067 9.63392 47.8877 8.58787 46.8817 8.02917L47.1599 7.61162C48.0417 6.29115 48.5068 4.75268 48.5068 3.16347C48.5068 1.41928 47.0875 0 45.3433 0H24.5717C21.4887 0 18.9809 2.50776 18.9809 5.59073C18.9809 6.19376 19.0779 6.78974 19.2676 7.3589L19.8339 9.0597L18.8237 9.73241C17.6016 10.5492 16.872 11.9139 16.872 13.3826C16.872 14.5543 17.3286 15.6549 18.1576 16.4839L19.2427 17.569C19.0831 18.0129 18.981 18.4832 18.981 18.9808C18.981 21.3068 20.8729 23.1988 23.1989 23.1988H23.2832C23.6659 25.8528 25.4609 28.0527 27.8839 29.0088L27.6594 29.6816C27.3063 29.7682 26.9579 29.8722 26.6143 29.9852C24.267 27.131 20.7106 25.3078 16.7359 25.3078H14.8991C7.84663 25.3078 2.10899 31.0453 2.10899 38.0979C2.10899 39.4527 2.3293 40.7902 2.7511 42.0776C2.35049 42.7216 2.10899 43.4758 2.10899 44.2888C2.10899 46.6148 4.00093 48.5067 6.32695 48.5067H6.41122C6.79395 51.1608 8.58889 53.3607 11.0119 54.3158L10.7926 54.973L7.05244 55.7215C2.96631 56.5397 0 60.1578 0 64.3241V65.3786H65.3784V64.3241C65.3784 58.9358 61.5434 54.2567 56.2592 53.199ZM20.8427 54.9738L20.6233 54.3166C23.0467 53.3614 24.8413 51.1615 25.2241 48.5075H25.3074C26.4306 48.5075 27.447 48.0593 28.203 47.3414L27.3212 50.8679L32.6888 57.5761L38.0563 50.8674L36.3879 44.1959C37.1058 45.5013 38.4781 46.3977 40.0702 46.3977H40.1545C40.5372 49.0517 42.3321 51.2516 44.7552 52.2077L44.5358 52.8659L42.8623 53.2001C37.9249 54.1882 34.2564 58.3355 33.7936 63.2704H31.5614C31.109 59.5619 28.3179 56.4708 24.5805 55.7233L20.8427 54.9738ZM25.3074 42.1801C26.4706 42.1801 27.4164 43.1258 27.4164 44.2891C27.4164 45.4523 26.4706 46.398 25.3074 46.398V42.1801ZM40.0702 44.2891C38.907 44.2891 37.9613 43.3433 37.9613 42.1801C37.9613 41.0168 38.907 40.0711 40.0702 40.0711V44.2891ZM34.8788 38.1594L35.4493 37.3031L36.2487 37.9433L36.6145 39.7717C36.1527 40.4317 35.8796 41.2278 35.8603 42.0884L34.8788 38.1594ZM32.6888 35.0947L33.797 35.9807L33.1793 36.9076H32.1988L31.5807 35.9816L32.6888 35.0947ZM32.4567 39.0166H32.9195L35.7562 50.3651L32.6888 54.2003L29.6204 50.3641L32.4567 39.0166ZM38.3407 29.8774C38.1316 29.8152 37.9306 29.7328 37.7183 29.6811L37.4947 29.0093C38.1114 28.7659 38.6862 28.4411 39.2093 28.0499C38.8261 28.5993 38.5337 29.2131 38.3407 29.8774ZM37.1407 31.7227C37.1459 31.7236 37.1511 31.7245 37.1567 31.7269C36.3555 32.5832 35.8894 33.7134 35.8598 34.9304L34.4108 33.7714L37.1407 31.7227ZM29.9282 37.3039L30.4988 38.1602L29.2946 42.975C29.1901 42.6587 29.0564 42.3569 28.8832 42.0778C29.305 40.7902 29.5253 39.4534 29.5253 38.0981C29.5253 37.9451 29.5074 37.7963 29.5022 37.6438L29.9282 37.3039ZM45.1937 54.8843L47.37 55.9727L45.0279 57.3774L44.5544 55.0123L45.1937 54.8843ZM53.9271 54.8843L54.5659 55.0119L54.0924 57.377L51.7503 55.9723L53.9271 54.8843ZM52.4884 53.2443L49.5603 54.7092L46.6322 53.2448L46.8167 52.6921C47.0253 52.7109 47.2371 52.7246 47.4513 52.7246H51.6693C51.8835 52.7246 52.0953 52.7109 52.3053 52.6921L52.4884 53.2443ZM56.9418 45.3432C56.9418 48.2506 54.5767 50.6156 51.6693 50.6156H47.4513C44.544 50.6156 42.1789 48.2506 42.1789 45.3432V36.9073C42.1789 35.1631 43.5982 33.7438 45.3424 33.7438H46.9631C47.6928 35.003 49.0561 35.8528 50.6148 35.8528H53.7783C55.5225 35.8528 56.9418 37.2721 56.9418 39.0162V45.3432ZM59.0507 44.2887V40.0707C60.214 40.0707 61.1597 41.0165 61.1597 42.1797C61.1597 43.3429 60.214 44.2887 59.0507 44.2887ZM44.3927 27.4168H45.7796L46.3435 26.8529C47.3392 25.8572 48.6634 25.3079 50.0723 25.3079H51.6602C56.8988 25.3079 61.16 29.5691 61.16 34.8077C61.16 35.4301 61.0979 36.0571 60.9755 36.671L60.6531 38.2824C60.1583 38.0776 59.6183 37.9618 59.0511 37.9618H58.9447C58.4542 35.5586 56.3254 33.7438 53.7786 33.7438H50.6152C49.4519 33.7438 48.5062 32.798 48.5062 31.6348C48.5062 30.4716 49.4519 29.5258 50.6152 29.5258V27.4169C48.2891 27.4169 46.3972 29.3088 46.3972 31.6348H45.3427C42.4353 31.6348 40.0703 33.9999 40.0703 36.9073V37.9618C39.503 37.9618 38.963 38.0776 38.4673 38.2824L38.0973 36.4361C38.0079 35.9813 37.9613 35.5144 37.9613 35.0474C37.9613 33.9948 38.5464 33.0481 39.4869 32.5779L39.9488 32.3467L40.2566 30.8074C40.6492 28.8439 42.3883 27.4168 44.3927 27.4168ZM42.1793 21.0899V16.8719C43.3425 16.8719 44.2882 17.8177 44.2882 18.9809C44.2882 20.1441 43.3425 21.0899 42.1793 21.0899ZM21.0894 18.9809C21.0894 17.8177 22.0352 16.8719 23.1984 16.8719V21.0899C22.0352 21.0899 21.0894 20.1441 21.0894 18.9809ZM23.1984 13.7085V14.763C22.1472 14.763 21.1958 15.1636 20.4567 15.8014L19.648 14.9927C19.2177 14.5638 18.9805 13.9923 18.9805 13.3828C18.9805 12.6192 19.3589 11.9107 19.9949 11.4866L22.3454 9.92089L21.2688 6.69101C21.1497 6.33654 21.0894 5.96653 21.0894 5.59086C21.0894 3.6706 22.6509 2.10911 24.5712 2.10911H45.3429C45.9247 2.10911 46.3974 2.58175 46.3974 3.1636C46.3974 4.3339 46.0546 5.4689 45.405 6.44193L43.8035 8.84508L45.8146 9.85109C46.1738 10.0304 46.3974 10.391 46.3974 10.794C46.3974 12.5748 45.8386 14.2842 44.8209 15.7185C44.0954 15.131 43.1845 14.7629 42.1794 14.7629V13.7084C42.1794 11.9642 40.7602 10.5449 39.016 10.5449H34.798C31.8906 10.5449 29.5256 8.17987 29.5256 5.27249V4.218H27.4166V5.27249C27.4166 6.40795 27.6741 7.48499 28.1345 8.44633C25.3834 8.6205 23.1984 10.915 23.1984 13.7085ZM25.3074 22.1444V13.7085C25.3074 11.9643 26.7267 10.545 28.4709 10.545H29.636C30.9687 11.8485 32.7901 12.654 34.7978 12.654H39.0158C39.5976 12.654 40.0703 13.1266 40.0703 13.7085V22.1444C40.0703 25.0518 37.7052 27.4168 34.7978 27.4168H30.5799C27.6725 27.4168 25.3074 25.0518 25.3074 22.1444ZM30.5799 29.5258H34.7978C35.012 29.5258 35.2239 29.5122 35.4338 29.4933L35.6668 30.1924L32.6888 32.4256L29.7108 30.1934L29.9438 29.4943C30.1538 29.5122 30.3657 29.5258 30.5799 29.5258ZM28.237 31.7224L30.9668 33.7702L29.1818 35.198C28.9012 33.9971 28.4563 32.8603 27.8636 31.8143C27.9869 31.7813 28.1122 31.753 28.237 31.7224ZM4.21746 44.2883C4.21746 43.1251 5.16321 42.1794 6.32644 42.1794V46.3973C5.16321 46.3973 4.21746 45.4516 4.21746 44.2883ZM6.32644 39.0159V40.0704C5.66927 40.0704 5.05491 40.2347 4.49994 40.5039C4.31682 39.715 4.21748 38.9104 4.21748 38.0974C4.21748 32.2083 9.00933 27.4164 14.8985 27.4164H16.7353C22.6244 27.4164 27.4163 32.2083 27.4163 38.0974C27.4163 38.9113 27.3169 39.7159 27.1338 40.5039C26.5788 40.2347 25.9645 40.0704 25.3073 40.0704V39.0159C25.3073 37.2717 23.888 35.8524 22.1439 35.8524H16.8714C14.5454 35.8524 12.6534 33.9605 12.6534 31.6344H10.5445C10.5445 32.3895 10.6772 33.114 10.9211 33.7867C8.33327 34.12 6.32644 36.3387 6.32644 39.0159ZM8.43542 47.4518V39.0159C8.43542 37.2717 9.85471 35.8524 11.5989 35.8524H12.1586C13.3186 37.146 15.0006 37.9614 16.8713 37.9614H22.1437C22.7256 37.9614 23.1982 38.434 23.1982 39.0159V47.4518C23.1982 50.3592 20.8332 52.7243 17.9258 52.7243H13.7078C10.8004 52.7243 8.43542 50.3592 8.43542 47.4518ZM13.7079 54.8332H17.9258C18.14 54.8332 18.3509 54.8196 18.5604 54.8008L18.9662 56.0195C18.8961 57.7015 17.5158 59.0511 15.8168 59.0511C14.1178 59.0511 12.7376 57.7015 12.667 56.0195L13.0728 54.8008C13.2827 54.8196 13.4937 54.8332 13.7079 54.8332ZM7.46517 57.79L10.7111 57.1413C11.2774 59.4414 13.344 61.1602 15.8169 61.1602C18.2897 61.1602 20.3564 59.4414 20.9226 57.1405L24.1685 57.7892C26.9206 58.3395 28.9962 60.5657 29.4326 63.2683H2.19296C2.62841 60.5657 4.71217 58.3403 7.46517 57.79ZM35.9208 63.2692C36.3444 59.6039 38.9388 56.5016 42.4944 55.4598L43.5479 60.7261L49.5605 57.1173L55.573 60.7256L56.62 55.489C60.1737 56.534 62.7845 59.6047 63.2072 63.2692H35.9208Z" fill="#FBFBFB"/>
<path id="Vector_8" d="M12.6539 41.1248C12.6539 41.7071 12.1817 42.1793 11.5994 42.1793C11.0171 42.1793 10.5449 41.7071 10.5449 41.1248C10.5449 40.5425 11.0171 40.0703 11.5994 40.0703C12.1817 40.0703 12.6539 40.5425 12.6539 41.1248Z" fill="#FBFBFB"/>
<path id="Vector_9" d="M21.0895 41.1248C21.0895 41.7071 20.6173 42.1793 20.035 42.1793C19.4526 42.1793 18.9805 41.7071 18.9805 41.1248C18.9805 40.5425 19.4526 40.0703 20.035 40.0703C20.6173 40.0703 21.0895 40.5425 21.0895 41.1248Z" fill="#FBFBFB"/>
<path id="Vector_10" d="M21.0892 46.3972H18.9803C18.9803 47.5604 18.0345 48.5062 16.8713 48.5062H12.6533V50.6152H16.8713C19.1973 50.6152 21.0892 48.7232 21.0892 46.3972Z" fill="#FBFBFB"/>
</g>
</svg>
