<svg width="46" height="44" viewBox="0 0 46 44" fill="none" xmlns="http://www.w3.org/2000/svg">
<g id="Group 497">
<path id="Vector" d="M22.9533 20.1488C23.7518 20.1873 24.5086 20.8047 24.776 21.6837C24.8492 21.9254 24.884 22.1821 24.8876 22.4401V27.0248C24.8766 27.9038 24.415 28.7539 23.7097 29.1186C22.8854 29.5434 21.8195 29.2376 21.2716 28.3511C21.0353 27.9685 20.9106 27.5011 20.9053 27.0248V22.4401C20.9163 21.4969 21.4532 20.5936 22.2386 20.2768C22.4675 20.1852 22.7075 20.1447 22.9528 20.1484L22.9533 20.1488Z" fill="url(#paint0_linear_807_7332)"/>
<path id="Vector_2" fill-rule="evenodd" clip-rule="evenodd" d="M17.402 12.822V9.16022C14.746 9.16022 11.612 9.15859 8.95605 9.15859C6.95382 9.15491 4.94625 8.36539 3.4793 6.97528C1.91333 5.49148 0.995481 4.22403 0.991713 2.06071V2.05908C0.997028 1.98385 0.997029 1.91065 1.00439 1.83543C1.08861 1.09742 1.61442 0.361048 2.3271 0.11162C2.46611 0.0621466 2.6129 0.0290295 2.76131 0.0126749C2.8345 0.00367975 2.90974 0.00367936 2.98496 0H42.8119C42.8851 0.00367977 42.9603 0.00899551 43.0335 0.0126749C43.1067 0.0253493 43.1819 0.0327092 43.2534 0.0494721C44.0503 0.231012 44.6967 0.941616 44.7904 1.76752C44.8125 1.96174 44.8031 2.15594 44.7941 2.34812C44.7078 4.3135 43.8562 5.44729 42.4534 6.84317C41.0596 8.22795 39.1415 9.07065 37.1688 9.15124C37.0682 9.15656 36.9656 9.1586 36.863 9.1586C34.1996 9.16228 31.0562 9.16392 28.3929 9.16596V12.8221C30.4078 12.8237 32.9006 12.8258 34.9155 12.8274C36.3972 12.8348 37.87 13.4832 38.8721 14.5875C39.4453 15.2196 39.8648 15.9961 40.0827 16.815C41.9402 23.8725 43.792 30.1175 45.6274 37.1785C45.9643 38.4938 45.7832 40.0029 45.1363 41.1826C44.5173 42.3074 43.4861 43.1938 42.2787 43.6354C41.6961 43.848 41.0771 43.9576 40.458 43.9613C28.7517 43.9834 17.0434 43.9834 5.33602 43.9613C3.83589 43.9539 2.35785 43.2891 1.36097 42.1754C0.23619 40.917 -0.2455 39.0377 0.120844 37.3671C0.135563 37.3029 0.150283 37.2407 0.166637 37.1786C2.00202 30.1174 3.85384 23.8709 5.71132 16.8151C6.1766 15.0732 7.5668 13.6059 9.3106 13.0654C9.81801 12.9096 10.3491 12.829 10.8786 12.8274C12.8935 12.8258 15.3871 12.8236 17.402 12.822ZM22.9302 17.9892C24.8809 17.9982 26.841 18.5956 28.4638 19.6925C30.6565 21.1727 32.2188 23.5501 32.6931 26.1546C33.0648 28.1989 32.781 30.3586 31.8835 32.2362C30.834 34.4289 28.9601 36.2091 26.7163 37.1413C24.302 38.1471 21.4869 38.1434 19.0778 37.1413C16.8376 36.2107 14.9618 34.4321 13.9106 32.2362C12.8169 29.9502 12.6393 27.2373 13.4453 24.8123C14.31 22.2038 16.3044 19.9894 18.8268 18.8576C20.0942 18.2897 21.4975 17.9965 22.8656 17.9891L22.9302 17.9892ZM21.0654 12.8199H24.7289V9.16378H21.0654V12.8199Z" fill="url(#paint1_linear_807_7332)"/>
</g>
<defs>
<linearGradient id="paint0_linear_807_7332" x1="22.8965" y1="20.1482" x2="22.8965" y2="29.3077" gradientUnits="userSpaceOnUse">
<stop stop-color="#E34338"/>
<stop offset="1" stop-color="#D02C1C"/>
</linearGradient>
<linearGradient id="paint1_linear_807_7332" x1="22.8968" y1="0" x2="22.8968" y2="43.9778" gradientUnits="userSpaceOnUse">
<stop stop-color="#E34338"/>
<stop offset="1" stop-color="#D02C1C"/>
</linearGradient>
</defs>
</svg>
