<svg width="35" height="34" viewBox="0 0 35 34" fill="none" xmlns="http://www.w3.org/2000/svg">
<path id="Vector" fill-rule="evenodd" clip-rule="evenodd" d="M19.9046 29.786C20.5243 29.786 21.0208 30.2678 21.0208 30.8666C21.0208 31.464 20.5222 31.9444 19.9046 31.9444C19.289 31.9444 18.7892 31.462 18.7892 30.8666C18.7889 30.2703 19.2883 29.786 19.9046 29.786ZM30.7732 24.725V16.0632C32.1648 16.0632 33.3068 17.0648 33.3068 18.4375V22.3503C33.3068 23.7212 32.1669 24.7249 30.7732 24.7249V24.725ZM28.3788 15.6384H29.5746V25.6245H28.3788V15.6384ZM4.22762 16.0634V24.7246C3.52495 24.7246 2.9183 24.5128 2.41636 24.0264C1.97155 23.5961 1.69395 23.0019 1.69395 22.3503V18.4375C1.69395 17.0648 2.83267 16.0632 4.22762 16.0632V16.0634ZM6.62202 15.4449V25.8194L5.42616 25.8197V15.4451L6.62202 15.4449ZM12.3602 2.62908C15.6617 1.47482 19.3292 1.47552 22.6281 2.6238C24.2619 3.19299 25.8032 4.05115 27.1379 5.12574C27.4079 5.34217 27.4454 5.73439 27.2202 5.99515C26.9951 6.25703 26.5918 6.2926 26.3216 6.07548C25.087 5.08192 23.7089 4.31439 22.1975 3.78747C19.1871 2.73791 15.8001 2.73973 12.7908 3.79275C11.287 4.31719 9.89039 5.09642 8.6627 6.08675C8.39273 6.30456 7.9887 6.2683 7.76405 6.00642C7.53963 5.74524 7.5764 5.35482 7.84637 5.13701C9.18296 4.05831 10.7221 3.19942 12.3602 2.62908ZM23.0313 1.53727C19.4603 0.291472 15.5334 0.292177 11.9563 1.54186C10.1757 2.16385 8.53641 3.07569 7.08285 4.24922C6.4504 4.75713 6.24682 5.61277 6.58158 6.33664C5.38784 7.55077 4.40757 8.96438 3.70157 10.5166C3.02805 11.9965 2.60244 13.6074 2.4746 15.3008C1.2754 15.9043 0.495117 17.1089 0.495117 18.4377V22.3504C0.495117 23.3224 0.907431 24.2063 1.56788 24.8464C2.29569 25.5505 3.20502 25.8843 4.2275 25.8843V26.0284C4.2275 26.5482 4.67089 26.9779 5.20893 26.9779H6.83799C7.37604 26.9779 7.81942 26.5482 7.81942 26.0284V15.2349C7.81942 14.7144 7.37603 14.2847 6.83799 14.2847L5.20965 14.2845C4.79948 14.2845 4.43369 14.5365 4.29012 14.9037C4.09227 14.9037 3.90651 14.9069 3.70866 14.9301C3.86381 13.5408 4.23792 12.2142 4.79758 10.9831C5.43975 9.57094 6.32534 8.28636 7.40266 7.18075C8.05692 7.5124 8.85427 7.43482 9.42557 6.97419C10.5465 6.07058 11.82 5.35793 13.1938 4.87895C15.9255 3.92282 19.0625 3.92141 21.7958 4.87367C23.1568 5.34808 24.4471 6.06736 25.5593 6.96227C26.1313 7.42222 26.932 7.50048 27.5862 7.167C28.6834 8.29023 29.5825 9.59732 30.2288 11.0357C30.7742 12.2506 31.1402 13.5595 31.2932 14.9288C31.0605 14.9017 30.8415 14.9024 30.609 14.9024C30.4316 14.643 30.1165 14.478 29.792 14.478H28.1629C27.6227 14.478 27.1815 14.9065 27.1815 15.4282V25.8327C27.1815 26.3539 27.6237 26.7829 28.1629 26.7829H29.792C30.3111 26.7829 30.7449 26.3835 30.7723 25.8834C30.9402 25.8834 31.1008 25.8788 31.2681 25.8604C30.7934 27.0055 30.0152 28.0037 29.0302 28.7618C27.7916 29.7147 26.2252 30.2858 24.5273 30.2858H22.1405C21.8698 29.3119 20.9522 28.6254 19.9053 28.6254C18.6265 28.6254 17.5913 29.6284 17.5913 30.8648C17.5913 32.1007 18.6279 33.1021 19.9053 33.1021C20.9515 33.1021 21.8691 32.4177 22.1405 31.4445H24.528C26.5053 31.4445 28.331 30.778 29.7751 29.6665C31.1674 28.5951 32.2074 27.1067 32.6868 25.4003C33.8004 24.77 34.505 23.6204 34.505 22.3505V18.4377C34.505 17.1072 33.7247 15.9061 32.5255 15.3007C32.3991 13.6312 31.9813 12.0392 31.3237 10.5745C30.6122 8.99128 29.6178 7.55264 28.4036 6.32129C28.7362 5.59877 28.5322 4.74452 27.9016 4.23775C26.4448 3.06563 24.8143 2.15832 23.0315 1.53704L23.0313 1.53727Z" fill="#FBFBFB"/>
</svg>
