<svg width="110" height="115" viewBox="0 0 110 115" fill="none" xmlns="http://www.w3.org/2000/svg">
<g id="Vector">
<path id="Vector_2" d="M36.3755 51.7878C34.4771 49.8838 34.4771 46.9091 36.3755 45.0052C38.274 43.1012 41.2401 43.1012 43.1385 45.0052C45.037 46.9091 45.037 49.8838 43.1385 51.7878C41.2401 53.6917 38.155 53.6917 36.3755 51.7878ZM66.6292 64.4008C64.7307 66.3048 64.7307 69.2795 66.6292 71.1834C68.5276 73.0874 71.4937 73.0874 73.3922 71.1834C75.2906 69.2795 75.2906 66.3048 73.3922 64.4008C71.6121 62.6156 68.5268 62.6156 66.6292 64.4008ZM1.25759 45.6011C-1.23431 41.6746 0.0708351 37.5106 4.34206 35.8439C8.49495 34.1782 12.5286 32.6311 16.6804 31.0849C17.5113 30.728 17.8671 30.3711 17.8671 29.4192C17.9855 25.0169 18.223 20.614 18.5789 16.2118C18.9347 11.4528 22.2565 9.19187 28.0704 10.5007C31.0364 11.334 35.1893 12.4047 39.2229 13.5941C40.2905 13.951 41.0022 13.7128 41.7148 12.7608C44.325 9.42922 47.0535 6.09784 49.6638 2.76625C52.6299 -0.922084 57.1385 -0.922084 60.1045 2.76625C62.8331 6.09784 65.5625 9.42922 68.291 12.8804C68.8844 13.5942 69.3586 13.8324 70.3078 13.5942C74.4607 12.404 78.7318 11.2147 82.8836 10.1441C87.3922 8.95387 90.9508 11.5716 91.1883 16.2121C91.4258 20.6144 91.6625 24.8978 91.9 29.3009C91.9 30.2529 92.2559 30.7285 93.0868 30.9667C97.1204 32.3943 101.036 33.9413 105.069 35.4883C109.815 37.2728 111.239 41.4376 108.51 45.6025C106.255 49.1723 103.883 52.7421 101.51 56.3108C100.917 57.1441 100.917 57.6197 101.51 58.4521C104.002 62.0219 106.374 65.7102 108.747 69.3988C111.239 73.3253 109.934 77.4893 105.544 79.2745C101.51 80.8216 97.4763 82.368 93.4419 83.915C92.611 84.2719 92.1368 84.6288 92.1368 85.6994C92.0184 90.1017 91.6626 94.5046 91.425 98.9068C91.1875 103.428 87.5099 106.046 83.1203 104.856C78.8492 103.666 74.5781 102.595 70.307 101.406C69.4762 101.168 69.0019 101.406 68.5278 102.001C65.7992 105.451 63.0698 108.784 60.3413 112.234C57.3752 115.922 52.9857 115.922 49.9006 112.234C47.172 108.902 44.3244 105.451 41.7141 102.001C41.1207 101.287 40.6465 101.168 39.8156 101.406C35.6628 102.596 31.5109 103.547 27.4773 104.856C22.3762 106.522 18.5792 102.715 18.6976 98.4313C18.6976 94.2664 18.2234 89.9829 18.1042 85.819C18.1042 84.8671 17.7484 84.5102 16.9175 84.1533C12.7646 82.6062 8.61278 81.0599 4.4599 79.3943C0.426294 77.8472 -0.998042 73.5638 1.25636 69.9949C3.62898 66.1869 6.00161 62.4986 8.49351 58.6915C9.08688 57.8582 9.08688 57.2639 8.49351 56.5502C6.00415 52.9787 3.63021 49.2895 1.25759 45.6011ZM70.0698 56.3094C63.7818 56.3094 58.5615 61.4254 58.5615 67.851C58.5615 74.1572 63.6627 79.3926 70.0698 79.3926C76.3578 79.3926 81.578 74.2766 81.578 67.851C81.578 61.4262 76.3576 56.3094 70.0698 56.3094ZM37.6806 74.6327C36.7314 75.8229 36.8497 77.6074 38.0365 78.5592C39.2232 79.5112 41.0025 79.3926 41.9516 78.2024L72.0866 41.7928C73.0359 40.6026 72.9175 38.8182 71.7308 37.8663C70.544 36.9143 68.7647 37.033 67.8156 38.2232L37.6806 74.6327ZM28.189 48.337C28.189 54.7617 33.2902 59.8785 39.6973 59.8785C45.9853 59.8785 51.2055 54.7626 51.2055 48.337C51.2055 42.0307 46.1044 36.7954 39.6973 36.7954C33.4093 36.9141 28.189 42.0309 28.189 48.337Z" fill="url(#paint0_linear_482_2790)"/>
</g>
<defs>
<linearGradient id="paint0_linear_482_2790" x1="55" y1="0" x2="55" y2="115" gradientUnits="userSpaceOnUse">
<stop stop-color="#E34338"/>
<stop offset="1" stop-color="#D02C1C"/>
</linearGradient>
</defs>
</svg>
