<svg width="65" height="65" viewBox="0 0 65 65" fill="none" xmlns="http://www.w3.org/2000/svg">
<g id="Group 280">
<path id="Vector" d="M64.9219 27.4031C64.8774 27.297 64.8168 27.1989 64.7428 27.1113L58.274 19.5331V15.4636C58.274 14.869 58.0378 14.2984 57.6174 13.878C57.197 13.4576 56.6264 13.2214 56.0319 13.2214H41.4577C42.6409 10.248 42.2735 6.88219 40.4773 4.23412C38.6806 1.58605 35.6886 0 32.489 0C29.2893 0 26.2975 1.58605 24.5007 4.23412C22.7044 6.88219 22.3371 10.248 23.5202 13.2214H8.94612C8.35154 13.2214 7.78098 13.4576 7.36058 13.878C6.94018 14.2984 6.70394 14.869 6.70394 15.4636V19.5331L0.246734 27.0669C0.172162 27.154 0.111601 27.2526 0.067065 27.3582C0.0285278 27.4668 0.00600646 27.5799 0 27.6945C0.00100103 27.7135 0.00100103 27.732 0 27.7505V34.9255C0.00100103 36.9235 0.809284 38.8359 2.24217 40.2282V62.5487C2.24217 63.1433 2.47841 63.7133 2.89881 64.1342C3.31921 64.5546 3.88978 64.7909 4.48435 64.7909H60.5156C61.1102 64.7909 61.6808 64.5546 62.1012 64.1342C62.5216 63.7133 62.7578 63.1433 62.7578 62.5487V40.273C64.1903 38.8807 64.999 36.9683 65 34.9704V27.7954C64.999 27.7764 64.999 27.7579 65 27.7393C64.99 27.6237 64.964 27.5106 64.9214 27.403L64.9219 27.4031ZM25.0894 34.9704C25.0894 36.8127 24.1064 38.5153 22.5109 39.4362C20.9154 40.3576 18.9494 40.3576 17.3539 39.4362C15.7584 38.5153 14.7754 36.8126 14.7754 34.9704V28.9165H25.0894V34.9704ZM12.5332 34.9704C12.5332 36.8127 11.5503 38.5153 9.95471 39.4362C8.35918 40.3576 6.39324 40.3576 4.79771 39.4362C3.20218 38.5153 2.21921 36.8126 2.21921 34.9704V28.9165H12.5332V34.9704ZM46.6027 21.0689L49.484 26.6744H39.708L38.7551 21.0689H46.6027ZM36.5129 21.0689L37.4659 26.6744H27.5442L28.4971 21.0689H36.5129ZM25.3021 26.6744H15.4926L18.3739 21.0689H26.2215L25.3021 26.6744ZM27.3651 28.9165H37.6791V34.9704H37.6786C37.6786 36.8127 36.6957 38.5153 35.1001 39.4362C33.5046 40.3576 31.5387 40.3576 29.9431 39.4362C28.3476 38.5153 27.3646 36.8126 27.3646 34.9704L27.3651 28.9165ZM39.9213 28.9165H50.2353V34.9704H50.2348C50.2348 36.8127 49.2519 38.5153 47.6563 39.4362C46.0608 40.3576 44.0948 40.3576 42.4993 39.4362C40.9038 38.5153 39.9208 36.8126 39.9208 34.9704L39.9213 28.9165ZM52.0401 26.6744L49.1588 21.0689H56.6701L61.4797 26.6744H52.0401ZM56.065 15.4635V18.8267H35.3242C37.2406 18.2312 38.9248 17.0561 40.1449 15.4635H56.065ZM32.4875 2.18981C34.453 2.18981 36.3378 2.97057 37.7276 4.36036C39.1169 5.75026 39.8977 7.63509 39.8977 9.60039C39.8977 11.5658 39.117 13.4507 37.7276 14.84C36.3377 16.2299 34.4528 17.0106 32.4875 17.0106C30.5222 17.0106 28.6373 16.2298 27.2475 14.84C25.8581 13.4507 25.0773 11.5658 25.0773 9.60039C25.0773 7.63496 25.8581 5.75013 27.2475 4.36036C28.6374 2.97047 30.5222 2.18981 32.4875 2.18981ZM8.94471 15.4635H24.8308C26.051 17.0561 27.7352 18.2312 29.6515 18.8267H8.94534L8.94471 15.4635ZM8.33911 21.0689H15.8504L12.9691 26.6744H3.52997L8.33911 21.0689ZM16.7924 62.5491V46.8539H30.2454V62.5491H16.7924ZM60.5148 62.5491H32.4876V45.7328C32.4876 45.4356 32.3695 45.1503 32.1593 44.9401C31.9491 44.7299 31.6638 44.6118 31.3665 44.6118H15.6713C15.0522 44.6118 14.5502 45.1137 14.5502 45.7328V62.5491H4.46041V41.7751C6.08695 42.4693 7.90823 42.5583 9.59486 42.0258C11.281 41.4933 12.7208 40.3742 13.6533 38.8713C15.0007 41.0434 17.3755 42.3647 19.9314 42.3647C22.4874 42.3647 24.8621 41.0435 26.2095 38.8713C27.5569 41.0434 29.9316 42.3647 32.4876 42.3647C35.0435 42.3647 37.4183 41.0435 38.7657 38.8713C40.113 41.0434 42.4878 42.3647 45.0438 42.3647C47.5997 42.3647 49.9745 41.0435 51.3219 38.8713C52.2542 40.3742 53.6942 41.4933 55.3803 42.0258C57.0669 42.5583 58.8882 42.4692 60.5148 41.7751V62.5491ZM62.7569 34.9704C62.7569 36.8127 61.774 38.5153 60.1784 39.4362C58.5829 40.3576 56.617 40.3576 55.0214 39.4362C53.4259 38.5153 52.4429 36.8126 52.4429 34.9704V28.9165H62.7569V34.9704Z" fill="#FBFBFB"/>
<path id="Vector_2" d="M29.293 10.7214H31.367V12.8064C31.367 13.4255 31.869 13.9274 32.4881 13.9274C33.1072 13.9274 33.6092 13.4255 33.6092 12.8064V10.7214H35.6833C36.3024 10.7214 36.8044 10.2194 36.8044 9.60031C36.8044 8.98071 36.3024 8.47922 35.6833 8.47922H33.6092V6.40514C33.6092 5.78555 33.1072 5.28406 32.4881 5.28406C31.869 5.28406 31.367 5.78555 31.367 6.40514V8.47922H29.293C28.6739 8.47922 28.1719 8.98071 28.1719 9.60031C28.1719 10.2194 28.6739 10.7214 29.293 10.7214Z" fill="#FBFBFB"/>
<path id="Vector_3" d="M48.1835 44.6115H40.3359C39.7168 44.6115 39.2148 45.1134 39.2148 45.7325V55.8223C39.2148 56.1196 39.333 56.4049 39.5432 56.6151C39.7534 56.8253 40.0386 56.9434 40.3359 56.9434H48.1835C48.4808 56.9434 48.7661 56.8253 48.9763 56.6151C49.1865 56.4049 49.3046 56.1196 49.3046 55.8223V45.7325C49.3046 45.4353 49.1865 45.15 48.9763 44.9398C48.7661 44.7296 48.4808 44.6115 48.1835 44.6115ZM47.0625 54.7012H41.457V46.8536H47.0625V54.7012Z" fill="#FBFBFB"/>
</g>
</svg>
