<svg width="89" height="90" viewBox="0 0 89 90" fill="none" xmlns="http://www.w3.org/2000/svg">
<path d="M44.5042 53.9865C40.5705 53.9865 36.7982 55.5489 34.0166 58.3305C31.235 61.1121 29.6726 64.8844 29.6726 68.8181C29.6726 72.7518 31.235 76.5247 34.0166 79.3057C36.7982 82.0873 40.5705 83.6504 44.5042 83.6504C48.438 83.6504 52.2102 82.0873 54.9918 79.3057C57.7734 76.5247 59.3359 72.7518 59.3359 68.8181C59.3315 64.8863 57.7678 61.1158 54.9869 58.3354C52.2066 55.5551 48.4367 53.9908 44.5042 53.9865ZM44.5042 80.6838C41.357 80.6838 38.3395 79.4336 36.1141 77.2082C33.8887 74.9834 32.6386 71.9654 32.6386 68.8181C32.6386 65.6715 33.8887 62.6534 36.1141 60.428C38.3395 58.2032 41.357 56.9531 44.5042 56.9531C47.6515 56.9531 50.6689 58.2033 52.8943 60.428C55.1198 62.6534 56.3699 65.6715 56.3699 68.8181C56.3662 71.9641 55.1148 74.9803 52.8905 77.2044C50.6658 79.4292 47.6501 80.68 44.5042 80.6838Z" fill="url(#paint0_linear_698_2441)"/>
<path d="M77.5947 0.591846C74.5461 0.588742 71.628 1.83025 69.5175 4.0296L68.2356 5.35304L66.9525 4.04511L66.9531 4.04449C64.8407 1.84895 61.9263 0.60737 58.8796 0.605464C55.8329 0.602981 52.9167 1.84013 50.8011 4.03257C48.6707 6.23748 47.4801 9.18293 47.4801 12.2488C47.4801 15.3147 48.6707 18.2602 50.8011 20.4651L53.6652 23.3975V23.3969C51.5365 24.4329 49.6048 25.8308 47.9548 27.528L44.5047 31.0576L41.049 27.5354C39.4636 25.8978 37.6099 24.5434 35.5684 23.5304L38.2009 20.7923V20.7929C40.342 18.5434 41.5355 15.5569 41.5355 12.4513C41.5355 9.34629 40.3418 6.35985 38.2009 4.10964C36.1009 1.8693 33.1678 0.596246 30.097 0.591797C27.0262 0.593038 24.0919 1.86248 21.9888 4.09963L20.7076 5.44356L19.4233 4.10895L19.4226 4.10832C17.3636 1.92582 14.5119 0.665007 11.5124 0.610341C8.51233 0.556336 5.61647 1.7128 3.47989 3.81894C1.24145 6.14368 -0.00633234 9.2474 2.41674e-05 12.4748C0.00623177 15.7015 1.26637 18.8003 3.51406 21.1163L10.8601 28.7515C7.52549 32.7803 5.79223 37.8965 5.99214 43.1226C6.19202 48.3488 8.31068 53.3178 11.9433 57.0802L23.7556 69.1061H23.7549C23.848 76.4607 27.8277 83.2164 34.2146 86.8646C40.602 90.5121 48.4428 90.5065 54.8239 86.8491C61.2059 83.1922 65.175 76.4304 65.2575 69.0763L77.0505 57.0816H77.0499C80.7613 53.2875 82.9067 48.2346 83.0587 42.9296C83.2114 37.6246 81.3592 32.457 77.8717 28.4562L85.6746 20.4676C87.8075 18.2664 89 15.3209 89 12.2563C89 9.19104 87.8075 6.24623 85.6746 4.04434C83.5653 1.83943 80.6458 0.59228 77.5942 0.592915L77.5947 0.591846ZM5.54529 5.94466C7.08104 4.43065 9.1488 3.57893 11.3046 3.57146C13.5666 3.56525 15.7287 4.50011 17.2732 6.15251L18.5662 7.49644V7.49582C19.1342 8.05946 19.9015 8.37543 20.7011 8.37543C21.5007 8.37543 22.2678 8.05946 22.8353 7.49582L24.1301 6.14754C25.6727 4.49199 27.8342 3.55218 30.0975 3.55218C32.3607 3.55218 34.5222 4.492 36.0654 6.14754C37.6744 7.84536 38.572 10.0949 38.572 12.4344C38.572 14.7735 37.6744 17.023 36.0654 18.7209L20.7037 34.7059L5.64479 19.0598C3.95889 17.2988 3.0097 14.9597 2.99111 12.522C2.97249 10.0843 3.88685 7.73158 5.54547 5.94508L5.54529 5.94466ZM44.5043 86.6166C39.7841 86.6166 35.257 84.7419 31.9192 81.4035C28.5814 78.0657 26.7061 73.5392 26.7061 68.8184C26.7061 64.0982 28.5814 59.5711 31.9192 56.2333C35.257 52.8955 39.7841 51.0202 44.5043 51.0202C49.2245 51.0202 53.7516 52.8955 57.0894 56.2333C60.4272 59.5711 62.3025 64.0982 62.3025 68.8184C62.2975 73.5373 60.4203 78.0614 57.0838 81.3979C53.7473 84.7351 49.2232 86.6117 44.5043 86.6166ZM74.9361 54.993L64.9277 65.1709C63.7825 58.72 59.6569 53.1897 53.8002 50.2536C47.9435 47.318 41.0432 47.3218 35.19 50.2635C29.3363 53.206 25.2169 58.7412 24.0785 65.1932L14.0614 54.9948C10.9782 51.8004 9.16246 47.5937 8.9527 43.159C8.74351 38.7244 10.1539 34.3655 12.9223 30.8942L14.9987 33.0519V33.0525C12.8032 35.9638 11.7168 39.5624 11.9341 43.2024C12.1513 46.8425 13.6586 50.2858 16.185 52.9153L16.7486 53.4938C17.3222 54.0804 18.262 54.091 18.8486 53.5174C19.4353 52.9438 19.4458 52.004 18.8729 51.4174L18.3061 50.8376V50.837C16.3278 48.7767 15.1259 46.0944 14.9044 43.247C14.6834 40.3996 15.4569 37.5634 17.0927 35.2226L18.5756 36.7577H18.5762C19.1337 37.3381 19.904 37.6671 20.7098 37.6671C21.5149 37.6671 22.2853 37.3381 22.8434 36.7577L33.3812 25.8058C35.465 26.6885 37.3514 27.979 38.9282 29.6023L42.3826 33.1307V33.1313C42.9345 33.6974 43.6905 34.0183 44.4814 34.0208H44.5006C45.2995 34.0215 46.0655 33.7005 46.6261 33.1313L50.085 29.5998C53.3172 26.2594 57.7587 24.3625 62.4063 24.3364C67.0538 24.3104 71.5164 26.1577 74.7859 29.4614C74.8349 29.5148 74.887 29.5638 74.9429 29.6097C78.2546 33.0059 80.1082 37.5609 80.1082 42.3048C80.1082 47.048 78.2546 51.6031 74.9429 54.9992L74.9361 54.993ZM83.549 18.3891L75.7815 26.3403C70.5621 21.7387 63.3254 20.1818 56.6754 22.2303L52.9211 18.3891C51.3277 16.741 50.4362 14.538 50.4362 12.2449C50.4362 9.95243 51.3276 7.74943 52.9211 6.10071C54.4773 4.47996 56.6295 3.56621 58.8767 3.57241C61.1245 3.55875 63.2778 4.47685 64.8241 6.10818L66.1203 7.42852C66.6758 7.99898 67.4387 8.32054 68.2352 8.31806C69.0335 8.32117 69.7995 8.00024 70.3564 7.42852L71.6438 6.10818C73.1982 4.48552 75.3473 3.56812 77.5943 3.56812C79.8415 3.56812 81.9905 4.48559 83.5448 6.10818C85.1395 7.75626 86.0315 9.95926 86.0315 12.2524C86.0315 14.5455 85.1394 16.7491 83.5448 18.3966L83.549 18.3891Z" fill="url(#paint1_linear_698_2441)"/>
<path d="M44.5045 67.3351C43.975 67.3345 43.4853 67.0514 43.2208 66.5927C42.9564 66.1333 42.957 65.5684 43.2221 65.1097C43.4871 64.651 43.9763 64.3685 44.5064 64.3685C45.0359 64.3692 45.5257 64.6516 45.7907 65.1103C46.2122 65.7919 47.0993 66.0154 47.7938 65.6144C48.4878 65.2134 48.738 64.3332 48.3575 63.6273C47.8205 62.7242 46.9806 62.0413 45.9874 61.6993V61.4025C45.9874 60.5832 45.3239 59.9189 44.5045 59.9189C43.6851 59.9189 43.0215 60.5832 43.0215 61.4025V61.6757V61.6751C41.6918 62.1431 40.6639 63.2151 40.2517 64.5622C39.8389 65.9098 40.0903 67.373 40.9295 68.5051C41.7681 69.6374 43.0953 70.304 44.5044 70.3016C45.0339 70.3016 45.5237 70.5847 45.7881 71.0441C46.0526 71.5028 46.0519 72.0683 45.7869 72.527C45.5218 72.9858 45.0327 73.2682 44.5025 73.2676C43.9731 73.2676 43.4833 72.9852 43.2182 72.5264C42.7967 71.8442 41.9097 71.6214 41.2151 72.0224C40.5211 72.4234 40.271 73.3036 40.6515 74.0094C41.1897 74.912 42.0302 75.5954 43.024 75.9375V76.2342C43.024 77.0536 43.6883 77.7172 44.5076 77.7172C45.3264 77.7172 45.9906 77.0536 45.9906 76.2342V75.9611C47.3203 75.493 48.3482 74.421 48.7611 73.0733C49.1733 71.7256 48.9212 70.262 48.0814 69.1297C47.2415 67.9975 45.9143 67.3315 44.5045 67.3351Z" fill="url(#paint2_linear_698_2441)"/>
<path d="M11.3041 9.50891C12.1235 9.50891 12.787 8.8447 12.787 8.02532C12.787 7.20655 12.1235 6.54234 11.3041 6.54234C9.92042 6.55041 8.59509 7.1004 7.61253 8.07436C6.49891 9.30469 5.89612 10.9136 5.92901 12.573C5.96129 14.2322 6.62612 15.8164 7.7875 17.0021L9.32137 18.598C9.88935 19.1884 10.8286 19.2064 11.4189 18.6384C12.0098 18.0704 12.0278 17.1312 11.4598 16.5409L9.92595 14.9462C9.31948 14.318 8.96007 13.4918 8.91474 12.6196C8.86881 11.7474 9.1407 10.8877 9.67827 10.1998C10.1097 9.76651 10.6933 9.51884 11.3041 9.50891Z" fill="url(#paint3_linear_698_2441)"/>
<path d="M15.1057 20.3288C14.5377 19.7378 13.5991 19.7192 13.0082 20.2872C12.4179 20.8545 12.3992 21.7938 12.9666 22.384L13.7717 23.222H13.7723C14.3403 23.813 15.2795 23.831 15.8698 23.263C16.4608 22.695 16.4788 21.7558 15.9108 21.1649L15.1057 20.3288Z" fill="url(#paint4_linear_698_2441)"/>
<path d="M58.775 6.5423C57.3908 6.55037 56.0654 7.10035 55.0822 8.07431C53.968 9.30465 53.3664 10.9136 53.3987 12.573C53.4316 14.2322 54.097 15.8164 55.2584 17.002L56.7923 18.598C57.3603 19.1883 58.2995 19.2063 58.8898 18.6383C59.4808 18.0703 59.4988 17.1311 58.9308 16.5408L57.3957 14.9462C56.7892 14.318 56.4304 13.4911 56.3851 12.6195C56.3397 11.7474 56.6104 10.8882 57.148 10.1998C57.5806 9.7646 58.166 9.5163 58.7794 9.50699C59.5988 9.50699 60.263 8.8434 60.263 8.02402C60.263 7.20463 59.5988 6.54105 58.7794 6.54105L58.775 6.5423Z" fill="url(#paint5_linear_698_2441)"/>
<path d="M73.0578 47.4345C72.4761 48.6952 71.6803 49.8455 70.7057 50.8338L65.6951 55.9301C65.4008 56.2064 65.232 56.5912 65.2276 56.9947C65.2233 57.3988 65.3834 57.7868 65.6715 58.0692C65.9601 58.3523 66.3506 58.5056 66.7547 58.4938C67.1582 58.482 67.5393 58.3057 67.8106 58.0065L72.8206 52.9102C74.0367 51.6786 75.0281 50.2441 75.7511 48.6717C76.0658 47.933 75.7362 47.0783 75.0068 46.7423C74.2781 46.4071 73.4141 46.7119 73.0576 47.4314L73.0578 47.4345Z" fill="url(#paint6_linear_698_2441)"/>
<path d="M22.7966 55.4072C22.2317 54.8137 21.2925 54.7901 20.6991 55.355C20.1057 55.9199 20.0827 56.8591 20.6476 57.4525L21.1442 57.9746C21.7085 58.5686 22.6476 58.5922 23.2417 58.0279C23.8351 57.4637 23.8593 56.5245 23.2951 55.9305L22.7966 55.4072Z" fill="url(#paint7_linear_698_2441)"/>
<defs>
<linearGradient id="paint0_linear_698_2441" x1="44.5042" y1="53.9865" x2="44.5042" y2="83.6504" gradientUnits="userSpaceOnUse">
<stop stop-color="#E34338"/>
<stop offset="1" stop-color="#D02C1C"/>
</linearGradient>
<linearGradient id="paint1_linear_698_2441" x1="44.5" y1="0.591797" x2="44.5" y2="89.5962" gradientUnits="userSpaceOnUse">
<stop stop-color="#E34338"/>
<stop offset="1" stop-color="#D02C1C"/>
</linearGradient>
<linearGradient id="paint2_linear_698_2441" x1="44.5061" y1="59.9189" x2="44.5061" y2="77.7172" gradientUnits="userSpaceOnUse">
<stop stop-color="#E34338"/>
<stop offset="1" stop-color="#D02C1C"/>
</linearGradient>
<linearGradient id="paint3_linear_698_2441" x1="9.35739" y1="6.54234" x2="9.35739" y2="19.0528" gradientUnits="userSpaceOnUse">
<stop stop-color="#E34338"/>
<stop offset="1" stop-color="#D02C1C"/>
</linearGradient>
<linearGradient id="paint4_linear_698_2441" x1="14.4391" y1="19.8731" x2="14.4391" y2="23.6774" gradientUnits="userSpaceOnUse">
<stop stop-color="#E34338"/>
<stop offset="1" stop-color="#D02C1C"/>
</linearGradient>
<linearGradient id="paint5_linear_698_2441" x1="56.8302" y1="6.54105" x2="56.8302" y2="19.0528" gradientUnits="userSpaceOnUse">
<stop stop-color="#E34338"/>
<stop offset="1" stop-color="#D02C1C"/>
</linearGradient>
<linearGradient id="paint6_linear_698_2441" x1="70.5489" y1="46.6063" x2="70.5489" y2="58.4945" gradientUnits="userSpaceOnUse">
<stop stop-color="#E34338"/>
<stop offset="1" stop-color="#D02C1C"/>
</linearGradient>
<linearGradient id="paint7_linear_698_2441" x1="21.9708" y1="54.9462" x2="21.9708" y2="58.4361" gradientUnits="userSpaceOnUse">
<stop stop-color="#E34338"/>
<stop offset="1" stop-color="#D02C1C"/>
</linearGradient>
</defs>
</svg>
