<svg width="98" height="65" viewBox="0 0 98 65" fill="none" xmlns="http://www.w3.org/2000/svg">
<g id="Group 449">
<g id="Group 445">
<path id="Vector" d="M95.5701 37.3545C94.2594 37.3545 93.1976 38.4161 93.1976 39.727V44.5401C87.8778 45.6398 83.8661 50.3616 83.8661 56.0041C83.8661 56.6336 83.9271 57.2521 84.0246 57.863C74.9735 60.2022 61.6019 61.6257 50.2127 54.6503C50.1966 54.641 50.1796 54.6359 50.1627 54.6266C50.1449 54.6164 50.1313 54.6029 50.1135 54.5927C38.314 48.1316 25.7323 48.3121 16.2995 50.0073C14.1034 45.3939 9.79171 42.188 4.74628 41.4163L4.74543 19.9935C10.0661 18.8937 14.0787 14.172 14.0787 8.52944C14.0787 8.03635 14.0372 7.54833 13.977 7.0637C16.3273 6.48164 18.958 5.96482 21.7683 5.64286C23.0697 5.49374 24.0043 4.31775 23.8551 3.01646C23.7069 1.71424 22.53 0.783086 21.2287 0.92884C10.0729 2.2031 1.68858 6.22501 1.33612 6.3944C0.519379 6.79091 0 7.62036 0 8.52861V56.6708C0 57.4842 0.416851 58.2416 1.10482 58.6763C1.79364 59.1118 2.65528 59.1643 3.38896 58.8152C3.62789 58.7025 27.5034 47.6197 47.8309 58.7525C55.0098 63.121 62.7239 64.5918 69.8545 64.5918C84.0283 64.5918 95.8907 58.7864 96.6282 58.4179C97.4331 58.0163 97.9406 57.1944 97.9406 56.2964V39.7266C97.9423 38.4159 96.8798 37.3542 95.5699 37.3542L95.5701 37.3545ZM9.32573 8.39243C9.32657 8.43818 9.33844 8.48224 9.33844 8.52884C9.33844 11.5333 7.42196 14.0911 4.74978 15.0654V10.0768C5.77156 9.6498 7.34221 9.03718 9.32573 8.39243ZM4.74879 46.2429C7.55911 46.875 9.98401 48.606 11.4854 51.0511C8.75898 51.7458 6.46378 52.5058 4.74879 53.1387V46.2429ZM88.6355 56.4963C88.6244 56.3327 88.6126 56.1692 88.6126 56.0032C88.6126 52.9987 90.529 50.4409 93.1995 49.4666V54.7653C92.1836 55.2008 90.6181 55.8303 88.6355 56.4963Z" fill="url(#paint0_linear_699_2851)"/>
<path id="Vector_2" d="M96.8237 6.14107C96.129 5.70727 95.2605 5.66407 94.525 6.02245C94.2853 6.13937 70.4236 17.5722 50.1113 6.44861C50.1079 6.44692 50.1028 6.44607 50.0986 6.44353C44.2339 2.87906 37.444 0.909207 29.9077 0.594058C28.5733 0.537292 27.493 1.55653 27.4379 2.86561C27.3829 4.17375 28.4012 5.27945 29.7095 5.33454C36.4773 5.61667 42.5402 7.37217 47.7322 10.552C47.7458 10.5596 47.7593 10.5621 47.7729 10.5698C47.7932 10.5825 47.8102 10.5986 47.8314 10.6096C59.8624 17.1978 72.6985 16.7777 82.1898 14.8898C84.3503 19.1913 88.4469 22.1888 93.1956 22.9455V31.4112C93.1956 32.7219 94.2572 33.7836 95.568 33.7836C96.8787 33.7836 97.9404 32.722 97.9404 31.4112V8.15345C97.9404 7.33502 97.5185 6.57401 96.8237 6.14107ZM86.9999 13.7537C89.4857 13.0708 91.5946 12.3447 93.1948 11.7321V18.1119C90.6446 17.5061 88.429 15.9422 86.9999 13.7537Z" fill="url(#paint1_linear_699_2851)"/>
<path id="Vector_3" d="M53.2752 26.7701C54.3936 27.4496 55.8535 27.0946 56.5345 25.9745C57.2149 24.8544 56.859 23.3954 55.7381 22.7152L53.5742 21.4011C53.1896 21.1215 52.0805 20.3607 50.5995 19.7219L50.5334 18.5747C50.4563 17.2674 49.3388 16.2676 48.0263 16.3448C46.7546 16.4185 45.7862 17.4818 45.7997 18.7417C45.5006 18.7578 45.2007 18.7858 44.9007 18.8383C43.0004 19.1738 41.3948 20.2464 40.2494 21.9451C39.7241 22.5873 38.3719 24.5706 39.0641 27.2564C39.769 29.988 42.2811 32.2696 46.6893 34.1785L47.007 39.6262C46.1132 39.2534 45.1151 38.7739 43.9874 38.1427C42.8428 37.503 41.3981 37.9123 40.7593 39.0552C40.1197 40.199 40.528 41.6436 41.671 42.2833C43.6933 43.4135 45.5701 44.2353 47.3068 44.7656L47.4093 46.5313C47.483 47.792 48.5294 48.7647 49.7756 48.7647C49.8222 48.7647 49.8688 48.7638 49.9154 48.7613C51.2236 48.685 52.2226 47.5624 52.1462 46.2551L52.0996 45.4544C52.9748 45.4078 53.7967 45.2561 54.5566 44.9833C57.3576 43.9819 58.2794 41.8156 58.3506 41.6308C59.5757 38.7458 59.0046 36.6092 58.3107 35.3256C56.6213 32.2027 52.7493 31.2198 51.7861 31.0191C51.5971 30.9581 51.4277 30.898 51.2472 30.837L50.9261 25.335C50.9566 25.3553 50.9863 25.3773 51.0185 25.3968L53.2752 26.7701ZM54.1386 37.5843C54.247 37.7834 54.5749 38.3909 53.9598 39.8381C53.959 39.8414 53.6548 40.2702 52.9618 40.5176C52.6881 40.615 52.3136 40.7006 51.8247 40.726L51.5401 35.8619C52.4653 36.1652 53.693 36.7582 54.1386 37.5843ZM43.6699 26.1109C43.4928 25.5026 43.8453 25.04 43.8749 24.9993C43.9732 24.8951 44.0622 24.7808 44.141 24.6604C44.7036 23.7912 45.2797 23.5904 45.7194 23.5107C45.8304 23.4904 45.9507 23.4972 46.0668 23.4904L46.3726 28.7195C44.2732 27.4817 43.7801 26.4896 43.6699 26.1109Z" fill="url(#paint2_linear_699_2851)"/>
<path id="Vector_4" d="M12.8287 27.5335C11.5816 27.9292 10.8919 29.2585 11.2859 30.5074C11.679 31.7562 13.0117 32.4476 14.2589 32.0578C15.5001 31.6698 19.5168 30.8073 21.6275 31.9002C21.9765 32.0816 22.3502 32.168 22.7179 32.168C23.5744 32.168 24.4022 31.702 24.8258 30.8878C25.4299 29.7245 24.9758 28.2926 23.8134 27.6886C19.5848 25.4951 13.5074 27.3192 12.8287 27.5335Z" fill="url(#paint3_linear_699_2851)"/>
<path id="Vector_5" d="M79.8213 37.9445C82.7333 37.9445 85.32 37.165 85.7495 37.0295C86.9966 36.6338 87.6863 35.3045 87.2923 34.0556C86.8984 32.8068 85.5614 32.1129 84.3193 32.5051C83.0781 32.8932 79.0622 33.7557 76.9507 32.6627C75.7866 32.0569 74.3573 32.5128 73.7533 33.6752C73.1492 34.8385 73.6033 36.2704 74.7657 36.8744C76.3204 37.6801 78.1267 37.9445 79.8213 37.9445Z" fill="url(#paint4_linear_699_2851)"/>
</g>
</g>
<defs>
<linearGradient id="paint0_linear_699_2851" x1="48.9703" y1="0.913818" x2="48.9703" y2="64.5918" gradientUnits="userSpaceOnUse">
<stop stop-color="#E34338"/>
<stop offset="1" stop-color="#D02C1C"/>
</linearGradient>
<linearGradient id="paint1_linear_699_2851" x1="62.6881" y1="0.591797" x2="62.6881" y2="33.7836" gradientUnits="userSpaceOnUse">
<stop stop-color="#E34338"/>
<stop offset="1" stop-color="#D02C1C"/>
</linearGradient>
<linearGradient id="paint2_linear_699_2851" x1="48.9694" y1="16.3406" x2="48.9694" y2="48.7647" gradientUnits="userSpaceOnUse">
<stop stop-color="#E34338"/>
<stop offset="1" stop-color="#D02C1C"/>
</linearGradient>
<linearGradient id="paint3_linear_699_2851" x1="18.1341" y1="26.6188" x2="18.1341" y2="32.168" gradientUnits="userSpaceOnUse">
<stop stop-color="#E34338"/>
<stop offset="1" stop-color="#D02C1C"/>
</linearGradient>
<linearGradient id="paint4_linear_699_2851" x1="80.4445" y1="32.3946" x2="80.4445" y2="37.9445" gradientUnits="userSpaceOnUse">
<stop stop-color="#E34338"/>
<stop offset="1" stop-color="#D02C1C"/>
</linearGradient>
</defs>
</svg>
