<svg width="109" height="109" viewBox="0 0 109 109" fill="none" xmlns="http://www.w3.org/2000/svg">
<path d="M93.998 88.1008C93.998 95.713 87.652 102 79.9709 102C72.2886 102 65.9437 95.7118 65.9437 88.1008C65.9437 87.1081 66.1103 86.1155 66.278 85.1229L32.3784 65.7629C29.874 67.9144 26.701 69.2384 23.0271 69.2384C15.3448 69.2384 9 62.9502 9 55.3392C9 47.7269 15.346 41.4399 23.0271 41.4399C27.5362 41.4399 31.3768 43.4252 34.049 46.7356L66.6126 28.036C66.1117 26.7121 65.9452 25.3882 65.9452 23.8992C65.9452 16.287 72.2912 10 79.9723 10C87.6546 10 93.9994 16.2882 93.9994 23.8992C93.9994 31.5114 87.6534 37.7984 79.9723 37.7984C76.7991 37.7984 73.7938 36.6396 71.4559 34.8205L37.0554 54.5106V55.3382C37.0554 56.4971 36.8888 57.6547 36.721 58.6473L70.4537 78.0073C72.9581 75.6908 76.299 74.367 79.9729 74.367C87.654 74.2019 94 80.4903 94 88.101L93.998 88.1008Z" fill="url(#paint0_linear_246_2150)"/>
<defs>
<linearGradient id="paint0_linear_246_2150" x1="51.5" y1="10" x2="51.5" y2="102" gradientUnits="userSpaceOnUse">
<stop stop-color="#E34338"/>
<stop offset="0.520833" stop-color="#CC3F31"/>
<stop offset="1" stop-color="#D02C1C"/>
</linearGradient>
</defs>
</svg>
