<svg width="109" height="117" viewBox="0 0 109 117" fill="none" xmlns="http://www.w3.org/2000/svg">
<path fill-rule="evenodd" clip-rule="evenodd" d="M54.4312 0.000531688C47.2664 0.120467 40.7412 1.48496 34.9711 3.94016C29.2011 6.39533 24.1881 9.91356 20.1417 14.3129C16.096 18.7121 12.9907 23.9789 10.9102 29.8037C9.05116 35.0071 8.06831 40.6944 7.8683 46.6704C5.76768 48.2279 3.95737 50.2007 2.60597 52.5413C-0.868656 58.559 -0.868656 66.015 2.60597 72.0318C6.08059 78.0495 12.5154 81.7431 19.4805 81.7431H22.4389C24.3075 87.3009 27.2954 92.9953 32.2719 97.4086C37.5222 102.065 44.9269 105.11 54.4853 105.112H54.5148C64.0732 105.11 71.4605 102.037 76.7055 97.3781C81.6759 92.9639 84.6491 87.2982 86.5082 81.7431H89.5501C90.7746 81.7431 91.9756 81.5927 93.1542 81.3711C92.9308 83.1753 92.5849 85.1047 91.9678 87.1507C90.9223 90.6184 89.251 94.2294 86.8802 97.4618C84.5102 100.695 81.4379 103.526 77.4504 105.599C73.4638 107.672 68.5299 109.021 62.2724 109.021C61.1851 108.928 60.1092 109.294 59.3061 110.032C58.5022 110.769 58.0451 111.809 58.0451 112.9C58.0451 113.99 58.5022 115.031 59.3061 115.768C60.1092 116.506 61.1851 116.872 62.2724 116.779C69.6414 116.779 75.9085 115.199 81.0476 112.527C86.1867 109.855 90.187 106.13 93.1698 102.063C96.1525 97.9958 98.1471 93.5842 99.4126 89.3863C100.679 85.1886 101.223 81.2176 101.223 77.8655V77.8429C103.287 76.2942 105.061 74.3414 106.394 72.0322C109.869 66.0154 109.869 58.5593 106.394 52.5416C105.032 50.1837 103.207 48.1962 101.087 46.6334C100.748 39.8152 99.5674 33.5621 97.4815 28.0241C95.2844 22.1898 92.12 17.1212 88.0595 12.9669C83.9991 8.81347 79.0643 5.59872 73.4282 3.42321C67.792 1.24786 61.4658 0.116346 54.5757 0.000651784C54.5279 -0.000217261 54.479 -0.000337357 54.4312 0.000531688ZM54.5146 7.75808C60.5826 7.86846 65.9693 8.90008 70.6138 10.6929C75.2825 12.4946 79.2143 15.0584 82.4769 18.3967C85.7404 21.734 88.326 25.8596 90.1806 30.784C91.5677 34.4673 92.5506 38.605 93.0557 43.1878C91.9076 42.9775 90.7404 42.8297 89.5497 42.8297C89.4149 42.8228 89.2802 42.8228 89.1464 42.8297C89.0751 42.841 89.0039 42.8532 88.9335 42.868C87.9792 36.8834 85.9915 31.6167 82.7133 27.332C76.8113 19.6187 67.093 15.5522 54.713 15.5522C42.2308 15.5522 32.5525 20.1811 26.6681 28.0542C23.5177 32.2692 21.5039 37.3057 20.4175 42.8758C20.0985 42.8201 19.7735 42.8054 19.451 42.8297C18.2413 42.8297 17.0575 42.9783 15.8921 43.1947C16.2884 39.369 17.055 35.744 18.242 32.4195C19.9967 27.5065 22.5875 23.1984 25.8928 19.6055C29.1972 16.0127 33.2436 13.129 38.022 11.0961C42.7838 9.07023 48.2826 7.86912 54.5159 7.75787L54.5146 7.75808ZM54.7128 23.3393C65.4731 23.3393 72.2721 26.5124 76.5306 32.0771C79.8228 36.3801 81.6748 42.5237 81.8686 50.4047C79.7253 50.21 77.5656 49.6955 75.4424 48.8907C72.2276 47.6722 69.117 45.8566 66.4462 43.9786C63.7755 42.0996 61.5297 40.1467 59.9749 38.6858C58.4201 37.2249 57.6169 36.3278 57.6169 36.3278C56.8252 35.4414 55.671 34.9651 54.4847 35.0355C53.4861 35.0963 52.5492 35.5422 51.8687 36.2748C51.8687 36.2748 51.0074 37.1891 49.3971 38.6552C47.7857 40.1205 45.4757 42.0629 42.7275 43.9481C39.9793 45.8331 36.8124 47.667 33.5333 48.8907C31.4449 49.6711 29.3269 50.1708 27.2366 50.3812C27.6694 43.1547 29.6041 37.1212 32.9023 32.7079C37.2827 26.8484 44.0542 23.3393 54.7128 23.3393ZM54.6902 44.3819C56.4492 46.0341 58.9384 48.2121 61.9905 50.3587C65.0498 52.5106 68.6505 54.6329 72.6823 56.1607C75.4661 57.2158 78.4739 57.9467 81.6028 58.1762C81.6036 58.2805 81.6089 58.3839 81.6184 58.4882C81.6184 58.4882 82.5197 68.6402 79.4352 78.4958C77.8935 83.4235 75.3808 88.1532 71.5264 91.5758C67.678 94.9939 62.4573 97.3084 54.5146 97.3171C46.5519 97.3154 41.3043 95.0001 37.443 91.5758C33.5816 88.1514 31.0924 83.4244 29.5419 78.4958C26.4402 68.6393 27.2979 58.4882 27.2979 58.4882C27.3048 58.3813 27.3074 58.2753 27.3057 58.1684C30.437 57.9354 33.4598 57.208 36.2636 56.1607C40.3423 54.6381 44.0029 52.5348 47.1309 50.3891C50.2588 48.2434 52.8468 46.0533 54.6599 44.4046C54.6782 44.3881 54.6719 44.3976 54.6902 44.3819ZM19.45 50.5874H19.5187C19.4074 53.0617 19.417 55.6012 19.5943 58.2068C19.5639 58.5362 18.9155 65.4054 20.446 73.9557H19.4804C15.2723 73.9557 11.4256 71.7351 9.33624 68.1153C7.24606 64.4954 7.24606 60.0701 9.33624 56.4502C11.4256 52.8303 15.2705 50.5874 19.45 50.5874ZM89.5877 50.5874C93.7525 50.6004 97.5878 52.841 99.671 56.4504C101.761 60.0703 101.761 64.4957 99.671 68.1156C97.5808 71.7355 93.7289 73.9559 89.5495 73.9559H88.4848C89.9979 65.4484 89.3565 58.6311 89.3209 58.2599C89.5538 55.6074 89.6277 53.0608 89.5877 50.5874ZM42.8181 58.3892C41.7856 58.3892 40.7948 58.7994 40.0648 59.5295C39.3348 60.2595 38.9246 61.2503 38.9246 62.2828C38.9246 63.3153 39.3348 64.3061 40.0648 65.0361C40.7948 65.7661 41.7856 66.1763 42.8181 66.1763C43.8506 66.1763 44.8414 65.7661 45.5714 65.0361C46.3015 64.3061 46.7117 63.3153 46.7117 62.2828C46.7117 61.2503 46.3015 60.2595 45.5714 59.5295C44.8414 58.7994 43.8506 58.3892 42.8181 58.3892ZM66.1796 58.3892C65.1471 58.3892 64.1563 58.7994 63.4262 59.5295C62.6962 60.2595 62.286 61.2503 62.286 62.2828C62.286 63.3153 62.6962 64.3061 63.4262 65.0361C64.1563 65.7661 65.1471 66.1763 66.1796 66.1763C67.212 66.1763 68.2028 65.7661 68.9329 65.0361C69.6629 64.3061 70.0731 63.3153 70.0731 62.2828C70.0731 61.2503 69.6629 60.2595 68.9329 59.5295C68.2028 58.7994 67.212 58.3892 66.1796 58.3892ZM65.4573 73.7584C64.6352 73.7853 63.8425 74.0721 63.1933 74.5779C62.5449 75.0829 62.0721 75.7816 61.8453 76.5716C60.7389 79.6952 57.7971 81.7427 54.484 81.7427C51.17 81.7427 48.2579 79.6951 47.1523 76.5716C46.8811 75.7634 46.351 75.0664 45.6453 74.5883C44.9387 74.1103 44.0957 73.8774 43.2439 73.9252C42.015 74.0008 40.8947 74.6526 40.2221 75.6834C39.5494 76.7141 39.4034 78.0022 39.8293 79.1571C42.0255 85.3641 47.8996 89.5298 54.484 89.5298C61.0675 89.5307 66.979 85.3641 69.1752 79.1571C69.6897 77.9343 69.5455 76.5333 68.7928 75.4409C68.0402 74.3475 66.7836 73.714 65.4573 73.7584Z" fill="url(#paint0_linear_246_2208)"/>
<defs>
<linearGradient id="paint0_linear_246_2208" x1="54.5" y1="0" x2="54.5" y2="116.793" gradientUnits="userSpaceOnUse">
<stop stop-color="#E34338"/>
<stop offset="0.520833" stop-color="#CC3F31"/>
<stop offset="1" stop-color="#D02C1C"/>
</linearGradient>
</defs>
</svg>
