<svg width="22" height="22" viewBox="0 0 22 22" fill="none" xmlns="http://www.w3.org/2000/svg">
<path d="M11.0458 7.80601C11.0023 8.04512 11.1762 8.26256 11.3936 8.30592C12.0893 8.41463 12.7195 8.74061 13.2194 9.24052C13.7194 9.74042 14.0455 10.3709 14.1541 11.0664C14.1976 11.2838 14.3715 11.4359 14.5887 11.4359H14.6539C14.8931 11.3924 15.0451 11.1751 15.0018 10.936C14.8495 10.0666 14.4367 9.2622 13.8062 8.63191C13.1759 8.00162 12.3715 7.58858 11.5022 7.43635C11.3066 7.41482 11.0891 7.5669 11.0458 7.80601Z" fill="#FBFBFB"/>
<path d="M17.4362 11.0442C17.4579 11.2616 17.6536 11.4354 17.8709 11.4354H17.9144C18.1535 11.4137 18.3275 11.1962 18.3056 10.9572C18.1534 9.21818 17.371 7.56626 16.1319 6.32723C14.8929 5.0882 13.2409 4.32745 11.502 4.15356C11.2629 4.13188 11.0455 4.30579 11.0238 4.54474C11.0021 4.78385 11.176 5.00129 11.415 5.02295C12.9584 5.15335 14.4147 5.84898 15.5015 6.93582C16.6101 8.04447 17.3056 9.50083 17.4362 11.0441L17.4362 11.0442Z" fill="#FBFBFB"/>
<path d="M18.4366 4.04535C16.5673 2.19765 14.111 1.06745 11.5026 0.915219C11.2635 0.893537 11.0679 1.08913 11.0461 1.32826C11.0244 1.56737 11.22 1.76295 11.4591 1.7848C13.8502 1.93688 16.1108 2.95851 17.828 4.65398C19.5234 6.3711 20.5451 8.6318 20.6973 11.0228C20.719 11.262 20.8929 11.4359 21.132 11.4359H21.1537C21.3928 11.4142 21.5667 11.2184 21.5667 10.9793C21.3928 8.37096 20.2843 5.89293 18.4366 4.04531L18.4366 4.04535Z" fill="#FBFBFB"/>
<path d="M17.6974 15.6961L14.3717 13.9789C13.5892 13.5659 12.611 13.7833 12.0676 14.4788L11.2416 15.5439C10.4374 15.0657 9.6982 14.5439 8.82881 13.6745C7.93757 12.7833 7.416 12.0443 6.93776 11.1965L7.98108 10.3706C8.67673 9.82723 8.89402 8.84911 8.48099 8.06659L6.76386 4.76257C6.52475 4.30602 6.09006 3.95835 5.59016 3.82797C5.09025 3.69759 4.54683 3.78445 4.11214 4.08876L1.98198 5.50157C1.26466 5.97978 0.873442 6.80585 0.916838 7.65355C0.960354 8.24048 1.04723 9.08821 1.19946 9.67499C1.8516 12.1746 3.39483 14.7396 5.56854 16.9133C7.74226 19.087 10.3071 20.6304 12.8069 21.2824C13.4155 21.4346 14.2415 21.5215 14.8502 21.565H15.0024C15.8284 21.565 16.5674 21.152 17.0238 20.4782L18.415 18.3262C18.6976 17.8915 18.7845 17.3481 18.6541 16.8482C18.5017 16.3483 18.1539 15.9352 17.6975 15.6961L17.6974 15.6961ZM17.6757 17.8479L16.2846 19.9999C16.0019 20.4346 15.5237 20.6956 15.0021 20.6956H14.8934C14.3283 20.652 13.5458 20.5868 13.0241 20.4564C10.6765 19.8478 8.24198 18.3696 6.17699 16.3047C4.11204 14.2398 2.63387 11.8052 2.02528 9.45766C1.89488 8.91424 1.80785 8.15338 1.76449 7.5883C1.72097 7.04488 1.98191 6.52316 2.43828 6.21885L4.56845 4.80604C4.72068 4.69732 4.91627 4.63212 5.11186 4.63212C5.19874 4.63212 5.28578 4.63212 5.35098 4.6538C5.61177 4.719 5.85088 4.9146 5.98126 5.15371L7.69839 8.45773C7.91582 8.87077 7.8071 9.39233 7.43759 9.67495L6.08995 10.7183C5.91604 10.8487 5.87252 11.0878 5.98124 11.2617C6.52466 12.3052 7.13329 13.1963 8.19842 14.2831C9.24175 15.3264 10.133 15.9134 11.133 16.4785C11.3286 16.5872 11.546 16.5437 11.6764 16.3698L12.7415 15.0221C13.0241 14.6526 13.5457 14.5439 13.9587 14.7613L17.306 16.4568C17.5451 16.5872 17.7407 16.8046 17.8059 17.0654C17.8712 17.348 17.8277 17.6306 17.6756 17.8479L17.6757 17.8479Z" fill="#FBFBFB"/>
</svg>
