<svg width="59" height="51" viewBox="0 0 59 51" fill="none" xmlns="http://www.w3.org/2000/svg">
<path id="Vector" d="M9.65357 36.714C14.1994 41.3856 20.5244 45.7682 28.9892 50.1048C29.4448 50.3386 29.9837 50.3386 30.4385 50.1048C38.9031 45.7648 45.2298 41.3856 49.7742 36.714C55.1938 31.1447 58.1273 25.0077 58.4944 18.4749C58.7826 14.4463 57.6299 10.4462 55.2428 7.19286C53.0791 4.26659 49.9699 2.18391 46.4449 1.2997C43.0626 0.443731 39.4843 0.862939 36.3903 2.47801C33.6251 3.97116 31.3172 6.18994 29.7122 8.89644C28.1073 6.19079 25.7992 3.97193 23.0359 2.47801C19.9416 0.862939 16.3636 0.443731 12.9813 1.2997C9.45654 2.18406 6.34736 4.2668 4.18253 7.19286C1.79639 10.4464 0.6435 14.4465 0.930921 18.4749C1.30073 25.0079 4.22904 31.1499 9.65357 36.714ZM13.7372 4.40063C14.6159 4.18434 15.5179 4.07495 16.4233 4.07495C20.5794 4.07495 25.2969 6.37655 28.2645 12.947C28.5227 13.5173 29.0899 13.8848 29.7146 13.8848C30.3401 13.8848 30.9073 13.5173 31.1655 12.947C34.7994 4.90165 41.0536 3.25744 45.6928 4.40054H45.692C48.6779 5.1989 51.2833 7.03436 53.0464 9.57903C54.8088 12.1235 55.6133 15.2127 55.3176 18.2965C54.7154 29.0081 46.5739 38.1108 29.7162 46.89C12.8569 38.1117 4.71616 29.009 4.11274 18.2965C3.81624 15.2124 4.6208 12.1235 6.38397 9.57903C8.14636 7.03457 10.7524 5.19903 13.7375 4.40054L13.7372 4.40063Z" fill="url(#paint0_linear_828_5887)"/>
<defs>
<linearGradient id="paint0_linear_828_5887" x1="29.7128" y1="0.865723" x2="29.7128" y2="50.2802" gradientUnits="userSpaceOnUse">
<stop stop-color="#E34338"/>
<stop offset="1" stop-color="#D02C1C"/>
</linearGradient>
</defs>
</svg>
