<svg width="106" height="75" viewBox="0 0 106 75" fill="none" xmlns="http://www.w3.org/2000/svg">
<path d="M105.788 23.1695L88.759 70.7712C88.3933 71.793 87.724 72.6767 86.8424 73.3018C85.9609 73.926 84.9109 74.2616 83.8338 74.2616H31.4381C30.2408 74.297 29.0679 73.9172 28.1145 73.1858C27.1619 72.4544 26.4847 71.4158 26.1978 70.2426L11.6316 10.7927H5.23957C3.36769 10.7927 1.63791 9.78507 0.701963 8.14877C-0.233988 6.51248 -0.233988 4.49546 0.701963 2.85909C1.63791 1.22273 3.36767 0.215161 5.23957 0.215161H15.7192C16.9156 0.179743 18.0884 0.559594 19.0419 1.29098C19.9954 2.02237 20.6717 3.06099 20.9585 4.23412L35.5248 63.6841H80.1666L95.8855 19.5732C96.5583 17.8483 98.0776 16.6051 99.8889 16.2971C101.699 15.988 103.539 16.6601 104.735 18.0662C105.932 19.4732 106.312 21.4096 105.736 23.17L105.788 23.1695ZM45.6357 25.1264L52.3953 18.2509V42.5277C52.3953 44.4173 53.3944 46.1633 55.0154 47.1081C56.6365 48.0529 58.6337 48.0529 60.2548 47.1081C61.8758 46.1633 62.8749 44.4173 62.8749 42.5277V18.2509L69.6345 25.1264H69.6336C70.6178 26.1278 71.9573 26.6909 73.3536 26.6909C74.751 26.6909 76.0905 26.1278 77.0736 25.1264C78.0657 24.1329 78.6236 22.7816 78.6236 21.3713C78.6236 19.9609 78.0657 18.6095 77.0736 17.6162L61.3547 1.74896C60.8564 1.26727 60.2688 0.890063 59.6258 0.638613C58.3504 0.109123 56.9197 0.109123 55.6435 0.638613C55.0005 0.890085 54.4128 1.26727 53.9146 1.74896L38.1957 17.6162C36.8667 18.9576 36.3475 20.9136 36.8343 22.7456C37.3211 24.5785 38.7386 26.0102 40.5543 26.5007C42.37 26.9921 44.3068 26.4678 45.6357 25.1264Z" fill="url(#paint0_linear_246_2159)"/>
<defs>
<linearGradient id="paint0_linear_246_2159" x1="53" y1="0.212891" x2="53" y2="74.2639" gradientUnits="userSpaceOnUse">
<stop stop-color="#E34338"/>
<stop offset="0.520833" stop-color="#CC3F31"/>
<stop offset="1" stop-color="#D02C1C"/>
</linearGradient>
</defs>
</svg>
