<svg width="61" height="50" viewBox="0 0 61 50" fill="none" xmlns="http://www.w3.org/2000/svg">
<g id="Group 406">
<g id="Group 402">
<path id="Vector" d="M1.60007 8.68616C3.03862 8.68616 4.4184 9.23343 5.43613 10.2073C6.45325 11.1818 7.02471 12.5031 7.02471 13.8806C7.02471 14.4543 7.51052 14.9195 8.10964 14.9195C8.70877 14.9195 9.19457 14.4543 9.19457 13.8806C9.19457 12.5031 9.7661 11.1819 10.7832 10.2073C11.8008 9.23337 13.1807 8.68616 14.6192 8.68616C15.2184 8.68616 15.7042 8.22097 15.7042 7.64726C15.7042 7.07355 15.2184 6.60837 14.6192 6.60837C13.1807 6.60837 11.8009 6.06109 10.7832 5.08719C9.76604 4.11276 9.19457 2.79141 9.19457 1.41389C9.19457 0.840187 8.70877 0.375 8.10964 0.375C7.51052 0.375 7.02471 0.840187 7.02471 1.41389C7.02471 2.79141 6.45319 4.11265 5.43613 5.08719C4.41853 6.06115 3.03862 6.60837 1.60007 6.60837C1.00094 6.60837 0.515137 7.07355 0.515137 7.64726C0.515137 8.22097 1.00094 8.68616 1.60007 8.68616ZM8.10964 5.1437C8.75237 6.17146 9.65086 7.03176 10.7241 7.64726C9.65084 8.26272 8.75242 9.12309 8.10964 10.1508C7.46692 9.12306 6.56842 8.26276 5.49515 7.64726C6.56845 7.03181 7.46687 6.17144 8.10964 5.1437Z" fill="url(#paint0_linear_828_5941)"/>
</g>
<g id="Group 404">
<path id="Vector_2" fill-rule="evenodd" clip-rule="evenodd" d="M60.1001 32.3694C60.7045 31.2747 60.7045 29.9651 60.1001 28.8704C60.0713 28.8164 50.7097 11.8733 30.5343 11.8733C10.3588 11.8733 0.997485 28.8157 0.968399 28.8704C0.364049 29.9651 0.364049 31.2747 0.968399 32.3694C0.99724 32.4234 10.3588 49.3665 30.5343 49.3665C50.7097 49.3665 60.071 32.424 60.1001 32.3694ZM57.7915 31.2036C57.7915 31.2036 49.1618 46.867 30.5346 46.867C11.9074 46.867 3.27771 31.2036 3.27771 31.2036C3.07582 30.8387 3.07582 30.401 3.27771 30.0362C3.27771 30.0362 11.9074 14.3728 30.5346 14.3728C49.1618 14.3728 57.7915 30.0362 57.7915 30.0362C57.9934 30.4011 57.9934 30.8388 57.7915 31.2036Z" fill="url(#paint1_linear_828_5941)"/>
<path id="Vector_3" fill-rule="evenodd" clip-rule="evenodd" d="M30.5343 19.3726C24.0516 19.3726 18.7881 24.4128 18.7881 30.6204C18.7881 36.828 24.0516 41.8682 30.5343 41.8682C37.017 41.8682 42.2806 36.828 42.2806 30.6204C42.2806 24.4128 37.017 19.3726 30.5343 19.3726ZM30.5343 21.8719C35.5758 21.8719 39.6704 25.7928 39.6704 30.6204C39.6704 35.448 35.5758 39.3688 30.5343 39.3688C25.4928 39.3688 21.3982 35.448 21.3982 30.6204C21.3982 25.7928 25.4928 21.8719 30.5343 21.8719Z" fill="url(#paint2_linear_828_5941)"/>
<path id="Vector_4" fill-rule="evenodd" clip-rule="evenodd" d="M30.5338 26.8707C32.6951 26.8707 34.4492 28.5504 34.4492 30.62C34.4492 31.31 35.0339 31.8699 35.7545 31.8699C36.4747 31.8699 37.0593 31.31 37.0593 30.62C37.0593 27.1708 34.1359 24.3713 30.5338 24.3713C29.8132 24.3713 29.2285 24.9312 29.2285 25.6208C29.2285 26.3108 29.8132 26.8707 30.5338 26.8707Z" fill="url(#paint3_linear_828_5941)"/>
</g>
</g>
<defs>
<linearGradient id="paint0_linear_828_5941" x1="8.10964" y1="0.375" x2="8.10964" y2="14.9195" gradientUnits="userSpaceOnUse">
<stop stop-color="#E34338"/>
<stop offset="1" stop-color="#D02C1C"/>
</linearGradient>
<linearGradient id="paint1_linear_828_5941" x1="30.5342" y1="11.8733" x2="30.5342" y2="49.3665" gradientUnits="userSpaceOnUse">
<stop stop-color="#E34338"/>
<stop offset="1" stop-color="#D02C1C"/>
</linearGradient>
<linearGradient id="paint2_linear_828_5941" x1="30.5343" y1="19.3726" x2="30.5343" y2="41.8682" gradientUnits="userSpaceOnUse">
<stop stop-color="#E34338"/>
<stop offset="1" stop-color="#D02C1C"/>
</linearGradient>
<linearGradient id="paint3_linear_828_5941" x1="33.1439" y1="24.3713" x2="33.1439" y2="31.8699" gradientUnits="userSpaceOnUse">
<stop stop-color="#E34338"/>
<stop offset="1" stop-color="#D02C1C"/>
</linearGradient>
</defs>
</svg>
