<svg width="25" height="24" viewBox="0 0 25 24" fill="none" xmlns="http://www.w3.org/2000/svg">
<path fill-rule="evenodd" clip-rule="evenodd" d="M9.89202 6.01326C10.1563 6.08507 10.336 6.31419 10.4473 6.56444L11.4618 8.84693C11.594 9.14416 11.5374 9.51851 11.3655 9.7946C11.0859 10.2435 10.7685 10.8424 10.9922 11.3216C11.553 12.5229 12.3294 13.2568 13.5009 13.8257C13.9796 14.0581 14.5745 13.7169 15.0234 13.4314C15.282 13.267 15.6467 13.2042 15.9256 13.3311L18.305 14.4132C18.5507 14.5249 18.7753 14.7027 18.8472 14.9628C19.225 16.3294 17.5751 18.0863 16.3003 18.0863C15.0494 18.0863 13.8106 17.8399 12.6549 17.3613C11.4991 16.8826 10.449 16.181 9.56441 15.2966C8.67984 14.4121 7.97816 13.3621 7.49943 12.2065C7.0207 11.0509 6.7743 9.81232 6.7743 8.56151C6.7743 7.28888 8.52618 5.64222 9.89202 6.01326ZM10.3614 9.21897L9.42863 7.12055C9.23342 7.13814 8.92802 7.24398 8.57599 7.54723C8.10215 7.95542 7.93104 8.39331 7.93104 8.56151C7.93104 9.66044 8.14751 10.7486 8.56811 11.7639C8.98871 12.7792 9.60519 13.7017 10.3823 14.4787C11.1595 15.2558 12.0821 15.8722 13.0975 16.2927C14.113 16.7133 15.2013 16.9297 16.3003 16.9297C16.469 16.9297 16.908 16.7579 17.3164 16.283C17.6212 15.9285 17.7256 15.6221 17.7419 15.4277L15.5832 14.4459C15.3551 14.5894 15.0222 14.787 14.6529 14.9153C14.251 15.0549 13.629 15.1736 12.9956 14.8661C11.6076 14.1921 10.6272 13.2743 9.944 11.8107C9.657 11.1958 9.75926 10.5917 9.88995 10.1894C10.0155 9.80306 10.2139 9.45785 10.3614 9.21897Z" fill="#FBFBFB"/>
<path fill-rule="evenodd" clip-rule="evenodd" d="M12.8382 23.9292C19.4146 23.9292 24.7458 18.5987 24.7458 12.0232C24.7458 5.44768 19.4146 0.117188 12.8382 0.117188C6.26186 0.117188 0.930664 5.44768 0.930664 12.0232C0.930664 14.0073 1.41605 15.878 2.27457 17.5231C2.35592 17.679 2.37872 17.8594 2.3332 18.0293L0.980992 23.0751C0.845424 23.581 1.3084 24.0439 1.81435 23.9084L6.87888 22.5515C7.04773 22.5063 7.2271 22.5285 7.38242 22.6087C9.01689 23.4526 10.8719 23.9292 12.8382 23.9292ZM23.3849 12.0232C23.3849 17.8472 18.663 22.5685 12.8382 22.5685C11.0942 22.5685 9.45277 22.1463 8.00681 21.3997C7.56514 21.1717 7.03847 21.1001 6.52666 21.2372L2.60051 22.2891L3.6477 18.3814C3.78565 17.8667 3.71237 17.3369 3.48107 16.8937C2.72154 15.4382 2.29153 13.7829 2.29153 12.0232C2.29153 6.19917 7.01344 1.47787 12.8382 1.47787C18.663 1.47787 23.3849 6.19917 23.3849 12.0232Z" fill="#FBFBFB"/>
</svg>
