<svg width="28" height="27" viewBox="0 0 28 27" fill="none" xmlns="http://www.w3.org/2000/svg">
<g id="icon/youtube">
<path id="vector" fill-rule="evenodd" clip-rule="evenodd" d="M22.516 6.09156C23.4836 6.35151 24.249 7.11692 24.509 8.0845C24.9856 9.84637 25 13.5001 25 13.5001C25 13.5001 25 17.1683 24.5234 18.9157C24.2635 19.8833 23.4981 20.6487 22.5305 20.9086C20.7831 21.3852 13.75 21.3852 13.75 21.3852C13.75 21.3852 6.71694 21.3852 4.96951 20.9086C4.00192 20.6487 3.23652 19.8833 2.97657 18.9157C2.5 17.1538 2.5 13.5001 2.5 13.5001C2.5 13.5001 2.5 9.84637 2.96213 8.09895C3.22208 7.13136 3.98748 6.36595 4.95507 6.10601C6.7025 5.62943 13.7356 5.61499 13.7356 5.61499C13.7356 5.61499 20.7686 5.61499 22.516 6.09156ZM17.3315 13.5001L11.4971 16.8794V10.1208L17.3315 13.5001Z" fill="url(#paint0_linear_1644_1815)"/>
</g>
<defs>
<linearGradient id="paint0_linear_1644_1815" x1="13.75" y1="5.61499" x2="13.75" y2="21.3852" gradientUnits="userSpaceOnUse">
<stop stop-color="#FF6251"/>
<stop offset="1" stop-color="#FF4358"/>
</linearGradient>
</defs>
</svg>
